<svg xmlns="http://www.w3.org/2000/svg" xmlns:xlink="http://www.w3.org/1999/xlink" width="1024" zoomAndPan="magnify" viewBox="0 0 768 767.999994" height="1024" preserveAspectRatio="xMidYMid meet" version="1.0"><defs><clipPath id="0ea0cd92b5"><path d="M 106.75 79 L 660 79 L 660 687 L 106.75 687 Z M 106.75 79 " clip-rule="nonzero"/></clipPath></defs><g clip-path="url(#0ea0cd92b5)"><path fill="#7cc133" d="M 323.574219 79.167969 C 320.796875 78.886719 318.699219 79.167969 317.226562 79.167969 L 316.203125 79.167969 C 295.847656 80.644531 275.71875 82.117188 254.851562 88.523438 L 254.457031 88.636719 L 254.058594 88.808594 C 240.394531 93.910156 228.488281 99.183594 223.554688 98.277344 C 222.929688 97.992188 222.476562 97.765625 220.660156 96.859375 C 218.167969 95.613281 213.746094 93.683594 208.359375 93.683594 C 204.558594 93.683594 200.757812 94.195312 196.789062 95.839844 C 192.820312 97.425781 188.117188 100.320312 185.222656 106.046875 C 183.238281 110.015625 183.011719 115.570312 183.410156 118.292969 C 183.464844 117.613281 183.636719 117.894531 179.496094 120.789062 C 174.902344 124.019531 165.886719 128.386719 162.429688 140.519531 L 162.429688 140.746094 L 162.316406 140.972656 C 159.707031 151.519531 161.070312 158.324219 160.957031 159.457031 C 160.160156 162.007812 155.851562 164.5625 147.175781 169.777344 L 146.609375 170.117188 C 132.09375 179.8125 119.621094 192.175781 111.171875 209.128906 C 109.695312 212.019531 106.75 216.554688 106.75 224.324219 C 106.75 234.472656 112.136719 239.292969 115.367188 242.753906 C 118.597656 246.210938 121.433594 249.273438 120.808594 248.367188 L 121.152344 248.875 L 121.546875 249.332031 C 122.511719 250.519531 122.851562 254.945312 120.582031 261.804688 C 118.769531 267.132812 113.722656 273.710938 109.695312 283.40625 C 106.691406 289.644531 106.75 295.484375 106.75 296.902344 L 106.75 302.914062 L 115.992188 312.15625 L 116.726562 312.722656 C 129.371094 322.589844 140.203125 332.113281 149.5 342.71875 L 149.160156 342.265625 C 156.589844 351.5625 164.128906 354.964844 170.367188 358.707031 C 178.363281 363.527344 189.023438 370.726562 203.933594 367.722656 C 210.285156 366.476562 214.652344 364.039062 217.941406 362.621094 C 221.230469 361.144531 223.101562 360.804688 222.875 360.804688 C 221.851562 360.804688 223.609375 360.917969 226.105469 361.65625 C 228.316406 362.28125 231.664062 363.128906 235.800781 363.355469 C 251.734375 365.625 262.792969 357.289062 267.496094 355.417969 C 267.042969 355.53125 269.253906 355.078125 271.578125 355.644531 C 273.847656 356.210938 276.171875 357.628906 276.457031 357.96875 L 277.535156 358.992188 L 278.667969 359.785156 C 277.761719 359.160156 278.269531 359.386719 279.746094 361.542969 C 281.164062 363.640625 283.65625 367.609375 288.476562 371.011719 C 295.679688 376.285156 303.21875 376.625 310.25 375.492188 C 310.535156 375.945312 310.648438 375.886719 310.875 376.339844 C 312.347656 379.234375 312.859375 383.03125 312.859375 381.105469 C 312.859375 381.613281 312.632812 382.75 312.007812 385.640625 C 311.382812 388.078125 310.535156 392.386719 311.554688 397.546875 C 313.085938 413.59375 316.035156 427.429688 327.542969 442.285156 C 336.332031 453.511719 340.1875 462.472656 340.359375 476.25 C 339.792969 481.578125 337.242188 487.875 333.839844 495.8125 C 330.324219 503.976562 325.898438 513.898438 325.898438 526.261719 C 325.898438 541.285156 333.894531 552.230469 340.1875 560.792969 C 346.484375 569.355469 351.472656 576.5 352.492188 580.582031 C 353.230469 583.585938 353.285156 590.785156 355.328125 599.179688 C 358.785156 614.429688 365.421875 627.585938 373.132812 639.890625 L 373.246094 640.0625 L 373.359375 640.289062 C 378.007812 647.261719 379.371094 647.886719 379.652344 648.226562 L 379.652344 653.953125 C 379.652344 668.976562 389.292969 679.863281 401.824219 684.910156 L 402.21875 685.023438 L 402.617188 685.195312 C 413.164062 688.710938 420.476562 685.535156 426.261719 684.0625 C 434.992188 683.152344 446.109375 681.507812 457.449219 677.765625 C 469.46875 673.855469 481.941406 668.355469 490.277344 656.503906 L 491.128906 655.257812 L 491.695312 653.894531 C 495.609375 644.824219 500.824219 636.089844 506.042969 630.875 C 508.195312 628.71875 511.144531 626 513.921875 621.460938 C 515.511719 618.855469 515.226562 614.375 515.738281 610.40625 L 518.96875 610.40625 L 520.386719 610.121094 C 529.117188 608.421875 535.355469 601.957031 538.304688 595.777344 C 541.195312 589.652344 541.875 583.414062 540.34375 576.78125 C 538.699219 569.410156 534.789062 564.476562 532.238281 561.359375 C 530.308594 558.976562 529.800781 558.070312 529.175781 557.105469 C 529.457031 556.597656 529.457031 556.253906 529.96875 555.746094 C 532.351562 553.082031 536.035156 550.074219 537.964844 548.882812 C 546.242188 544.914062 559.511719 540.097656 566.824219 525.523438 L 567.109375 524.957031 L 567.335938 524.390625 C 571.476562 514.011719 571.476562 502.164062 567.335938 491.785156 L 568.074219 494.394531 C 564.785156 477.835938 559.285156 465.25 558.09375 453.683594 L 558.035156 452.945312 L 557.867188 452.265625 C 556.503906 445.175781 562.003906 433.78125 569.207031 420.738281 C 573.402344 414.613281 580.375 408.433594 588.03125 403.332031 L 588.316406 403.105469 L 588.65625 402.878906 C 603.738281 391.59375 623.980469 374.867188 639.289062 355.929688 C 647 346.460938 653.523438 336.480469 657.207031 325.421875 C 660.894531 314.367188 661.347656 301.269531 655.109375 289.871094 L 646.492188 274.222656 L 632.9375 285.847656 C 626.589844 291.289062 610.824219 297.128906 598.976562 298.378906 C 597.105469 298.207031 595.121094 297.867188 594.777344 298.035156 C 594.4375 297.753906 594.269531 297.414062 594.382812 297.640625 L 593.589844 296.050781 L 592.398438 294.691406 C 586.613281 287.945312 582.246094 272.351562 567.617188 259.761719 L 567.277344 259.480469 L 566.882812 259.195312 C 559.851562 253.867188 555.882812 251.710938 553.839844 248.988281 L 553.214844 248.140625 L 552.480469 247.457031 C 550.097656 245.078125 547.261719 238.613281 544.371094 229.882812 L 544.257812 229.65625 C 536.433594 207.3125 536.375 186.5625 525.148438 159.289062 L 524.980469 158.777344 L 524.753906 158.324219 C 523.503906 155.828125 521.917969 152.03125 518.855469 147.664062 C 515.738281 143.296875 509.046875 137.230469 500.085938 137.230469 L 488.917969 137.230469 L 487.898438 137.34375 C 481.714844 138.25 474.570312 136.492188 465.5 132.921875 C 456.652344 129.519531 446.449219 124.644531 434.484375 121.921875 C 430.628906 120.730469 426.714844 120.050781 422.234375 120.390625 C 417.644531 120.730469 411.972656 122.089844 407.097656 126.96875 C 402.105469 131.957031 401.257812 136.890625 400.460938 140.066406 C 399.613281 139.554688 398.136719 138.421875 393.773438 135.53125 C 383.566406 128.386719 371.886719 124.871094 361 121.242188 C 354.761719 119.199219 351.246094 117.328125 346.484375 115.289062 C 346.597656 115.003906 346.878906 114.492188 346.9375 114.210938 C 349.375 107.007812 347.957031 101.453125 345.972656 96.460938 C 343.929688 91.472656 340.984375 86.765625 335.425781 83.023438 L 334.6875 82.570312 L 333.839844 82.117188 C 329.8125 80.132812 326.410156 79.394531 323.574219 79.167969 Z M 639.460938 471.089844 C 635.09375 479.820312 629.308594 489.972656 622.050781 494.28125 C 616.269531 497.230469 609.011719 500.121094 606.121094 505.960938 C 601.753906 513.21875 606.121094 521.894531 604.644531 529.152344 C 604.644531 532.042969 603.171875 534.9375 601.695312 537.828125 C 600.277344 545.085938 601.753906 553.816406 604.644531 561.074219 C 606.121094 565.441406 609.011719 571.226562 613.378906 572.699219 C 616.269531 572.699219 620.578125 571.226562 623.46875 568.332031 C 626.417969 565.441406 629.308594 559.65625 630.726562 555.292969 C 632.203125 550.925781 632.203125 546.558594 632.203125 542.25 C 633.675781 529.152344 640.933594 516.054688 643.824219 503.011719 C 645.300781 494.28125 645.300781 485.605469 643.824219 476.929688 C 642.351562 473.980469 640.933594 471.089844 639.460938 471.089844 Z M 508.820312 610.40625 L 508.875 610.40625 C 508.875 610.460938 508.820312 610.460938 508.820312 610.519531 C 508.421875 610.632812 509.785156 610.40625 508.820312 610.40625 Z M 508.820312 610.40625 " fill-opacity="1" fill-rule="nonzero"/></g></svg>