<svg xmlns="http://www.w3.org/2000/svg" xmlns:xlink="http://www.w3.org/1999/xlink" width="1024" zoomAndPan="magnify" viewBox="0 0 768 767.999994" height="1024" preserveAspectRatio="xMidYMid meet" version="1.0"><path fill="#7cc133" d="M 343.320312 547.214844 C 341.710938 547.675781 339.730469 547.957031 338.359375 547.550781 C 337.394531 547.269531 337.34375 545.195312 335.785156 545.945312 C 335.058594 546.292969 335 548.179688 335.058594 548.863281 C 335.320312 551.753906 340.949219 556.339844 343.40625 558.039062 C 344.046875 558.488281 345.0625 558.832031 345.640625 559.386719 C 346.324219 560.035156 346.535156 560.878906 347.191406 561.519531 C 348.054688 562.378906 349.378906 562.394531 349.871094 563.742188 C 350.324219 564.996094 348.730469 565.59375 349.179688 566.796875 C 349.667969 568.09375 351.210938 567.984375 351.9375 568.960938 C 352.695312 569.976562 352.675781 571.164062 353.238281 572.273438 C 353.878906 573.527344 355.652344 577.242188 356.824219 577.679688 C 356.710938 580.296875 360.949219 584.40625 363.15625 586.242188 C 366.570312 589.089844 369.671875 591.777344 372.703125 594.8125 C 372.632812 594.121094 373.042969 593.429688 373.085938 592.886719 C 374.175781 593.097656 375.167969 593.617188 375.824219 594.394531 C 376.386719 592.175781 376.929688 586.984375 376.207031 584.824219 C 378.363281 583.066406 376.46875 581.046875 374.40625 580.65625 C 373.9375 581.386719 373.023438 581.636719 372.515625 582.214844 C 370.050781 580.5 372.070312 579.972656 371.457031 578.371094 C 370.9375 577.011719 369.019531 577.011719 370.09375 574.992188 C 368.582031 574.019531 366.929688 572.910156 366.859375 571.09375 C 367.515625 570.976562 368.042969 570.378906 368.753906 570.308594 C 369.589844 566.429688 363.996094 569.285156 362.238281 569.246094 C 362.152344 568.734375 362.160156 568.273438 362.238281 567.769531 C 363.054688 567.753906 363.746094 567.324219 364.464844 567.316406 C 364.191406 567.113281 362.289062 566.371094 362.1875 566.167969 C 361.800781 565.390625 361.929688 563.835938 361.46875 563.085938 C 360.164062 560.964844 357.726562 561.140625 356.300781 559.558594 C 356.5 559.957031 356.660156 560.964844 356.863281 561.375 C 354.246094 561.722656 355.167969 559.648438 354.195312 558.113281 C 353.316406 556.71875 351.570312 555.515625 350.375 554.40625 C 347.875 552.101562 346.632812 548.691406 343.390625 548.15625 C 343.09375 547.523438 343.558594 547.507812 343.671875 547.214844 " fill-opacity="1" fill-rule="nonzero"/><path fill="#7cc133" d="M 395.242188 582.273438 C 395.0625 582.402344 393.03125 578.625 392.964844 577.03125 C 396.929688 575.734375 390.105469 572.917969 389.664062 571.289062 C 389.46875 570.523438 390.242188 568.828125 390.203125 568.699219 C 390.335938 569.183594 389.40625 566.226562 389.355469 566.96875 C 389.433594 565.808594 389.886719 564.261719 389.996094 562.804688 C 391.925781 561.933594 393.867188 563.230469 395.15625 562.125 C 395.8125 563.054688 396.632812 563.46875 397.570312 563.972656 C 398.722656 562.027344 396.820312 560.445312 398.628906 558.449219 C 399.71875 557.246094 401.082031 557.695312 402.847656 557.125 C 406.933594 555.796875 407.929688 551.648438 409.765625 548.230469 C 410.6875 548.257812 411.53125 548.238281 412.445312 548.238281 C 414.140625 552.128906 416.714844 542.449219 417.722656 541.222656 C 419.460938 541.921875 424.136719 540.335938 422.402344 544.519531 C 425.984375 544.597656 427.5625 546.210938 430.601562 546.933594 C 429.398438 548.582031 427.101562 549.050781 425.046875 548.914062 C 427.214844 551.300781 426.914062 552.511719 422.738281 552.222656 C 422.726562 553.65625 423.988281 554.804688 424.339844 556.46875 C 424.671875 558.046875 424.597656 560.152344 424.621094 561.714844 C 424.3125 561.816406 424.035156 561.730469 423.71875 561.824219 C 424.425781 563.257812 428.03125 565.101562 429.347656 566.378906 C 427.945312 568.828125 424.917969 565.535156 423.011719 568.359375 C 421.679688 570.335938 423.402344 573.355469 421.109375 574.625 C 420.894531 574.226562 420.691406 574.003906 420.46875 573.710938 C 419.726562 574.660156 419.5625 575.625 419.042969 576.65625 C 418.933594 576.867188 417.757812 579.171875 417.800781 578.941406 C 417.433594 580.902344 418.558594 582.453125 417.320312 584.585938 C 416.664062 585.71875 414.15625 588.160156 412.75 587.851562 C 412.460938 587.792969 412.171875 585.949219 411.445312 585.507812 C 410.449219 584.902344 409.558594 584.96875 408.527344 585.53125 C 408.394531 584.699219 407.785156 584.230469 407.761719 583.308594 C 406.609375 583.222656 405.375 583.222656 404.222656 583.308594 C 404.265625 583.613281 404.324219 584.007812 404.382812 584.277344 C 403.070312 584.101562 401.765625 584.578125 400.582031 584.867188 C 400.222656 583.777344 400.179688 582.695312 400.488281 581.644531 C 398.773438 581.902344 397.738281 583.332031 395.90625 582.597656 " fill-opacity="1" fill-rule="nonzero"/><path fill="#7cc133" d="M 381.683594 596.492188 C 380.546875 597.175781 376.71875 595.921875 377.101562 598.75 C 379.371094 599.007812 380.429688 601.175781 379.070312 603.050781 C 382.371094 601.832031 384.285156 602.128906 387.636719 602.445312 C 391.820312 602.835938 392.605469 603.28125 395.746094 605.453125 C 398.902344 607.621094 401.144531 606.699219 404.488281 606.410156 C 406.394531 606.25 412.605469 608.03125 410.183594 604.421875 C 409.253906 603.035156 404.554688 602.417969 402.832031 601.550781 C 399.769531 600.015625 398.328125 599.03125 395.292969 599.570312 C 392.625 600.039062 391.242188 600.636719 388.539062 599.222656 C 387.472656 598.667969 386.796875 597.582031 385.722656 597.082031 C 384.589844 596.570312 382.421875 596.84375 382.65625 596.5 " fill-opacity="1" fill-rule="nonzero"/><path fill="#7cc133" d="M 449.148438 539.609375 C 447.886719 542.285156 450.375 546.910156 454.699219 544.28125 C 454.929688 544.65625 455.253906 544.949219 455.441406 545.210938 C 456.015625 543.820312 454.894531 536.410156 458.019531 539.25 C 458.109375 537.078125 456.882812 533.726562 455.722656 532.003906 C 457.769531 531.070312 457.148438 528.582031 455.03125 527.804688 C 453.949219 528.820312 453.753906 530.144531 454.65625 531.277344 C 453.039062 531.839844 450.75 531.15625 450.75 533.589844 C 449.8125 534.65625 448.550781 535.804688 446.855469 535.25 C 447.296875 534.613281 447.171875 533.589844 447.441406 533.035156 C 445.746094 532.691406 444.097656 533.546875 443.800781 535.261719 C 440.066406 534.664062 440.542969 538.96875 440.527344 541.316406 C 442.445312 539.710938 441.660156 537.332031 444.191406 536.367188 C 446.242188 535.589844 447.75 536.964844 449.097656 538.003906 C 449.234375 538.636719 449.21875 540.113281 449.132812 540.523438 C 448.816406 540.640625 448.492188 540.660156 448.152344 540.597656 " fill-opacity="1" fill-rule="nonzero"/><path fill="#7cc133" d="M 393.585938 489.011719 C 393.144531 488.550781 385.894531 490.109375 388.539062 485.359375 C 389.808594 483.074219 394.671875 483.355469 396.871094 482.511719 C 395.625 484.667969 393.441406 487 393.996094 489.695312 C 394.304688 489.464844 394.390625 489.128906 394.246094 488.679688 " fill-opacity="1" fill-rule="nonzero"/><path fill="#7cc133" d="M 436.246094 472.148438 C 436.355469 471.554688 442.140625 458.652344 437.574219 460.550781 C 433.882812 462.078125 432.996094 472.789062 436.910156 472.476562 " fill-opacity="1" fill-rule="nonzero"/><path fill="#7cc133" d="M 438.898438 503.234375 C 438.820312 503.277344 439.410156 503.78125 438.632812 503.527344 C 437.898438 501.078125 441.175781 499.210938 441.949219 497.359375 C 443 494.859375 440.867188 492.855469 441.90625 491 C 434.042969 482.964844 436.195312 498.886719 433.925781 500.960938 C 433.609375 500.449219 432.84375 499.988281 432.511719 499.371094 C 429.6875 503.609375 438.394531 505.84375 434.871094 508.53125 C 436.117188 509.179688 437.859375 509.523438 439.171875 510.144531 C 439.289062 507.976562 438.972656 505.640625 439.554688 503.570312 " fill-opacity="1" fill-rule="nonzero"/><path fill="#7cc133" d="M 515.625 582.273438 C 512.941406 582.121094 510.882812 579.195312 508.359375 577.628906 C 506.664062 576.578125 498.929688 576.492188 501.296875 579.625 C 497.109375 581.046875 494.152344 586.648438 490.253906 581.609375 C 488.667969 579.570312 491.191406 569.304688 484.542969 572.707031 C 482.007812 570.3125 478.410156 573.429688 476.457031 575 C 477.511719 575.769531 478.894531 575.828125 480.191406 575.707031 C 480.746094 576.910156 480.675781 578.472656 480.285156 579.648438 C 482.757812 580.816406 485.351562 578.558594 488.132812 579.015625 C 488.328125 580.023438 488.4375 581.242188 488.457031 582.222656 C 485.9375 582.25 482.960938 582.796875 480.632812 582.320312 C 480.839844 584.5625 486.410156 583.050781 483.253906 586.921875 C 485.214844 588.015625 486.390625 586.078125 486.921875 584.28125 C 488.003906 586.292969 490.222656 585.695312 491.753906 586.949219 C 492.789062 587.800781 492.335938 588.800781 493.476562 589.542969 C 494.117188 589.953125 495.710938 590.097656 496.445312 590.222656 C 499.507812 590.710938 499.882812 590.691406 502.339844 592.851562 C 503.867188 594.199219 504.726562 595.734375 506.980469 595.554688 C 507.429688 596.714844 507.8125 597.898438 508.085938 599.078125 C 509.382812 599.324219 510.191406 601.34375 508.957031 602.46875 C 508.019531 603.316406 506.542969 601.695312 504.964844 602.683594 C 500.460938 605.507812 506.160156 610.207031 507.753906 604.464844 C 509.265625 605.675781 516.308594 607.929688 515.96875 609.394531 Z M 515.625 582.273438 " fill-opacity="1" fill-rule="nonzero"/><path fill="#7cc133" d="M 472.300781 421.550781 C 478.160156 421.367188 470.394531 430.472656 475.886719 429.765625 C 475.996094 429.457031 475.886719 429.183594 475.980469 428.863281 C 476.34375 429.09375 477.589844 429.21875 477.941406 429.441406 C 478.296875 427.046875 479.59375 424.324219 479.507812 422.285156 C 479.371094 418.882812 476.394531 420.007812 475.550781 417.929688 C 474.347656 419.105469 471.390625 420.726562 471.925781 422.441406 C 472.300781 422.3125 472.644531 422.125 472.960938 421.878906 " fill-opacity="1" fill-rule="nonzero"/><path fill="#7cc133" d="M 476.925781 415.59375 C 476.898438 415.804688 476.492188 416.351562 476.90625 416.035156 C 478.460938 415.78125 478.828125 414.867188 479.902344 413.996094 C 480.738281 413.3125 480.824219 412.605469 481.90625 411.957031 C 482.144531 411.8125 483.824219 411.601562 484.140625 411.542969 C 486.390625 411.140625 491.046875 411.464844 491.550781 408.351562 C 493.511719 409.945312 495.566406 410.882812 497.195312 408.75 C 497.902344 407.832031 497.964844 405.511719 498.5 404.332031 C 499.097656 402.996094 500.761719 403.636719 500.136719 401.085938 C 501.785156 401.09375 501.9375 402.59375 501.460938 403.96875 C 502.484375 403.96875 506.003906 401.5625 506.960938 400.71875 C 507.949219 399.855469 508.46875 398.746094 509.347656 397.996094 C 510.457031 397.050781 511.667969 396.726562 512.566406 395.421875 C 514.195312 393.042969 514.183594 390.21875 513.953125 388.148438 C 513.722656 386.085938 512.1875 382.3125 516.230469 383.566406 C 516.71875 386.042969 518.472656 384.132812 519.53125 385.503906 C 520.386719 386.605469 519.753906 388.273438 519.582031 389.46875 C 519.269531 391.609375 517.988281 394.332031 517.554688 396.695312 C 514.007812 396.480469 516.453125 401.238281 515.566406 402.976562 C 512.667969 403.457031 514.722656 406.40625 514.566406 407.726562 C 514.335938 409.578125 512.898438 411.234375 511.976562 412.027344 C 512.230469 411.550781 512.285156 410.527344 512.511719 409.960938 C 510.195312 408.828125 509.988281 412.195312 507.738281 412.019531 C 507.695312 412.574219 507.378906 412.992188 507.300781 413.578125 C 505.632812 412.898438 504.597656 414.21875 503.03125 413.964844 C 501.375 413.691406 501.230469 411.8125 499.132812 412.34375 C 498.210938 414.285156 500.539062 415.351562 499.515625 416.949219 C 499.441406 417.066406 496.019531 418.132812 495.765625 418.234375 C 495.011719 418.535156 493.777344 421.507812 493.519531 417.921875 C 493.394531 416.273438 495.976562 415.394531 494.125 413.929688 C 490.644531 411.175781 481.214844 417.195312 477.308594 416.878906 C 477.15625 416.144531 477.605469 415.921875 477.589844 415.933594 " fill-opacity="1" fill-rule="nonzero"/><path fill="#7cc133" d="M 512.972656 379.21875 C 511.992188 379.398438 509.511719 378.222656 510.5625 376.472656 C 511.335938 375.191406 515.550781 376.574219 514.089844 373.238281 C 515.242188 373.285156 516.425781 373.28125 517.554688 373.214844 C 518.109375 369.855469 521.324219 365.15625 518.558594 362.347656 C 520.761719 359.894531 521.691406 364.117188 522.910156 365.257812 C 524.265625 366.539062 526.5 366.8125 528.1875 367.226562 C 530.089844 367.695312 533.78125 367.550781 534.15625 369.625 C 534.773438 373.171875 530.617188 371.636719 528.835938 372.269531 C 526.449219 373.113281 527.273438 375.160156 525.460938 376.488281 C 522.480469 378.679688 522.679688 375.472656 520.929688 374.5625 C 516.289062 372.175781 515.625 377.835938 513.3125 379.867188 " fill-opacity="1" fill-rule="nonzero"/><path fill="#7cc133" d="M 231.542969 227.917969 C 231.097656 229.242188 230.085938 230.121094 228.566406 230.445312 C 222.871094 224.097656 216.5 228.429688 210.511719 232.371094 C 207.75 234.179688 206.574219 236.011719 204.253906 237.328125 C 201.421875 238.9375 197.472656 239.40625 194.828125 241.683594 C 192.96875 243.296875 191.296875 245.699219 189.472656 247.722656 C 186.566406 250.972656 184.714844 250.410156 181.40625 252.351562 C 172.894531 257.339844 172.679688 268.378906 175.480469 277.027344 C 176.980469 281.671875 180.59375 285.910156 181.4375 290.421875 C 182.285156 295.003906 178.972656 297.253906 178.460938 301.324219 C 177.660156 307.683594 180.757812 314.839844 181.4375 320.6875 C 181.847656 324.210938 180.09375 328.714844 179.351562 332.046875 L 179.699219 331.84375 C 178.328125 331.792969 177.074219 330.898438 175.726562 331.769531 C 175.035156 332.21875 175.25 333.15625 174.675781 333.667969 C 174.199219 334.097656 173.738281 333.976562 173.191406 334.378906 C 171.597656 335.554688 170.644531 335.527344 168.835938 335.816406 C 167 336.109375 165.839844 336.542969 164.109375 337.054688 C 160.734375 338.054688 157.371094 338.164062 153.84375 337.566406 C 151.855469 337.226562 149.339844 335.863281 147.921875 338.042969 C 146.574219 340.097656 148.179688 345.351562 148.195312 347.722656 L 147.949219 348.03125 C 149.511719 348.96875 150.117188 352.074219 151.148438 353.429688 C 150.558594 353.582031 149.824219 354.273438 149.226562 354.410156 C 149.347656 354.71875 149.511719 354.988281 149.585938 355.347656 C 154.117188 355.210938 158.796875 348.117188 162.183594 354.050781 C 164.160156 352.355469 166.414062 351.554688 167.386719 354.742188 C 167.804688 356.109375 167.589844 361.199219 166.984375 362.316406 C 164.757812 359.347656 162.285156 361.324219 159.785156 363.007812 C 160.613281 364.046875 161.132812 365.460938 161.054688 366.945312 C 159.929688 366.785156 159.222656 365.929688 159.085938 364.703125 C 157.789062 364.804688 156.46875 365.121094 155.164062 365.394531 C 157.679688 367.417969 159.09375 370.792969 161.425781 372.679688 C 162.644531 373.667969 165.3125 374.085938 165.757812 375.234375 C 166.257812 376.515625 162.960938 377.8125 165.757812 378.84375 C 166.191406 376.257812 168.570312 376.753906 170.308594 377.613281 C 170.582031 379.621094 171.179688 379.984375 172.007812 381.179688 C 172.886719 382.449219 174.785156 381.734375 173.6875 384.175781 C 172.050781 387.796875 167.75 384.191406 165.441406 385.222656 C 165.613281 388.226562 169.003906 388.308594 168.988281 390.738281 C 168.347656 390.5625 167.382812 390.742188 166.753906 390.492188 C 167.625 392.320312 169.523438 393.109375 170.371094 394.75 C 171.101562 396.15625 171.007812 398.699219 171.007812 400.375 C 171.007812 403.6875 171.050781 402.9375 168.347656 403.738281 C 166.695312 404.222656 164.265625 405.765625 162.394531 405.355469 C 161.484375 405.152344 161.089844 404.019531 160.339844 403.769531 C 159.890625 403.617188 158.003906 403.59375 157.707031 403.371094 C 156.257812 402.296875 156.058594 400.597656 154.40625 399.132812 L 154.882812 399.300781 C 153.792969 398.628906 151.617188 398.75 150.71875 398.007812 C 149.960938 397.382812 149.875 394.367188 149.96875 393.390625 C 152.246094 392.515625 150.953125 390.21875 152.09375 388.410156 C 153.101562 386.816406 155.589844 387.816406 154.695312 385.582031 C 154.628906 385.425781 153.382812 385.070312 153.082031 384.71875 C 152.65625 384.226562 152.675781 383.433594 152.347656 382.980469 C 151.222656 381.429688 150.859375 381.292969 148.921875 381.683594 L 148.605469 382.109375 C 144 383.039062 135.683594 377.230469 134.21875 372.839844 C 130.203125 372.59375 128.898438 372.320312 125.640625 370.910156 C 122.695312 369.632812 120.402344 368.167969 117.007812 368.363281 C 116.898438 371.839844 120.566406 371.390625 121.527344 374.109375 C 121.945312 375.269531 120.285156 380.265625 119.816406 382.09375 C 118.167969 383.066406 116.328125 383.832031 114.449219 383.167969 L 114.765625 383.429688 C 107.945312 384.921875 101.121094 381.292969 94.433594 380.539062 C 87 379.695312 79.152344 380.371094 72.152344 383.097656 C 72.515625 382.734375 72.832031 382.324219 73.226562 382 C 72.765625 382.261719 72.492188 382.714844 72.152344 383.097656 C 73.164062 383.578125 74.050781 384.300781 74.757812 385.15625 C 71.3125 386.136719 63.035156 382.367188 61.328125 387.140625 C 60.269531 390.101562 65.191406 393.390625 61.96875 395.992188 C 62.785156 396.386719 63.253906 396.097656 63.324219 395.199219 C 58.878906 401.035156 67.808594 405 71.773438 406.988281 C 72.765625 406.988281 73.753906 406.988281 74.75 406.988281 C 76.730469 406.988281 78.714844 405.007812 80.703125 404.011719 C 87.644531 403.019531 93.605469 406.988281 100.542969 404.011719 C 99.976562 404.660156 99.210938 404.878906 98.398438 404.609375 C 99.066406 404.273438 99.800781 404.070312 100.542969 404.011719 C 100.164062 405.117188 99.824219 406.246094 99.808594 407.421875 L 98.28125 408.359375 C 100.082031 411.34375 97.238281 414.296875 101.820312 415.976562 C 102.757812 419.429688 99.660156 419.464844 98.304688 421.605469 C 96.738281 424.070312 98.074219 427.121094 97.921875 429.800781 C 97.785156 432.222656 96.644531 434.242188 96.90625 436.816406 C 97.179688 439.453125 97.796875 440.671875 97.230469 443.289062 C 96.523438 446.589844 96.34375 446.566406 98.230469 449.644531 C 99.808594 452.21875 101.929688 454.832031 103.59375 457.574219 C 106.273438 461.960938 109.292969 465.679688 113.410156 468.886719 C 111.722656 473.71875 110.832031 474.605469 112.507812 479.359375 C 116.496094 479.996094 118.679688 482.886719 120.316406 486.34375 C 121.714844 489.292969 125.417969 493.777344 125.945312 497.003906 C 126.285156 499.082031 125.863281 500.097656 126.277344 502.195312 C 126.671875 504.261719 127.25 506.171875 127.738281 508.175781 C 128.460938 511.132812 128.386719 513.207031 131.890625 513.101562 C 133.730469 513.042969 138.046875 512.378906 139.898438 511.816406 C 142.25 511.105469 145.023438 509.101562 147.488281 507.839844 C 149.175781 506.972656 150.363281 506.621094 152.121094 506.253906 C 152.808594 506.109375 153.5625 506.433594 154.449219 506.195312 C 154.898438 506.074219 155.523438 505.335938 156.027344 505.128906 C 158.027344 504.277344 160.546875 503.3125 162.667969 502.828125 C 162.609375 502.570312 162.90625 502.152344 163.007812 501.980469 C 162.789062 501.71875 162.558594 501.472656 162.355469 501.230469 C 164.9375 497.921875 171.664062 494.324219 175.902344 494.570312 C 175.90625 493.589844 177.003906 491.039062 177.839844 490.554688 C 178.796875 490 180.074219 491.03125 181.253906 490.253906 C 182.042969 489.734375 181.96875 487.878906 182.972656 487.074219 C 183.628906 486.546875 185.269531 486.878906 186.15625 486.289062 C 186.460938 484.03125 186.285156 481.523438 187.265625 479.425781 C 189.3125 483.65625 193.5 478.25 194.105469 475.765625 C 193.949219 476.433594 193.71875 473.292969 193.726562 473.355469 C 193.695312 472.9375 194.640625 472.152344 194.503906 471.449219 C 194.222656 469.96875 191.800781 469.167969 190.828125 468.382812 C 189.582031 467.382812 188.558594 465.863281 187.210938 464.910156 C 185.625 463.792969 183.503906 464.511719 182.15625 462.933594 C 181.207031 461.824219 181.304688 460.332031 180.9375 458.957031 C 180.535156 457.457031 179.714844 455.921875 179.539062 453.710938 C 179.09375 453.96875 178.035156 454.675781 177.667969 454.984375 C 177.667969 455.957031 177.132812 456.832031 177.242188 457.847656 C 176.425781 457.910156 175.835938 458.558594 175.019531 458.625 C 175.417969 466.933594 166.601562 462.648438 161.796875 464.152344 C 161.738281 462.136719 161.75 456.554688 160.777344 454.921875 C 157.707031 449.796875 158.773438 459.808594 158.515625 460.46875 C 158.488281 458.660156 155.890625 456.253906 154.863281 455.203125 C 155.273438 452.851562 155.574219 452.722656 154.148438 450.871094 C 153.558594 450.105469 152.253906 450.667969 151.734375 450.078125 C 151.191406 449.464844 151.445312 448.125 151.085938 447.316406 C 149.390625 443.566406 149.332031 441.003906 145.246094 439.640625 C 145.550781 439.402344 145.738281 439.222656 146.148438 439.007812 C 145.851562 437.960938 146.21875 437.152344 146.515625 436.128906 C 147.113281 436.46875 148.503906 436.433594 149.125 436.722656 C 149.183594 436.179688 149.550781 435.597656 149.585938 435.136719 C 150.765625 436.035156 151.882812 435.574219 153.21875 436.09375 C 155.324219 436.914062 154.882812 436.453125 156.367188 438.429688 C 158.234375 440.914062 158.414062 442.984375 157.492188 445.96875 C 160.417969 446.386719 162.300781 445.851562 165.054688 446.695312 C 167.53125 447.453125 167.742188 447.613281 169.824219 449.335938 C 171.386719 450.632812 173.304688 452.039062 175.109375 451.597656 C 177.261719 451.070312 178.460938 448.347656 180.929688 448.074219 C 187.433594 447.351562 182.703125 454.097656 185.472656 456.699219 C 187.445312 458.554688 191.835938 457.15625 194.191406 457.363281 C 197.746094 457.679688 201.027344 460.613281 204.746094 459.828125 C 206.570312 459.445312 207.363281 458.582031 209.0625 458.335938 C 210.351562 458.15625 212.242188 458.660156 213.683594 458.574219 C 217.15625 458.367188 220.414062 456.324219 222.621094 458.898438 C 225.042969 461.730469 224.457031 463.589844 228.515625 465.25 C 224.558594 470.359375 234.28125 467.945312 235.78125 467.878906 C 236.257812 471.820312 232.191406 470.640625 230.238281 472.046875 C 231.578125 474.027344 232.582031 477.667969 235.191406 478.574219 C 237.25 479.296875 238.152344 476.515625 240.386719 477.695312 C 241.257812 476.753906 242.46875 476.347656 243.746094 476.355469 C 243.355469 475.230469 243.414062 473.914062 243.4375 472.621094 C 243.601562 474.011719 244.976562 474.777344 246.382812 474.828125 C 246.089844 475.03125 245.9375 475.289062 245.484375 475.484375 C 245.394531 476.789062 245.621094 478.324219 245.1875 479.484375 C 244.847656 480.390625 243.191406 480.441406 243.074219 481.710938 C 242.9375 483.1875 245.171875 484.261719 245.675781 485.421875 C 246.152344 486.519531 246.03125 487.46875 246.167969 488.660156 C 246.484375 491.433594 246.183594 494.367188 246.425781 497.207031 C 246.75 501.003906 248.410156 502.527344 250.390625 505.4375 C 252.136719 507.996094 252.003906 510.375 253.042969 513.128906 C 254.089844 515.898438 256.285156 517.835938 257.265625 520.667969 C 258.636719 524.609375 259.234375 529.816406 261.777344 533.214844 C 265.390625 538.03125 267.328125 530.246094 269.902344 527.675781 C 271.804688 525.785156 273.203125 525.714844 272.929688 522.441406 C 275.464844 521.605469 275.179688 509.929688 275.191406 507.484375 C 275.207031 505.273438 276.332031 502.203125 277.929688 500.632812 C 279.273438 499.328125 283.515625 498.921875 282.394531 496.59375 C 285.285156 494.195312 288.066406 491.457031 290.992188 488.984375 C 293.296875 487.039062 294.378906 484.585938 296.359375 482.324219 C 299.195312 486.734375 300.742188 479.324219 301.0625 478.332031 C 301.847656 475.910156 302.15625 477.15625 303.65625 475.339844 C 304.355469 474.488281 304.554688 473.351562 305.03125 472.144531 C 305.414062 472.894531 306.429688 473.761719 306.933594 474.480469 C 307.09375 474.0625 307.988281 473.371094 308.175781 472.910156 C 310.070312 474.351562 312.09375 473.992188 312.21875 471.238281 C 313.378906 472.007812 314.929688 472.132812 316.234375 472.328125 C 315.828125 471.007812 313.335938 464.160156 316.714844 465.90625 C 316.355469 466.898438 316.332031 468.101562 316.234375 469.125 C 316.664062 468.917969 317.710938 469.027344 318.144531 468.859375 C 318.417969 470.898438 320.464844 473.054688 321.140625 475.449219 C 322.1875 479.125 322.726562 478.75 325.445312 480.804688 C 330.820312 484.855469 331.542969 491.925781 332.386719 498.058594 C 334.546875 498.589844 335.707031 499.671875 337.097656 496.976562 C 337.984375 497.777344 339.175781 498.074219 340.285156 497.199219 C 340.285156 495.664062 340.363281 493.855469 341.003906 492.558594 C 341.515625 494.433594 342.085938 495.464844 343 497.257812 C 343.628906 498.476562 344.226562 499.5625 344.558594 500.875 C 345.285156 503.746094 345.375 505.992188 346.382812 508.832031 C 347.234375 511.210938 348.4375 514.238281 348.703125 516.761719 C 348.890625 518.605469 347.542969 522.808594 349.554688 523.765625 C 349.609375 527.335938 345.046875 530.125 346.621094 534.378906 C 348.78125 532.914062 350.058594 535.53125 351.007812 537.265625 C 351.609375 538.347656 351.925781 540.007812 352.582031 540.9375 C 352.992188 541.511719 353.964844 541.40625 354.222656 541.886719 C 354.988281 543.320312 354.972656 545.730469 355.890625 547.523438 C 356.855469 549.414062 358.316406 550.839844 359.277344 552.792969 C 360.984375 556.273438 363.464844 562.875 367.804688 564.007812 C 372.367188 565.203125 371.484375 558.90625 367.847656 558.378906 C 367.003906 553.449219 368.984375 548.121094 365.144531 544.425781 C 362.050781 541.449219 357.617188 540.238281 354.527344 537.261719 C 355.414062 536.4375 355.296875 535.730469 355.5 534.671875 C 352.925781 534.167969 354.179688 530.652344 351.296875 530.925781 C 350.921875 527.917969 352.191406 524.410156 352.574219 521.390625 C 353.027344 517.777344 353.265625 514.117188 354.289062 510.527344 C 357.691406 509.425781 356.089844 512.617188 357.273438 514.074219 C 358.195312 515.210938 360.140625 515.304688 361.511719 516.359375 C 363.484375 517.871094 365.4375 524.054688 368.378906 521.75 C 369.28125 524.609375 371.199219 523.660156 372.328125 525.367188 C 373.246094 526.746094 372.933594 529.308594 373.496094 530.945312 C 375.96875 530.621094 376.734375 529.769531 378.65625 528.402344 C 378.558594 528.300781 378.117188 528.121094 377.996094 528.027344 C 378.144531 527.574219 378.671875 525.808594 378.9375 525.597656 C 380.28125 524.523438 380.46875 525.894531 382.007812 525.683594 C 383.976562 525.417969 386.296875 524.539062 387.71875 523.03125 C 389.960938 520.652344 389.878906 516.914062 390.261719 513.359375 C 390.609375 510.136719 391.457031 505.128906 389.296875 502.511719 C 388.488281 501.53125 386.945312 501.375 385.902344 499.910156 C 384.90625 498.527344 384.121094 497.199219 383.140625 495.933594 C 381.316406 493.574219 378.808594 491.535156 377.390625 488.984375 C 376.019531 486.527344 377.222656 483.050781 378.433594 480.386719 C 380.324219 476.210938 386.859375 471.980469 390.535156 475.390625 C 390.535156 474.992188 390.664062 474.523438 390.664062 474.136719 C 390.824219 474.15625 391.320312 474.726562 391.34375 474.71875 C 395.226562 473.753906 392.105469 477.414062 392.964844 478.667969 C 393.066406 478.8125 394.03125 479.824219 394.234375 479.96875 C 395.25 478.886719 395.4375 477.265625 395.269531 475.808594 C 399.429688 475.636719 402.867188 474.289062 406.4375 472.117188 C 405.789062 470.472656 406.90625 468.464844 408.390625 467.519531 C 408.878906 472.476562 413.457031 469.445312 416.058594 468.476562 C 418.855469 467.445312 421.378906 466.921875 422.429688 463.570312 C 422.496094 463.554688 423.171875 463.777344 423.273438 463.800781 C 424.390625 462.191406 427.015625 462.949219 426.363281 459.929688 C 428.671875 459.503906 426.644531 457.0625 427.964844 455.53125 C 428.570312 456.296875 429.578125 456.460938 430.234375 456.859375 C 430.148438 456.296875 430.414062 455.53125 430.34375 454.964844 C 432.519531 454.8125 432.972656 452.449219 432.988281 450.667969 C 436.507812 451.417969 434.558594 448.125 436.789062 447.664062 C 436.816406 446.429688 436.953125 446.738281 437.449219 445.671875 C 436.835938 443.855469 437.832031 442.207031 438.222656 440.453125 C 438.335938 440.851562 438.539062 441.195312 438.625 441.601562 C 440.101562 439.890625 439.214844 438.371094 439.511719 436.441406 C 438.242188 436.785156 436.730469 437.277344 435.308594 437.003906 C 435.390625 434.804688 439.675781 433.226562 441.515625 432.441406 C 440.1875 428.296875 433.839844 430.679688 431.980469 427.183594 C 434.71875 426.949219 437.335938 428.484375 440.183594 428.394531 C 439.714844 426.660156 437.765625 427.4375 436.648438 426.15625 C 436.042969 425.460938 435.75 422.226562 435.339844 421.175781 C 434.746094 419.675781 434.277344 418.5 433.53125 417.136719 C 432.953125 416.113281 433.386719 415.777344 432.621094 414.976562 C 431.964844 414.292969 430.839844 414.851562 430.285156 413.972656 C 429.003906 411.941406 433.839844 408.84375 435.605469 407.363281 C 437.320312 405.945312 442.308594 405.101562 442.148438 402.28125 C 441.363281 402.375 439.433594 403.054688 438.554688 402.664062 C 437.132812 402.03125 438.230469 401.28125 437.25 400.328125 C 435.878906 399.011719 434.695312 398.09375 432.65625 398.746094 C 432.273438 400.796875 430.882812 403.601562 428.355469 402.9375 C 428.246094 401.128906 428.785156 399.089844 427.386719 397.8125 C 427.179688 397.980469 427.273438 398.21875 427.015625 398.40625 C 426.105469 397.894531 422.8125 395.089844 422.753906 394.050781 C 422.617188 392.097656 424.730469 391.234375 426.234375 392.359375 C 428.691406 390.261719 432.269531 388.703125 435.332031 386.808594 C 436.917969 385.828125 438.394531 382.46875 440.792969 384.550781 C 443.445312 386.859375 438.972656 388.574219 439.273438 390.707031 C 439.46875 390.707031 439.953125 390.679688 440.117188 390.730469 C 436.757812 393.53125 442.785156 391.464844 444.023438 390.75 C 446.417969 389.375 447.765625 388.90625 450.472656 389.027344 C 452.535156 389.121094 453.804688 388.710938 454.699219 390.75 C 454.847656 391.089844 454.011719 395.347656 453.71875 396.003906 C 452.390625 395.628906 452.003906 395.882812 451.496094 397.324219 C 453.394531 397.121094 455.3125 397.628906 456.160156 399.292969 C 458.019531 399.464844 458.757812 400.964844 460.695312 400.742188 C 460.167969 401.257812 459.917969 402.371094 459.417969 402.917969 C 459.84375 402.996094 460.277344 403.261719 460.703125 403.355469 C 460.652344 404.128906 460.667969 404.566406 460.125 405.222656 C 459.664062 403.710938 459.28125 404.328125 458.460938 403.6875 C 458.394531 405.074219 458.386719 406.507812 458.460938 407.890625 C 462.800781 407.761719 454.511719 415.359375 460.339844 414.832031 C 460.484375 412.699219 464.390625 412.667969 466.035156 412.238281 C 469.300781 411.378906 469.640625 411.890625 469.640625 408.941406 C 469.648438 406.578125 469.277344 404.660156 468.730469 402.570312 C 468.039062 399.960938 467.042969 399.507812 465.429688 397.339844 C 464.609375 396.234375 462.757812 393.308594 462.699219 391.996094 C 462.574219 389.195312 466 388.035156 468.011719 386.535156 C 471.433594 383.984375 470.84375 379.484375 474.800781 377.777344 C 472.269531 373.675781 476.910156 373.886719 477.566406 370.894531 C 477.589844 370.816406 477.597656 370.734375 477.609375 370.65625 L 481.8125 371.382812 C 482.546875 372.21875 484.53125 375.195312 485.523438 374.210938 C 494.457031 370.238281 499.414062 362.300781 506.363281 354.367188 C 511.320312 348.414062 515.292969 341.464844 514.304688 333.53125 C 514.304688 331.546875 516.289062 329.566406 517.066406 327.640625 C 518.800781 324.3125 517.851562 322.941406 515.371094 320.367188 C 518.730469 322.214844 514.246094 315.582031 513.546875 314.863281 C 511.644531 312.914062 509.246094 311.539062 507.082031 313.832031 C 505.570312 315.453125 505.390625 317.746094 502.679688 317.867188 C 502.953125 317.101562 502.953125 316.28125 502.664062 315.519531 C 501.800781 315.921875 500.957031 316.390625 500.148438 316.886719 C 500.417969 314.683594 500.417969 313.695312 500.417969 311.703125 C 499.421875 309.722656 495.457031 310.710938 496.445312 309.722656 C 502.398438 299.804688 512.324219 291.863281 522.242188 286.902344 C 529.1875 282.9375 538.113281 285.910156 546.046875 284.921875 C 547.042969 284.921875 548.03125 282.9375 549.023438 281.945312 C 552.007812 280.949219 552.007812 282.9375 552.246094 283.589844 C 553.0625 282.621094 552.808594 282.660156 552.246094 283.589844 C 555.265625 282.988281 557.882812 285.859375 560.929688 284.921875 C 560.007812 285.910156 558.890625 286.875 557.472656 286.859375 C 557.6875 286.78125 558.085938 286.757812 558.328125 286.6875 C 558.027344 286.707031 557.824219 286.765625 557.472656 286.859375 C 561.925781 289.886719 565.890625 284.921875 570.847656 285.917969 C 570.847656 283.933594 569.855469 282.9375 568.867188 281.953125 C 575.289062 276.417969 583.828125 263.109375 593.359375 271.023438 C 593.546875 270.5625 593.871094 270.125 593.933594 269.621094 C 593.582031 271.335938 593.003906 273 592.199219 274.550781 C 593.15625 274.5625 593.835938 275.210938 593.90625 276.171875 C 595.648438 272.035156 601.605469 273.023438 602.597656 270.046875 C 604.582031 266.082031 605.574219 265.085938 607.558594 264.089844 C 609.539062 263.097656 612.515625 264.089844 612.515625 266.074219 C 612.515625 267.066406 608.550781 267.066406 608.550781 269.050781 C 608.550781 273.023438 605.574219 277.980469 600.601562 277.75 C 600.449219 278.226562 600.3125 278.5625 600.394531 279.027344 C 600.863281 278.425781 600.738281 278.464844 600.601562 277.75 C 594.664062 282.945312 589.695312 291.871094 581.761719 292.863281 C 570.847656 302.78125 574.8125 318.660156 578.785156 330.558594 C 583.742188 329.566406 585.726562 325.601562 586.71875 320.640625 C 586.71875 319.648438 590.683594 319.648438 590.683594 318.660156 C 591.679688 312.707031 594.65625 311.71875 599.613281 310.726562 C 600.609375 307.746094 599.613281 302.789062 602.835938 300.769531 C 603.195312 301.636719 603.269531 302.582031 603.3125 303.511719 C 606.945312 303.359375 603.140625 298.96875 603.097656 297.519531 C 603.058594 296.488281 607.867188 291.667969 604.140625 291.675781 C 602.808594 291.675781 600.421875 296.324219 599.953125 292.15625 C 599.601562 289.058594 603.050781 285.035156 604.789062 282.925781 C 601.792969 281.398438 608.328125 280.8125 609.214844 280.820312 C 612.644531 280.847656 613.230469 277.734375 616.6875 277.265625 C 616.617188 278.238281 616.445312 279.214844 616.269531 280.171875 C 619.148438 279.257812 621.488281 276.667969 624.667969 276.734375 C 624.367188 276.921875 624.0625 277.117188 623.761719 277.316406 C 625.546875 277.535156 627.660156 276.042969 629.324219 276.972656 C 630.65625 277.714844 630.636719 279.550781 631.632812 280.597656 C 632.285156 276.984375 636.53125 275.625 639.464844 274.382812 C 644.195312 272.386719 648.640625 269.808594 653.28125 267.609375 C 655.632812 266.492188 658.242188 265.050781 660.820312 264.554688 C 663.378906 264.054688 664.640625 266.136719 666.796875 266.074219 C 670.941406 265.957031 668.324219 259.339844 664.800781 259.738281 C 668.316406 256.363281 660.613281 256.539062 661.082031 253.5625 C 658.6875 253.480469 656.496094 252.6875 654.644531 251.277344 C 657.699219 250.589844 660.253906 250.75 663.375 251.007812 C 664.808594 251.132812 672.722656 251.015625 670.4375 248.269531 C 671.503906 248.746094 672.722656 248.53125 673.414062 247.550781 C 672.585938 246.964844 671.75 246.402344 670.832031 245.964844 C 672.03125 245.566406 672.167969 244.378906 671.75 243.304688 C 672.484375 243.210938 673.210938 243.058594 673.925781 242.859375 C 673.609375 242.398438 673.664062 241.792969 673.363281 241.328125 C 674.925781 241.085938 677.925781 241.097656 678.316406 243.140625 C 678.683594 245.09375 675.921875 245.539062 676.410156 247.507812 C 679.179688 246.066406 683.195312 245.949219 686.097656 247.089844 C 688.738281 248.125 688.671875 250.511719 690.648438 252.183594 C 693.847656 254.902344 700.472656 254.585938 702.121094 250.246094 C 701.105469 250.460938 700.125 250.117188 699.539062 249.265625 C 701.824219 249.871094 700.332031 247.832031 699.539062 247.152344 C 698.761719 246.492188 696.328125 245.5625 698.796875 244.96875 C 701.667969 244.292969 705.285156 250.265625 706.121094 244.609375 C 706.113281 245.078125 706.15625 245.332031 706.019531 245.792969 C 705.644531 243.664062 707.65625 245.035156 708.765625 245.238281 C 709.8125 237.597656 700.433594 239.082031 695.707031 237.589844 C 696.074219 238.222656 696.679688 238.675781 697.335938 238.757812 C 696.882812 238.289062 696.304688 237.878906 695.707031 237.589844 C 697.804688 239.238281 698.078125 243.449219 694.753906 243.007812 C 691.222656 242.546875 690.4375 237.640625 689.046875 235.09375 C 685.515625 228.636719 677.246094 228.660156 670.957031 226.683594 C 667.273438 225.523438 664.296875 223.195312 660.722656 221.855469 C 657.160156 220.523438 653.382812 220.023438 649.636719 219.628906 C 645.9375 219.246094 642.203125 219.007812 638.585938 218.105469 C 636.90625 217.6875 636.394531 217.285156 635.003906 218.257812 C 634.203125 218.820312 634.167969 219.648438 633.351562 220.433594 C 638.542969 223.851562 632.5625 230.070312 628.394531 226.386719 C 627.507812 225.609375 626.953125 224.234375 626 223.367188 C 625.539062 222.941406 624.804688 222.710938 624.421875 222.316406 C 624.164062 222.050781 624.507812 221.054688 624.042969 220.816406 C 621.664062 219.628906 622.925781 223.253906 624.042969 220.816406 C 621.648438 222.214844 622.925781 223.253906 624.042969 220.816406 C 621.445312 222.425781 618.46875 221.429688 615.492188 222.425781 C 607.550781 223.417969 599.613281 221.429688 591.679688 221.429688 C 590.683594 221.429688 589.695312 220.433594 589.695312 219.449219 C 588.703125 214.488281 584.738281 210.515625 579.777344 210.515625 C 572.839844 210.515625 565.890625 213.492188 558.984375 212.773438 C 559.964844 212.320312 561.191406 212.277344 562.199219 212.613281 C 561.21875 212.910156 560.03125 212.808594 558.984375 212.773438 C 560.132812 211.726562 559.792969 209.941406 558.085938 209.558594 C 556.765625 209.261719 556.511719 210.589844 555.460938 210.742188 C 553.636719 211 554.070312 209.628906 552.816406 208.5625 C 551.445312 207.402344 549.378906 207.65625 547.71875 207.820312 C 548.230469 206.941406 549.023438 206.234375 549.988281 205.890625 C 547.972656 203.359375 543.300781 202.371094 540.273438 203.207031 C 537.109375 204.089844 535.113281 207.535156 531.488281 206.820312 C 532.539062 206.042969 533.59375 205.25 534.472656 204.269531 C 532.265625 204.125 530.082031 204.65625 527.871094 204.492188 C 530.304688 200.851562 536 203.230469 538.429688 199.589844 C 531.421875 197.089844 524.09375 201.011719 516.992188 199.308594 C 517.972656 202.335938 511.234375 201.089844 509.699219 201.550781 C 509.828125 201.855469 509.953125 202.148438 510.058594 202.453125 C 511.550781 201.484375 514.429688 200.535156 515.234375 202.835938 C 513.828125 203.417969 512.539062 204.289062 511.039062 204.601562 C 511.777344 206.09375 513.128906 207.210938 511.523438 208.457031 C 509.980469 209.652344 506.730469 208.195312 505.078125 207.90625 C 505.171875 209.21875 505.09375 210.5625 504.632812 211.800781 C 503.371094 209.515625 501.390625 207.535156 499.40625 207.535156 C 493.453125 207.535156 488.488281 207.535156 482.65625 205.625 C 481.308594 206.113281 481.488281 208.160156 479.910156 208.613281 C 482.65625 213.363281 475.746094 211.65625 473.703125 210.71875 C 471.363281 209.652344 465.8125 206.554688 465.402344 203.613281 C 466.597656 203.914062 469.871094 204.65625 470.210938 202.746094 C 470.546875 200.894531 468.234375 201.804688 467.203125 201.25 C 464.378906 199.707031 467.464844 200.460938 467.808594 199.691406 C 468.277344 198.652344 466.308594 197.132812 468.628906 197.203125 C 465.652344 193.867188 460.949219 195.742188 457.277344 194.15625 C 455.410156 193.347656 454.257812 191.359375 452.054688 191.503906 C 450.105469 191.625 448.800781 193.5 446.847656 193.703125 C 448.847656 197.011719 443.222656 198.359375 441.191406 196.628906 L 442.480469 196.535156 C 442.972656 196.722656 443.453125 196.980469 443.910156 197.25 C 443.355469 197.21875 442.796875 197.234375 442.242188 197.140625 C 442.796875 197.199219 443.355469 197.210938 443.910156 197.25 C 438.136719 195.769531 432.042969 196.578125 426.292969 194.96875 C 426.597656 195.1875 426.898438 195.394531 427.207031 195.597656 C 427.027344 194.078125 427.8125 192.640625 428.953125 191.667969 C 422.003906 190.675781 416.050781 193.652344 408.621094 194.828125 C 407.703125 194.402344 406.132812 192.101562 406.710938 191.300781 C 403.554688 194.222656 400.714844 189.515625 397.484375 190.097656 C 394.585938 190.625 397.039062 192.273438 398.839844 192.316406 C 394.414062 193.371094 389.828125 194.234375 385.640625 196.066406 C 382.542969 197.421875 378.851562 200.554688 375.304688 198.847656 C 380.019531 192.988281 388.152344 192.980469 393.84375 188.589844 C 393.347656 188.136719 392.804688 187.726562 392.238281 187.375 C 396.632812 185.441406 401.332031 184.289062 405.601562 182.054688 C 406.695312 181.484375 408.75 180.75 408.800781 179.273438 C 408.863281 177.363281 405.816406 176.519531 404.46875 176.09375 C 406.335938 176.425781 408.160156 177.101562 410.070312 176.988281 C 402.207031 170.875 391.191406 167.890625 381.664062 171.695312 C 382.089844 171.695312 382.515625 171.695312 382.945312 171.695312 C 381.167969 170.722656 384.238281 167.890625 381.453125 167.25 C 379.320312 166.761719 377.953125 170.285156 375.660156 170.054688 C 376.25 169.320312 376.792969 168.554688 377.296875 167.753906 C 375.773438 167.683594 372.234375 168.058594 371.492188 166.277344 C 370.304688 163.4375 375.011719 163.234375 376.640625 163.402344 C 374.621094 158.703125 362.851562 162.535156 360.78125 165.875 C 358.960938 168.820312 363.140625 168.445312 363.015625 170.722656 C 362.851562 173.996094 354.648438 172.050781 352.949219 172.078125 C 356.222656 170.960938 352.636719 174.585938 351.476562 175.085938 C 347.519531 176.777344 342.453125 175.574219 338.332031 175.328125 C 338.859375 174.011719 340.132812 173.226562 341.503906 173.046875 C 337.949219 173.089844 334.375 173.289062 330.898438 174.089844 C 331.972656 173.433594 333.335938 173.644531 334.042969 174.722656 C 327.742188 179.769531 320.800781 177.78125 314.84375 178.773438 C 306.90625 179.769531 304.925781 187.707031 299.964844 191.675781 C 295.992188 196.636719 289.046875 191.675781 283.097656 192.671875 C 279.136719 193.660156 277.144531 198.625 278.816406 201.40625 C 278.558594 200.023438 278.011719 198.703125 277.304688 197.484375 C 277.738281 198.828125 278.261719 200.125 278.816406 201.40625 C 278.957031 200.808594 279.121094 200.226562 279.136719 199.613281 C 278.507812 202.683594 283.84375 201.890625 285.492188 202.257812 C 286.890625 202.566406 288.535156 203.417969 286.925781 204.125 C 286.488281 204.320312 285.875 202.695312 286.96875 202.785156 C 287.800781 202.855469 288.136719 203.289062 287.9375 204.160156 C 287.402344 206.488281 281.789062 205.679688 280.195312 205.40625 C 276.070312 204.714844 271.878906 201.25 267.609375 203.203125 C 268.109375 203.878906 268.683594 203.929688 269.261719 203.324219 C 268.203125 203.042969 267.523438 203.597656 268.207031 204.5625 C 267.820312 204.558594 267.445312 204.5 267.0625 204.40625 C 267.453125 204.417969 267.832031 204.476562 268.207031 204.5625 C 266.074219 204.5625 258.101562 204.066406 261.269531 207.546875 C 263.898438 210.4375 270.3125 208.78125 271.183594 213.5 C 267.429688 213.097656 270.644531 211.570312 271.183594 213.5 C 266.226562 211.519531 259.277344 212.507812 255.3125 207.546875 C 255.3125 206.554688 258.285156 203.578125 257.289062 201.59375 L 255.3125 200.601562 C 247.371094 205.558594 250.355469 216.472656 252.332031 223.417969 C 257.289062 223.417969 264.238281 221.4375 267.214844 227.382812 C 267.214844 228.378906 267.214844 229.367188 267.394531 229.878906 C 267.871094 233.515625 269.699219 233.972656 273.160156 233.335938 C 269.375 237.265625 265.101562 233.640625 263.003906 230.085938 C 260.71875 226.230469 258.320312 224.765625 253.972656 227.03125 C 255.839844 231.125 256.523438 227.042969 253.972656 227.03125 C 255.308594 229.371094 256.300781 230.359375 255.308594 232.347656 C 251.335938 239.296875 242.40625 248.21875 233.480469 242.265625 C 233.480469 241.273438 232.488281 241.273438 232.488281 240.285156 C 232.488281 239.296875 233.480469 238.300781 233.480469 238.300781 C 241.417969 239.296875 249.351562 235.324219 251.335938 227.390625 C 251.335938 226.394531 250.347656 225.410156 250.347656 225.410156 C 248.367188 225.410156 247.371094 225.410156 244.976562 224.671875 C 245.253906 224.804688 245.527344 224.917969 245.816406 224.996094 C 247.371094 219.449219 246.375 213.5 243.398438 208.535156 C 242.414062 206.554688 244.394531 204.5625 244.394531 202.582031 C 244.394531 200.601562 242.414062 199.605469 241.417969 198.609375 C 232.488281 195.632812 229.511719 206.554688 222.734375 210.820312 C 222.664062 211.886719 223.824219 211.945312 224.542969 211.503906 C 224.386719 214.617188 223.585938 217.746094 225.660156 220.421875 C 227.132812 222.300781 229.734375 223.296875 228.847656 226.171875 C 229.988281 225.386719 231.363281 224.945312 232.753906 225.019531 C 232.472656 226.375 232.472656 227.367188 232.472656 228.363281 L 230.492188 229.351562 " fill-opacity="1" fill-rule="nonzero"/></svg>