<svg xmlns="http://www.w3.org/2000/svg" xmlns:xlink="http://www.w3.org/1999/xlink" width="1024" zoomAndPan="magnify" viewBox="0 0 768 767.999994" height="1024" preserveAspectRatio="xMidYMid meet" version="1.0"><defs><clipPath id="0a2337142e"><path d="M 253 167.441406 L 350 167.441406 L 350 287 L 253 287 Z M 253 167.441406 " clip-rule="nonzero"/></clipPath></defs><path fill="#7cc133" d="M 294.984375 453.273438 C 286.707031 449.777344 271.808594 437.445312 263.804688 433.65625 C 257.46875 430.65625 236.785156 427.214844 230.507812 423.953125 C 224.777344 420.972656 233.199219 419.449219 227.628906 416.1875 C 221.261719 412.457031 216.742188 426.324219 209.316406 426.601562 C 200.835938 426.914062 193.050781 419.089844 192.832031 409.945312 C 197.851562 410.097656 201.496094 405.734375 200.546875 400.566406 C 192.207031 399.546875 187.367188 406.46875 179.570312 405.355469 C 169.9375 403.96875 175.273438 395.644531 178.058594 390.132812 C 179.949219 386.378906 179.292969 381.902344 182.75 378.976562 C 186.796875 375.550781 189.394531 376.925781 192.042969 380.433594 C 194.183594 383.273438 197.292969 389.199219 200.746094 384.015625 C 202.71875 381.054688 201.527344 375.226562 202.878906 371.699219 C 212.472656 371.328125 214.542969 368.5625 220.160156 361.742188 C 225.40625 355.386719 232.960938 355.179688 240.613281 355.339844 C 248.179688 355.492188 255.882812 355.363281 263.40625 354.46875 C 275.726562 353.003906 266.871094 348.109375 260.835938 343.84375 C 250.617188 336.617188 260.550781 336.882812 267.832031 334.949219 C 277.515625 332.367188 276.636719 326.570312 273.199219 318.640625 C 269.101562 309.207031 262.410156 284.625 249.058594 295.933594 C 245.171875 299.222656 245.761719 290.949219 239.628906 286.996094 C 235.542969 284.367188 233.496094 281.179688 233.136719 277.054688 C 232.5625 270.527344 224.539062 273.402344 231 268.984375 C 237.15625 264.769531 246.027344 268.582031 251.914062 271.378906 C 257.648438 274.105469 266.222656 280.527344 273.003906 278.472656 C 281.253906 275.972656 275.097656 266.976562 271.910156 262.746094 C 266.136719 255.054688 255.332031 256.757812 253.441406 247.46875 C 251.484375 237.855469 251.65625 238.605469 241.796875 235.921875 C 233.882812 233.777344 234.695312 222.164062 230.59375 227.847656 C 229.058594 229.972656 218.742188 244.164062 216.234375 241.347656 C 215.222656 240.214844 217.613281 233.25 217.746094 231.777344 C 218.03125 228.519531 218.179688 224.035156 215.496094 221.613281 C 209.714844 216.402344 203.371094 224.476562 201 229.179688 C 199.246094 232.65625 195.351562 223.652344 194.167969 227.351562 C 181.269531 230.070312 189.386719 221.855469 187.082031 215.945312 C 184.730469 209.914062 176.539062 206.695312 170.421875 206.859375 C 164.5 207.011719 161.863281 211.707031 156.804688 213.636719 C 153.828125 214.769531 144.277344 212.308594 145.925781 217.125 C 146.695312 219.382812 150.332031 219.328125 151.617188 221.007812 C 152.953125 222.742188 153 226.484375 153.117188 228.589844 C 153.402344 233.640625 148.980469 228.511719 142.925781 227.351562 C 138.808594 226.554688 135.707031 231.472656 132.71875 228.851562 C 127.488281 224.273438 119.546875 216.585938 112.171875 217.269531 C 109.226562 217.539062 105.679688 219.859375 102.789062 218.378906 C 100.445312 217.179688 96.9375 215.128906 95.539062 213.023438 L 93.855469 212.113281 C 85.085938 211.894531 89.023438 227.460938 86.90625 231.835938 C 83.734375 238.382812 72.808594 235.695312 68.832031 242.820312 C 67.933594 244.433594 68.324219 246.4375 67.378906 247.996094 C 66.351562 249.691406 64.347656 250.441406 63.128906 251.964844 C 60.570312 255.179688 59.28125 259.835938 59.179688 263.847656 C 59.023438 269.984375 62.875 270.910156 68.632812 270.578125 C 73.941406 270.277344 73.984375 270.078125 73.453125 276.191406 C 68.132812 276.007812 51.636719 285.023438 53.554688 291.417969 C 74.628906 294.023438 87.09375 268.597656 108.527344 278.390625 C 119.761719 283.527344 121.351562 290.929688 117.679688 301.390625 C 115.09375 308.753906 119.824219 314.585938 116.933594 322.113281 C 114.875 327.46875 111.4375 332.5625 111.246094 338.480469 C 111.09375 343.183594 113.496094 346.660156 115.027344 350.902344 C 116.695312 355.519531 116.734375 360.46875 118.160156 365.140625 C 119.777344 370.40625 123.144531 373.90625 126.253906 378.269531 C 129.316406 382.578125 130.132812 386.71875 131.164062 391.789062 C 131.625 394.105469 132.027344 399.855469 135.316406 397.894531 C 141.210938 394.386719 130.828125 374.578125 134.023438 373.644531 C 140.636719 371.703125 142.75 391.367188 143.753906 394.304688 C 147.402344 404.941406 158.234375 410.707031 167.511719 415.699219 C 176.046875 420.285156 183.203125 426.773438 191.757812 431.335938 C 202.664062 437.160156 206.84375 440.972656 200.613281 452.734375 C 197.464844 458.683594 206.757812 461.164062 207.988281 466.859375 C 210.488281 478.382812 209.371094 492.921875 211.078125 504.941406 C 212.28125 513.375 215.53125 521.207031 216.757812 529.628906 C 218.007812 538.203125 219.316406 547.011719 220.054688 555.644531 C 220.910156 565.53125 223.722656 567.941406 227.722656 577.257812 C 230.171875 582.96875 241.136719 600.5625 244.179688 590.667969 C 245.210938 587.324219 242.03125 583.183594 241.074219 580.144531 C 239.695312 575.769531 245.308594 558.664062 245.761719 554.167969 C 246.597656 545.921875 254.785156 537.902344 257.992188 530.070312 C 259.503906 526.394531 249.585938 526.597656 252.257812 523.6875 C 255.019531 515.800781 269.210938 515.3125 272.828125 507.988281 C 275.980469 501.570312 275.703125 500.269531 282.207031 496.746094 C 288.605469 493.277344 291.242188 487.476562 296.167969 482.527344 C 301.664062 477 305.710938 472.746094 306.179688 464.417969 C 306.652344 456.023438 301.644531 456.082031 294.984375 453.273438 " fill-opacity="1" fill-rule="nonzero"/><g clip-path="url(#0a2337142e)"><path fill="#7cc133" d="M 343.597656 228.652344 C 347.542969 221.351562 347.375 213.386719 347.644531 205.324219 C 347.753906 201.996094 347.984375 198.675781 348.707031 195.417969 C 349.132812 193.480469 349.890625 191.535156 349.984375 189.535156 C 350.175781 185.558594 347.605469 180.863281 345.058594 177.949219 C 341.933594 174.394531 338.847656 177.027344 335.3125 178.511719 C 329.808594 180.8125 324.375 180.253906 318.609375 179.722656 C 314.300781 179.328125 311.300781 180.140625 307.652344 182.339844 C 304.992188 183.945312 302.441406 184.636719 299.394531 185.121094 C 298.023438 185.339844 296.652344 185.582031 295.285156 185.851562 C 295.152344 184.300781 294.898438 184.375 296.324219 183.882812 C 297.171875 183.59375 298.066406 183.457031 298.90625 183.117188 C 300.339844 182.535156 301.976562 181.539062 301.640625 179.734375 C 301.21875 177.53125 297.820312 176.808594 297.191406 174.609375 C 296.707031 172.933594 297.703125 172.3125 296.210938 170.855469 C 294.550781 169.226562 289.464844 168.550781 287.300781 167.953125 L 285.816406 167.726562 C 280.578125 167.441406 277.84375 169.011719 275.003906 173.226562 C 272.273438 177.265625 268 175.371094 264.757812 178.230469 C 263.425781 179.40625 263.359375 181.25 262.277344 182.523438 C 261.128906 183.867188 260.15625 183.640625 258.492188 184 C 256.796875 184.367188 254.101562 185.179688 253.566406 187.132812 C 252.867188 189.671875 255.246094 189.375 256.15625 190.933594 C 257.855469 193.859375 250.335938 198.988281 257.773438 200.078125 C 263.417969 200.90625 264.675781 196.351562 268.910156 194.730469 C 269.125 194.644531 272.933594 198.527344 273.457031 199.082031 C 275.105469 200.824219 276.671875 203.234375 275.375 205.644531 C 274.753906 206.789062 273.824219 207.667969 273.445312 208.957031 C 273.054688 210.28125 273.277344 211.664062 273.238281 213.015625 C 273.140625 216.28125 270.6875 218.652344 270.492188 221.785156 C 270.1875 226.597656 275.492188 230.804688 278.210938 234.183594 C 280.699219 237.277344 281.277344 239.769531 281.855469 243.535156 C 282.351562 246.757812 283.964844 249.65625 284.585938 252.855469 C 285.257812 256.292969 285.546875 259.601562 286.628906 262.972656 C 287.960938 267.15625 288.03125 270.453125 287.445312 274.769531 C 286.792969 279.566406 288.628906 284.183594 293.261719 286.296875 C 299.515625 289.15625 302.429688 282.621094 304.964844 278.160156 C 309.390625 270.382812 315.628906 266.363281 323.476562 262.503906 C 326.539062 260.992188 329.742188 259.367188 331.789062 256.53125 C 333.671875 253.921875 334.285156 250.695312 334.96875 247.621094 C 335.738281 244.203125 336.65625 240.886719 338.234375 237.742188 C 339.820312 234.59375 341.921875 231.75 343.597656 228.652344 " fill-opacity="1" fill-rule="nonzero"/></g><path fill="#7cc133" d="M 604.777344 423.910156 C 607.207031 420.324219 588.699219 405.039062 593.304688 403.285156 C 596.265625 402.148438 600.367188 402.96875 603.449219 402.992188 C 607.019531 403.023438 610.90625 403.042969 614.257812 401.628906 C 619.46875 399.425781 634.238281 397.011719 636.167969 392.160156 C 638.703125 385.773438 642.96875 377.9375 640.859375 371.230469 C 638.757812 364.550781 630.433594 359.707031 628.953125 352.828125 C 627.457031 345.871094 644.769531 342.539062 649.882812 338.757812 C 655.234375 334.804688 655.101562 331.722656 655.714844 325.597656 C 656.300781 319.75 661.175781 318.335938 664.511719 314.3125 C 665.917969 312.605469 666.539062 310.628906 666.917969 308.484375 C 663.566406 308.191406 632.160156 288.539062 646.632812 277.417969 C 649.410156 275.285156 671.28125 260.128906 674.054688 259.738281 C 679.863281 258.933594 682.910156 308.15625 688.132812 304.121094 C 694.566406 299.132812 694.390625 261.390625 698.925781 257.265625 C 704.75 251.957031 708.144531 247.8125 706.890625 246.027344 C 702.097656 239.222656 702.484375 221.867188 701.472656 213.554688 C 701.015625 209.734375 650.285156 218.792969 649.523438 214.996094 C 648.601562 210.488281 618.46875 221 617.769531 216.4375 C 616.632812 209.027344 600.363281 214.527344 588.90625 214.273438 C 583.828125 214.167969 588.25 227.003906 583.441406 224.613281 C 578.503906 222.15625 574.859375 217.4375 569.5625 215.632812 C 565.847656 214.371094 562.960938 216.277344 559.351562 215.917969 C 555.179688 215.503906 551.664062 211.402344 548.238281 209.339844 C 544.902344 207.332031 541.507812 206.070312 538.398438 208.988281 C 535.417969 211.796875 533.179688 214.796875 529.722656 217.179688 C 526.371094 219.492188 522.582031 221.566406 520.363281 225.113281 C 518.777344 227.640625 517.882812 230.265625 515.945312 232.605469 C 513.136719 236 510.171875 239.109375 508.335938 243.175781 C 507.316406 245.421875 507.046875 248.761719 504.957031 250.300781 C 502.851562 251.859375 499.367188 252.226562 496.96875 253.386719 C 493.578125 255.03125 490.890625 255.808594 487.101562 254.796875 C 482.925781 253.691406 478.0625 251.203125 475.726562 247.410156 C 473.863281 244.386719 474.179688 240.859375 474.503906 237.484375 C 468.996094 237.097656 466.433594 237.71875 465.164062 243.226562 C 464.4375 246.390625 462.316406 249.863281 462.828125 253.125 C 463.519531 257.515625 464.78125 259.742188 461.128906 263.382812 C 459.457031 265.050781 457.484375 266.40625 455.722656 267.988281 C 454.734375 268.886719 453.316406 271.042969 452.007812 271.464844 C 448.835938 272.449219 446.753906 266.378906 445.605469 264.292969 C 443.320312 260.210938 441.402344 258.035156 436.625 257.847656 C 431.539062 257.652344 428.054688 255.683594 423.402344 253.855469 C 417.949219 251.703125 415.375 254.050781 411.136719 257.222656 C 409.332031 258.578125 407.453125 259.589844 405.285156 260.234375 C 404.015625 260.609375 402.148438 260.574219 401.179688 261.597656 C 400.34375 262.484375 400.34375 264.210938 400.003906 265.324219 C 399.351562 267.445312 398.28125 269.242188 397.042969 271.070312 C 394.667969 274.597656 393.957031 278.363281 391.988281 282.054688 C 391.03125 283.851562 383.136719 291.363281 384.171875 292.921875 C 385.289062 294.613281 390.601562 292.589844 392.519531 294.210938 C 394.480469 295.875 395.464844 299.285156 398.71875 296.585938 C 401.71875 294.101562 400.441406 289.296875 403.558594 286.777344 C 407.410156 283.671875 409.851562 283.25 410.851562 277.828125 C 411.105469 276.449219 411.003906 273.773438 412.917969 273.78125 C 414.953125 273.785156 416.21875 277.644531 416.488281 279.109375 C 417.425781 284.140625 413.949219 288.558594 414.160156 293.582031 C 414.375 298.585938 413.109375 301.570312 411.023438 306.082031 C 409.148438 310.121094 408.261719 312.609375 403.441406 313.144531 L 402.277344 313.1875 C 399.828125 313.972656 390.945312 311.765625 388.863281 313.378906 C 386.582031 315.140625 386.648438 319.125 384.441406 320.515625 C 382.332031 321.851562 379.609375 319.480469 378.953125 317.503906 C 378.144531 315.054688 379.273438 312.335938 378.542969 309.777344 C 377.945312 307.71875 375.851562 303.375 373.28125 303.175781 C 370.464844 302.953125 370.777344 306.558594 370.527344 308.472656 C 370.074219 311.917969 368.96875 311.917969 365.808594 312.523438 C 363.09375 313.039062 360.617188 314.433594 362.351562 317.492188 C 363.59375 319.6875 366.699219 320.855469 368.539062 322.554688 C 371.472656 325.269531 373.710938 326.242188 377.78125 325.472656 C 380.980469 330.859375 372.851562 332.585938 371 336.007812 C 369.199219 339.335938 368.230469 339.613281 364.71875 340.890625 C 361.128906 342.191406 362.183594 345.347656 363.792969 348.234375 C 365.492188 351.285156 366.359375 351 369.082031 349.640625 C 371.9375 348.226562 375.304688 347.777344 377.902344 345.890625 C 380.035156 344.339844 381.121094 342.121094 383.898438 341.601562 C 386.566406 341.109375 389.445312 342.105469 391.84375 343.167969 C 391.910156 345.253906 392.761719 346.175781 394.117188 347.605469 C 394.664062 348.183594 395.765625 348.816406 395.828125 349.71875 C 395.886719 350.625 394.941406 350.785156 394.792969 351.484375 C 394.261719 353.960938 396.328125 354.550781 396.894531 356.921875 C 397.402344 359.023438 395.316406 360.957031 397.992188 361.863281 C 400.382812 362.664062 403.640625 360.882812 403.003906 358.378906 C 402.421875 356.042969 401.300781 355.992188 401.992188 353.210938 C 402.984375 349.203125 402.09375 346.03125 401.304688 341.988281 C 403.894531 340.035156 408.128906 339.195312 411.34375 339.535156 C 413.253906 343.285156 411.230469 347.855469 412.957031 351.765625 C 413.667969 353.375 415.011719 354.96875 415.921875 356.421875 C 417.019531 358.171875 417.488281 358.464844 419.9375 358.402344 C 422.3125 358.34375 424.675781 357.867188 424.917969 355.128906 C 425.101562 353.070312 423.359375 351.4375 423.597656 349.429688 C 424.484375 341.785156 435.238281 348.195312 439.144531 349.296875 C 439.476562 351.648438 440.511719 353.722656 440.636719 356.09375 C 440.707031 357.417969 440.417969 358.414062 441.183594 359.589844 C 441.84375 360.601562 443.378906 360.84375 443.671875 362.113281 C 443.894531 363.117188 442.730469 364.027344 443.019531 365.023438 C 443.410156 366.386719 445.453125 366.804688 446.445312 367.609375 C 449.78125 370.285156 447.621094 371.105469 447.078125 374.007812 C 446.867188 375.148438 447.796875 376.207031 447.621094 377.304688 C 447.570312 377.585938 447.453125 377.824219 447.308594 378.042969 C 440.984375 370.21875 433.175781 377.214844 419.25 373.453125 C 404.898438 369.585938 388.910156 371.59375 375.746094 363.691406 C 373.472656 362.328125 371.367188 360.722656 369.28125 359.082031 L 368.058594 359.890625 C 363.054688 362.625 357.984375 361.839844 354.207031 366.886719 C 352.355469 369.359375 351.082031 372.058594 350.921875 375.207031 C 350.78125 377.960938 351.65625 379.082031 349.121094 380.667969 C 345.160156 383.148438 340.027344 383.632812 337.976562 388.761719 C 336.675781 391.988281 336.28125 400.578125 340.828125 401.46875 C 339.964844 407.007812 338.417969 414.214844 342.171875 419.066406 C 346.273438 424.351562 354.71875 424.738281 360.78125 425.351562 C 373.800781 426.664062 392.234375 426.847656 395.558594 442.769531 C 396.855469 448.984375 396.023438 455.550781 395.710938 461.835938 C 395.355469 469.09375 395.414062 476.335938 396.042969 483.582031 C 396.753906 491.703125 397.878906 499.929688 400.105469 507.785156 C 401.625 513.152344 404.007812 520.824219 409.816406 523.019531 C 423.191406 528.070312 436.398438 503.191406 441.367188 494.597656 C 449.175781 481.074219 456.394531 468.746094 467.496094 457.609375 C 474.484375 450.589844 486.992188 439.929688 476.351562 430.644531 C 470.980469 425.964844 464.15625 423.058594 458.339844 418.984375 C 454.550781 416.328125 453.367188 405.472656 452.203125 395.804688 C 453.425781 396.503906 454.90625 396.910156 455.984375 397.707031 C 457.070312 398.5 457.484375 399.351562 458.265625 400.417969 C 459.910156 402.664062 461.769531 404.523438 463.300781 406.824219 C 466.316406 411.367188 474.671875 411.046875 479.578125 411.695312 C 479.945312 413.316406 481.730469 414.324219 483.378906 414.199219 C 485.457031 414.035156 484.949219 413.222656 486.382812 411.707031 C 488.871094 409.074219 492.28125 408.609375 495.390625 407.984375 C 492.15625 404.328125 490.058594 399.792969 486.6875 396.300781 C 483.382812 392.871094 473.910156 388.609375 474.359375 382.996094 C 474.777344 377.765625 482.722656 376.023438 486.710938 377.574219 C 489.085938 378.496094 491.066406 380.3125 493.25 381.597656 C 496.277344 383.371094 499.5625 384.523438 502.871094 385.652344 C 510.183594 388.144531 517.289062 391.09375 522.511719 397.046875 C 526.5625 401.667969 526 406.15625 527.222656 411.773438 C 527.765625 414.28125 534.148438 427.0625 536.496094 419.800781 C 537.554688 416.503906 535.667969 411.9375 534.65625 408.851562 C 534.128906 407.28125 532.039062 403.507812 533.632812 402.078125 C 535.023438 400.828125 539.957031 401.859375 541.691406 401.730469 C 545.90625 401.429688 549.804688 400.097656 553.734375 398.636719 C 560.902344 395.96875 569.792969 393.839844 575.855469 400.144531 C 580.578125 405.058594 575.585938 408.929688 577.070312 414.105469 C 578.53125 419.242188 601.96875 428.0625 604.777344 423.910156 " fill-opacity="1" fill-rule="nonzero"/><path fill="#7cc133" d="M 700.28125 507.589844 C 695.996094 500.046875 701.453125 496.984375 702.34375 489.894531 C 702.707031 487.054688 702.246094 484.160156 702.613281 481.304688 C 702.898438 479.050781 704.636719 475.339844 703.589844 473.136719 C 701.730469 469.1875 690.632812 469.046875 687.160156 470.511719 C 683.5625 472.039062 682.683594 474.785156 678.179688 474.878906 C 675.980469 474.929688 673.855469 474.375 671.695312 474.964844 C 669.734375 475.503906 668.148438 476.988281 666.125 477.394531 C 661.761719 478.285156 657.257812 475.53125 652.652344 475.992188 L 650.632812 475.203125 C 650.289062 475.046875 643.347656 472.992188 643.097656 473.257812 C 641.359375 482.101562 634.351562 484.378906 629.15625 490.917969 C 626.621094 494.113281 625.140625 494.105469 621.15625 494.503906 C 616.128906 495.011719 612.789062 497.117188 613.152344 502.621094 C 613.460938 507.28125 615.835938 511.109375 614.761719 515.851562 C 613.660156 520.707031 612.140625 525.175781 615.523438 529.652344 C 622.449219 538.78125 626.980469 524.035156 634.335938 524.214844 C 638.578125 524.316406 642.433594 526.296875 646.128906 528.167969 C 651.023438 530.648438 655.773438 531.839844 661.230469 532.359375 C 657.179688 538.050781 673.921875 543.320312 676.898438 544.28125 C 682.878906 546.214844 691.957031 548.976562 692.738281 540.644531 C 693.421875 533.28125 700.894531 533.5 706.320312 530.019531 C 716.375 523.578125 703.972656 514.089844 700.28125 507.589844 " fill-opacity="1" fill-rule="nonzero"/><path fill="#7cc133" d="M 690.089844 335.765625 L 687.128906 332.941406 C 682.488281 334.554688 678.640625 340.457031 679.355469 346.027344 C 679.851562 349.972656 681.457031 353.03125 679.828125 356.949219 C 676.90625 364.007812 672.441406 370.90625 672.117188 378.792969 C 672 381.921875 672.859375 387.675781 677.269531 385.988281 C 681.003906 384.546875 683.90625 379.101562 685.535156 375.699219 C 687.996094 370.578125 689.65625 362.222656 688.773438 356.628906 C 688.132812 352.566406 687.75 350.203125 689.597656 346.28125 C 691.449219 342.363281 692.191406 339.945312 690.089844 335.765625 " fill-opacity="1" fill-rule="nonzero"/><path fill="#7cc133" d="M 633.03125 452.867188 C 636.949219 457.464844 642.460938 455.59375 647.550781 453.800781 C 649.488281 453.121094 652.09375 450.664062 652.300781 448.476562 C 652.601562 445.324219 648.878906 445.5625 647.941406 442.765625 L 647.671875 441.367188 C 644.90625 439.632812 643.65625 439.097656 642.363281 435.824219 C 641.585938 433.871094 643.546875 431.152344 642.171875 429.367188 C 641.128906 428.007812 637.1875 427.890625 635.6875 428.363281 C 633.429688 429.074219 632.527344 431.511719 632.367188 433.722656 C 632.125 437.097656 632.847656 439.332031 631.003906 442.476562 C 628.625 446.527344 629.996094 449.296875 633.03125 452.867188 " fill-opacity="1" fill-rule="nonzero"/><path fill="#7cc133" d="M 632.441406 468.574219 C 629.292969 465.652344 623.925781 464.554688 619.960938 463.3125 C 616.375 462.199219 612.695312 461.214844 609.683594 458.886719 C 606.167969 456.15625 603.003906 453.042969 599.40625 450.410156 C 596.613281 448.371094 594.445312 444.96875 591.0625 444.242188 C 587.140625 443.398438 588.101562 444.746094 587.453125 445.441406 C 584.445312 448.679688 586.308594 453.570312 588.621094 457.492188 C 591.066406 461.640625 594.96875 465.128906 599.035156 467.660156 C 605.765625 471.832031 614.359375 472.605469 622.105469 472.992188 C 623.960938 473.082031 637.203125 472.984375 632.441406 468.574219 " fill-opacity="1" fill-rule="nonzero"/></svg>