<svg xmlns="http://www.w3.org/2000/svg" xmlns:xlink="http://www.w3.org/1999/xlink" width="1024" zoomAndPan="magnify" viewBox="0 0 768 767.999994" height="1024" preserveAspectRatio="xMidYMid meet" version="1.0"><defs><clipPath id="25ca6286c4"><path d="M 55.085938 368 L 115 368 L 115 438 L 55.085938 438 Z M 55.085938 368 " clip-rule="nonzero"/></clipPath><clipPath id="021bd2b8d1"><path d="M 671 160 L 712.835938 160 L 712.835938 178 L 671 178 Z M 671 160 " clip-rule="nonzero"/></clipPath></defs><path fill="#7cc133" d="M 290.71875 606.617188 L 290.230469 606.125 L 289.984375 603.957031 L 289.238281 603.277344 L 288.679688 601.585938 L 288.117188 601.085938 L 287.746094 601.347656 L 287.746094 601.085938 L 288.179688 600.03125 L 288.179688 598.855469 L 286.699219 597.199219 L 285.945312 597.199219 L 285.015625 596.316406 L 284.585938 596.316406 L 283.832031 595.585938 L 282.160156 596.140625 L 282.160156 597.246094 L 281.046875 597.246094 L 278.9375 599.601562 L 278.9375 600.402344 L 278.5625 600.792969 L 277.507812 600.664062 L 276.335938 601.785156 L 273.050781 601.785156 L 271.859375 600.609375 L 270.558594 600.609375 L 270.867188 602.839844 L 270.5 603.210938 L 270.5 604.578125 L 272.675781 606.871094 L 272.675781 607.734375 L 273.113281 608.917969 L 273.851562 609.535156 L 273.851562 614.058594 L 273.359375 614.496094 L 273.46875 617.28125 L 274.46875 617.28125 L 274.722656 618.835938 L 273.421875 619.703125 L 273.796875 621.929688 L 273.230469 622.488281 L 272.976562 627.152344 L 273.914062 628.007812 L 273.914062 628.644531 L 275.089844 629.867188 L 275.089844 630.808594 L 276.269531 631.738281 L 280.054688 631.738281 L 280.054688 630.546875 L 280.929688 629.699219 L 281.046875 627.390625 L 282.160156 626.273438 L 283.339844 626.273438 L 284.460938 627.652344 L 287.492188 628.707031 L 289.300781 613.8125 L 288.554688 612.511719 L 288.554688 610.527344 L 289.539062 609.847656 L 290.292969 608.042969 L 290.972656 607.425781 Z M 290.71875 606.617188 " fill-opacity="1" fill-rule="nonzero"/><path fill="#7cc133" d="M 354.859375 639.554688 L 354.859375 639.054688 L 354.050781 639.308594 L 353.488281 639.308594 L 353.058594 639.738281 L 352.003906 639.929688 L 351.449219 639.800781 L 350.765625 640.484375 L 350.765625 641.230469 L 346.234375 640.730469 L 344.1875 642.902344 L 336.617188 643.148438 L 335.316406 644.203125 L 333.585938 644.203125 L 332.53125 643.148438 L 331.65625 643.148438 L 329.429688 641.601562 L 328.683594 641.601562 L 328.125 642.15625 L 326.570312 642.15625 L 326.570312 642.777344 L 325.644531 643.703125 L 324.277344 643.703125 L 322.976562 642.53125 L 321.421875 642.53125 L 320.3125 643.523438 L 320.3125 647.609375 L 319.492188 648.355469 L 321.246094 649.964844 L 325.332031 649.964844 L 326.070312 650.648438 L 328.246094 651.578125 L 329.554688 651.578125 L 330.910156 653.8125 L 332.53125 653.8125 L 336.617188 656.171875 L 340.839844 656.171875 L 342.386719 656.726562 L 342.386719 657.980469 L 346.980469 661.203125 L 351.320312 661.558594 L 351.820312 660.835938 L 351.382812 658.835938 L 353.921875 655.980469 L 353.058594 655.179688 L 353.058594 654.742188 L 352.375 654.304688 L 352.933594 653.75 L 351.875 652.695312 L 351.136719 652.695312 L 351.136719 652.078125 L 350.710938 651.148438 L 350.710938 649.964844 L 351.628906 648.664062 L 351.628906 647.863281 L 352.1875 646.679688 L 352.3125 645.378906 L 354.542969 641.347656 L 354.296875 640.609375 L 354.980469 639.992188 Z M 354.859375 639.554688 " fill-opacity="1" fill-rule="nonzero"/><path fill="#7cc133" d="M 285.140625 572.382812 L 284.585938 573.933594 L 284.148438 573.933594 L 283.460938 573.050781 L 282.539062 573.179688 L 280.929688 574.660156 L 279.246094 574.660156 L 278.691406 575.21875 L 278.070312 575.21875 L 277.261719 575.542969 L 276.953125 578.089844 L 276.023438 579.199219 L 277.015625 580.191406 L 276.082031 581.128906 L 276.582031 582.429688 L 278.390625 584.105469 L 276.582031 584.84375 L 277.945312 586.023438 L 277.945312 586.953125 L 276.953125 587.882812 L 277.335938 588.808594 L 279.183594 588.808594 L 279.308594 589.429688 L 278.753906 589.992188 L 278.753906 590.675781 L 280.492188 592.09375 L 281.546875 592.09375 L 281.785156 592.59375 L 282.285156 593.03125 L 283.214844 593.339844 L 285.324219 591.355469 L 285.816406 584.90625 L 287.363281 583.605469 L 287.253906 575.859375 L 286.699219 575.050781 L 286.507812 569.457031 L 285.453125 568.464844 L 285.078125 568.902344 Z M 285.140625 572.382812 " fill-opacity="1" fill-rule="nonzero"/><g clip-path="url(#25ca6286c4)"><path fill="#7cc133" d="M 64.949219 435.796875 L 65.824219 436.042969 L 66.5625 437.226562 L 75.425781 435.304688 L 76.242188 434.25 L 78.472656 433.8125 L 78.351562 433.011719 L 77.417969 432.265625 L 77.980469 430.773438 L 79.035156 430.464844 L 79.835938 431.082031 L 80.273438 432.328125 L 81.328125 432.886719 L 81.949219 432.757812 L 85.050781 429.664062 L 86.90625 429.410156 L 87.835938 428.234375 L 87.707031 427.679688 L 90.265625 427.242188 L 91.675781 427.796875 L 93.605469 427.554688 L 94.476562 426.933594 L 94.96875 427.410156 L 95.644531 425.570312 L 97.207031 426.363281 L 97.699219 427.355469 L 98.445312 427.910156 L 100.492188 427.308594 L 101.230469 426.300781 L 101.109375 423.894531 L 102.414062 422.703125 L 104.515625 416.070312 L 106.5 413.960938 L 106.070312 401.746094 L 103.46875 395.113281 L 104.953125 393.566406 L 105.878906 393.433594 L 106.445312 393.796875 L 108.492188 393.1875 L 109.109375 390.957031 L 112.03125 390.402344 L 114.257812 387.851562 L 113.457031 382.640625 L 112.523438 382.019531 L 110.046875 382.085938 L 109.855469 381.15625 L 110.539062 380.65625 L 111.347656 380.539062 L 111.902344 379.785156 L 111.148438 378.863281 L 111.101562 377.871094 L 109.046875 376.007812 L 108.433594 372.847656 L 105.878906 371.039062 L 99.683594 372.402344 L 99.554688 371.664062 L 95.777344 368.429688 L 94.851562 369.738281 L 93.296875 370.238281 L 92.484375 370.109375 L 89.320312 371.164062 L 87.527344 370.792969 L 86.535156 370.984375 L 84.304688 372.785156 L 83.304688 375.816406 L 83.496094 377 L 83.003906 377.671875 L 80.636719 377.988281 L 79.648438 378.617188 L 79.773438 379.917969 L 80.394531 380.339844 L 84.003906 380.964844 L 85.167969 381.648438 L 83.933594 383.265625 L 81.511719 383.824219 L 80.140625 385.058594 L 80.394531 387.234375 L 80.027344 388.289062 L 79.402344 387.042969 L 78.472656 386.296875 L 76.304688 386.050781 L 75.058594 386.488281 L 74.125 387.664062 L 73.324219 387.042969 L 73.140625 385.617188 L 71.273438 385.25 L 70.285156 384.496094 L 65.015625 384.75 L 64.769531 385.804688 L 65.324219 388.589844 L 63.339844 390.148438 L 68.671875 393.679688 L 64.578125 395.050781 L 64.695312 397.289062 L 63.214844 397.390625 L 62.476562 398.214844 L 61.53125 400.445312 L 66.816406 402.304688 L 66.378906 403.859375 L 67.125 404.414062 L 70.21875 404.851562 L 72.765625 404.414062 L 73.878906 404.914062 L 73.941406 405.714844 L 72.824219 406.953125 L 71.339844 406.523438 L 70.101562 407.207031 L 68.117188 409.621094 L 68.234375 410.367188 L 65.078125 413.960938 L 64.769531 415.199219 L 66.378906 415.632812 L 67 416.5 L 64.632812 416.816406 L 62.585938 419.476562 L 62.648438 420.917969 L 61.476562 422.769531 L 59.429688 421.148438 L 56.261719 421.585938 L 55.085938 422.640625 L 56.578125 423.832031 L 61.59375 424.023438 L 61.222656 425.503906 L 56.945312 426.1875 L 55.214844 428.542969 L 56.890625 429.535156 L 57.445312 430.65625 L 57.878906 430.09375 L 61.96875 429.535156 L 62.53125 429.910156 L 60.910156 431.335938 L 59.246094 431.582031 L 57.816406 433.566406 L 59.191406 433.941406 L 62.53125 433.441406 L 63.523438 432.203125 L 64.457031 432.019531 L 64.578125 432.574219 L 63.640625 433.8125 L 62.476562 434.25 L 61.101562 436.042969 L 62.03125 436.789062 Z M 64.949219 435.796875 " fill-opacity="1" fill-rule="nonzero"/></g><path fill="#7cc133" d="M 111.464844 343.320312 L 110.847656 344.058594 L 111.902344 344.804688 L 112.148438 345.925781 L 111.039062 345.925781 L 110.101562 345.242188 L 108.925781 346.664062 L 109.046875 347.652344 L 109.664062 348.535156 L 109.800781 349.582031 L 109.425781 350.636719 L 108.433594 351.375 L 108.117188 351.820312 L 109.109375 352.191406 L 114.441406 351.511719 L 114.316406 348.464844 L 115.316406 348.335938 L 117.917969 345.242188 L 118.226562 349.210938 L 116.863281 349.957031 L 114.816406 354.230469 L 114.941406 355.476562 L 114.257812 356.527344 L 114.386719 359.445312 L 114.695312 360.183594 L 114.695312 362.230469 L 113.394531 364.59375 L 113.261719 365.824219 L 111.839844 368.625 L 111.65625 370.175781 L 113.769531 370.046875 L 114.570312 368.992188 L 114.816406 367.636719 L 114.695312 366.578125 L 115.378906 365.269531 L 115.1875 363.96875 L 116.800781 361.800781 L 116.679688 360.800781 L 115.808594 359.136719 L 116.679688 358.015625 L 117.679688 358.636719 L 117.917969 359.628906 L 118.671875 360.183594 L 118.78125 360.867188 L 119.78125 361.992188 L 122.441406 356.34375 L 122.328125 357.515625 L 122.566406 358.261719 L 124.25 359.445312 L 122.949219 359.628906 L 121.828125 361.121094 L 121.574219 362.484375 L 121.703125 363.414062 L 123.558594 366.207031 L 123.75 367.324219 L 123.625 368.191406 L 123.25 368.691406 L 122.386719 369.246094 L 118.171875 377.179688 L 118.355469 380.164062 L 120.085938 379.785156 L 120.339844 379.472656 L 122.066406 379.546875 L 125.304688 382.210938 L 126.351562 382.210938 L 126.164062 381.09375 L 125.859375 380.839844 L 125.671875 379.226562 L 128.898438 380.71875 L 129.519531 381.59375 L 130.320312 381.464844 L 132.429688 380.039062 L 133.183594 379.917969 L 134.351562 379.292969 L 134.730469 377.988281 L 135.851562 377.617188 L 137.082031 377.925781 L 137.582031 378.792969 L 136.027344 381.027344 L 136.097656 381.773438 L 135.597656 382.894531 L 133.675781 384.6875 L 133.796875 385.871094 L 135.289062 387.542969 L 135.960938 391.074219 L 137.273438 392.128906 L 138.144531 393.734375 L 138.945312 393.628906 L 139.566406 392.566406 L 140.558594 392.75 L 142.667969 394.234375 L 141.667969 395.550781 L 141.613281 396.335938 L 140.8125 396.789062 L 139.753906 398.089844 L 139.320312 399.503906 L 140.3125 401.128906 L 140.066406 401.5 L 139.820312 402.738281 L 138.574219 404.785156 L 139.753906 406.898438 L 140.992188 407.824219 L 140.3125 407.945312 L 138.074219 407.207031 L 138.507812 409 L 137.898438 409.191406 L 136.714844 408.253906 L 127.34375 409.746094 L 124.933594 412.101562 L 124.613281 413.160156 L 120.21875 417.179688 L 121.273438 417.492188 L 123.503906 416.769531 L 124.3125 415.761719 L 125.796875 415.507812 L 126.71875 416.132812 L 127.289062 425.195312 L 126.105469 426.75 L 123.320312 427.910156 L 122.566406 428.917969 L 120.957031 429.101562 L 117.417969 431.457031 L 114.386719 431.894531 L 113.578125 432.886719 L 113.769531 433.941406 L 114.570312 434.558594 L 114.695312 435.425781 L 114.078125 436.296875 L 114.132812 436.851562 L 114.816406 437.34375 L 114.257812 438.152344 L 116.925781 438.464844 L 119.402344 437.84375 L 119.902344 437.164062 L 121.386719 436.980469 L 122.140625 436.042969 L 122.757812 436.480469 L 124.1875 438.398438 L 125.550781 438.21875 L 125.671875 439.082031 L 123.941406 439.144531 L 123.320312 440.011719 L 124.3125 440.757812 L 126.164062 440.574219 L 127.164062 439.273438 L 128.527344 439.082031 L 129.644531 439.957031 L 129.703125 440.820312 L 130.203125 441.191406 L 130.320312 441.996094 L 132.183594 443.421875 L 134.175781 444.121094 L 136.714844 443.734375 L 137.082031 443.242188 L 137.152344 442.183594 L 137.898438 441.191406 L 140 440.882812 L 142.605469 439.582031 L 143.351562 438.652344 L 145.460938 437.34375 L 137.953125 446.089844 L 137.769531 446.898438 L 137.453125 447.28125 L 134.042969 447.699219 L 132.496094 446.230469 L 131.574219 446.398438 L 130.074219 446.152344 L 125.105469 446.835938 L 123.695312 450.058594 L 122.386719 450.738281 L 121.386719 449.992188 L 120.148438 452.039062 L 120.339844 453.539062 L 116.5625 457.761719 L 115.316406 457.863281 L 111.410156 462.839844 L 108.609375 464.640625 L 107.253906 464.824219 L 105.832031 465.507812 L 105.453125 467.179688 L 107.746094 467.0625 L 108.433594 466.125 L 109.546875 465.941406 L 110.910156 466.753906 L 111.101562 468.234375 L 110.65625 468.363281 L 111.53125 469.046875 L 112.457031 468.917969 L 113.140625 467.554688 L 113.023438 466.753906 L 115.125 464.824219 L 116.425781 464.640625 L 116.371094 463.960938 L 116.988281 463.03125 L 123.558594 461.910156 L 124.113281 460.984375 L 124.996094 461.792969 L 125.359375 463.09375 L 125.925781 463.03125 L 126.542969 464.085938 L 128.152344 465.386719 L 129.582031 465.570312 L 129.519531 464.703125 L 130.882812 463.777344 L 131.75 462.59375 L 131.9375 461.601562 L 131.8125 460.855469 L 132.25 458.625 L 136.644531 456.398438 L 141.367188 456.769531 L 143.53125 458.316406 L 150.800781 457.761719 L 150.355469 456.316406 L 156.808594 455.214844 L 156.679688 454.414062 L 157.234375 453.714844 L 161.894531 454.847656 L 162.886719 455.585938 L 179.074219 454.90625 L 182.175781 452.851562 L 183.421875 452.921875 L 184.03125 452.105469 L 183.914062 451.175781 L 186.207031 449.890625 L 187.890625 449.5 L 189.375 448.507812 L 189.0625 446.460938 L 189.445312 444.414062 L 188.628906 443.859375 L 186.207031 443.796875 L 185.84375 444.289062 L 179.9375 443.605469 L 179.074219 443.050781 L 178.707031 442.429688 L 178.945312 442.121094 L 183.175781 441.066406 L 183.730469 440.320312 L 183.859375 439.019531 L 183.042969 438.398438 L 181.367188 438.027344 L 182.175781 437.972656 L 182.976562 436.851562 L 184.222656 436.726562 L 185.152344 436.980469 L 185.589844 436.417969 L 187.191406 436.171875 L 187.699219 434.996094 L 186.699219 434.742188 L 185.40625 433.75 L 188.5625 432.886719 L 190.675781 430.964844 L 192.660156 423.957031 L 192.160156 422.410156 L 192.46875 420.53125 L 189.683594 417.554688 L 181.367188 415.140625 L 178.390625 416.007812 L 177.652344 417.816406 L 176.78125 418.671875 L 175.167969 418.609375 L 174.988281 418.171875 L 174.988281 417.125 L 174.175781 415.714844 L 174.113281 414.953125 L 176.597656 413.277344 L 175.234375 407.570312 L 173.988281 406.023438 L 172.257812 404.914062 L 170.703125 393.796875 L 168.34375 391.695312 L 167.296875 389.710938 L 167.164062 388.78125 L 167.351562 387.910156 L 164.75 385.925781 L 159.980469 384.496094 L 159.226562 383.941406 L 157.371094 376.125 L 156.125 375.195312 L 155.324219 371.792969 L 155.6875 369.929688 L 155.324219 367.9375 L 145.707031 358.945312 L 140.992188 360 L 137.582031 359.445312 L 138.007812 358.890625 L 140.066406 358.507812 L 140.246094 357.207031 L 142.605469 355.730469 L 144.09375 355.535156 L 144.832031 354.667969 L 145.460938 352.683594 L 140.4375 352.128906 L 144.476562 349.957031 L 145.523438 349.828125 L 149.300781 344.679688 L 149.546875 342.828125 L 150.976562 340.902344 L 152.101562 335.996094 L 153.777344 333.394531 L 154.023438 332.394531 L 154.824219 331.402344 L 151.410156 327.5 L 150.300781 327.746094 L 149 328.492188 L 143.722656 328.179688 L 142.605469 328.617188 L 138.144531 328 L 135.722656 329.046875 L 134.96875 329.855469 L 133.121094 330.292969 L 132.496094 329.792969 L 132.929688 328.117188 L 132.867188 327.6875 L 134.175781 325.886719 L 130.574219 324.214844 L 131.375 324.339844 L 134.851562 321.300781 L 136.398438 320.855469 L 141.300781 315.777344 L 142.046875 314.042969 L 141.613281 312.984375 L 142.359375 311.4375 L 141.613281 310.382812 L 129.644531 312.738281 L 128.398438 311.621094 L 126.542969 311.929688 L 125.859375 311.4375 L 124.742188 311.121094 L 123.8125 310.445312 L 123.378906 311.121094 L 122.566406 315.03125 L 121.949219 316.152344 L 120.773438 316.523438 L 119.902344 319.246094 L 118.734375 320.921875 L 121.082031 322.96875 L 119.464844 323.660156 L 116.925781 323.839844 L 116.371094 323.460938 L 114.816406 324.023438 L 115.1875 326.625 L 114.570312 327.433594 L 115.496094 328.738281 L 115.25 329.609375 L 114.441406 330.292969 L 114.078125 331.777344 L 114.941406 332.894531 L 115.125 333.648438 L 114.441406 334.996094 L 115.25 337.671875 L 113.703125 339.472656 L 113.816406 342.449219 L 113.023438 343.386719 Z M 111.464844 343.320312 " fill-opacity="1" fill-rule="nonzero"/><path fill="#7cc133" d="M 482.503906 676.828125 L 480.648438 678.5 L 479.773438 677.445312 L 479.964844 676.269531 L 468.800781 674.96875 L 466.933594 676.390625 L 459.929688 676.761719 L 458 674.40625 L 454.605469 674.96875 L 453.230469 673.296875 L 452.984375 675.03125 L 451.429688 675.089844 L 451 679.054688 L 465.945312 680.792969 L 468.554688 684.015625 L 470.964844 682.222656 L 476.371094 682.03125 L 478.789062 680.175781 L 484.796875 680.175781 L 487.035156 678.375 L 487.160156 677.324219 Z M 482.503906 676.828125 " fill-opacity="1" fill-rule="nonzero"/><path fill="#7cc133" d="M 478.972656 595.648438 L 478.535156 595.648438 L 480.265625 595.324219 Z M 466.378906 593.585938 L 469.976562 595.132812 Z M 442.3125 595.878906 L 442.3125 595.085938 L 442.375 596.925781 Z M 433.824219 597.246094 L 436.550781 597.800781 Z M 277.082031 394.003906 L 279.445312 394.234375 Z M 482.257812 340.464844 L 477.734375 337.734375 Z M 364.351562 514.25 L 363.730469 513.632812 L 363.730469 512.824219 L 363.730469 513.632812 Z M 374.953125 500.609375 L 374.207031 501.476562 Z M 407.082031 524.121094 L 406.152344 524.121094 L 408.136719 524.058594 Z M 646.179688 473.695312 L 643.394531 473.203125 L 636.316406 468.742188 L 634.207031 469.609375 L 627.765625 466.386719 L 622.734375 467.378906 L 614.734375 459.753906 L 613.550781 460.746094 L 603.632812 462.238281 L 601.207031 461.371094 L 599.292969 459.761719 L 598.429688 459.578125 L 595.824219 460.324219 L 592.90625 458.945312 L 592.167969 457.785156 L 591.851562 453.929688 L 590.113281 449.714844 L 587.445312 447.730469 L 579.320312 446.867188 L 578.882812 445.375 L 578.949219 444.257812 L 578.082031 443.390625 L 577.335938 440.726562 L 579.074219 438.925781 L 579.449219 437.558594 L 576.472656 434.082031 L 575.726562 432.164062 L 573.742188 430.304688 L 564.75 429.75 L 562.269531 431.550781 L 560.15625 431.550781 L 559.71875 431.058594 L 557.363281 430.3125 L 555.007812 433.664062 L 551.46875 434.589844 L 549.738281 433.910156 L 548.054688 433.910156 L 548.546875 432.542969 L 548.546875 430.996094 L 547.191406 428.148438 L 546.375 422.507812 L 544.207031 419.078125 L 545.261719 416.847656 L 554.878906 417.15625 L 556.992188 416.347656 L 559.15625 414.183594 L 559.15625 412.945312 L 556.117188 407.800781 L 554.125 406.746094 L 549.847656 406.566406 L 549.414062 405.445312 L 550.285156 403.460938 L 550.152344 401.722656 L 548.605469 401.722656 L 545.574219 400.296875 L 542.035156 395.152344 L 541.660156 393.171875 L 538.675781 390.503906 L 538.121094 387.457031 L 540.230469 384.355469 L 538.257812 382.308594 L 538.191406 377.957031 L 535.898438 375.046875 L 532.742188 373 L 525.609375 373.125 L 524.371094 374.246094 L 520.949219 374.738281 L 520.457031 374.246094 L 519.964844 370.894531 L 519.410156 370.03125 L 513.460938 370.839844 L 511.96875 369.347656 L 508.808594 369.347656 L 506.636719 367.855469 L 506.761719 363.578125 L 506.332031 362.335938 L 505.515625 361.53125 L 505.023438 360.160156 L 502.914062 357.992188 L 502.675781 356.445312 L 502.183594 356.011719 L 500.636719 356.128906 L 500.636719 355.144531 L 501.867188 353.84375 L 502.113281 347.949219 L 498.207031 343.980469 L 493.929688 343.796875 L 498.207031 343.980469 L 498.269531 340.878906 L 501.128906 338.085938 L 501.367188 335.847656 L 498.828125 333.308594 L 499.445312 325 L 498.515625 323.078125 L 498.515625 321.53125 L 499.445312 320.167969 L 500.191406 320.167969 L 501.492188 319.175781 L 502.046875 317.867188 L 503.039062 316.882812 L 502.546875 315.261719 L 504.714844 313.414062 L 506.761719 313.414062 L 506.398438 311.605469 L 504.714844 309.867188 L 504.160156 310.421875 L 501.621094 311.542969 L 493.929688 311.359375 L 490.636719 309.867188 L 487.105469 309.683594 L 486.242188 309.25 L 479.789062 308.628906 L 478.363281 309.183594 L 476.816406 309.183594 L 475.703125 308.4375 L 474.277344 310.359375 L 467.261719 310.359375 L 466.261719 311.351562 L 462.292969 311.351562 L 460.554688 311.96875 L 459.816406 313.40625 L 452.367188 316.191406 L 451.691406 316.882812 L 451.691406 318.992188 L 452.859375 320.167969 L 452.058594 320.90625 L 452.359375 327.609375 L 454.105469 330.464844 L 455.714844 331.023438 L 457.636719 331.023438 L 458.5 331.878906 L 462.03125 330.039062 L 463.839844 332.148438 L 463.839844 333.394531 L 461.921875 336.1875 L 461.921875 338.109375 L 462.914062 338.355469 L 461.667969 338.355469 L 461.484375 342.449219 L 462.601562 344.378906 L 462.484375 347.351562 L 460.429688 349.957031 L 454.96875 353.058594 L 450.882812 352.621094 L 439.21875 340.273438 L 438.726562 340.765625 L 437.296875 340.765625 L 435.742188 341.511719 L 434.140625 341.695312 L 433.019531 342.820312 L 430.417969 343.1875 L 426.625 348.589844 L 426.625 351.320312 L 425.695312 353.242188 L 422.164062 356.589844 L 421.292969 359.320312 L 423.15625 374.695312 L 423.839844 375.386719 L 424.449219 377.863281 L 424.085938 379.039062 L 424.640625 379.65625 L 424.769531 381.386719 L 422.96875 381.640625 L 421.417969 383.070312 L 421.484375 385.734375 L 421.109375 386.789062 L 418.945312 387.789062 L 411.375 387.964844 L 411.0625 389.019531 L 412.300781 392.742188 L 410.445312 393.425781 L 408.835938 393.425781 L 404.992188 397.28125 L 396.1875 396.828125 L 394.382812 396.097656 L 392.710938 394.488281 L 391.78125 392.441406 L 391.78125 391.195312 L 390.78125 389.957031 L 382.355469 389.835938 L 364.675781 397.28125 L 363.8125 398.089844 L 362.320312 398.089844 L 361.574219 398.898438 L 352.273438 400.882812 L 351.457031 401.628906 L 347.417969 403.238281 L 346.617188 404.050781 L 345.066406 404.050781 L 342.527344 406.652344 L 341.464844 406.652344 L 340.472656 405.597656 L 339.539062 403.613281 L 337.808594 401.875 L 333.523438 401.875 L 332.03125 400.445312 L 329.183594 400.445312 L 325.707031 396.972656 L 320.808594 397.78125 L 317.953125 401.191406 L 316.789062 400.757812 L 315.296875 401.128906 L 314.4375 401.9375 L 312.820312 400.882812 L 311.082031 402.492188 L 311.265625 402.621094 L 310.828125 403.367188 L 308.71875 404.859375 L 307.542969 404.859375 L 306.050781 405.539062 L 304.375 405.539062 L 303.625 406.214844 L 303.625 407.207031 L 302.320312 407.207031 L 302.320312 408.570312 L 301.386719 408.570312 L 300.582031 407.824219 L 298.28125 407.890625 L 297.164062 408.882812 L 295.933594 407.515625 L 298.28125 405.40625 L 298.664062 404.351562 L 298.664062 403.296875 L 298.042969 401.867188 L 296.671875 403.105469 L 294.816406 403.167969 L 293.894531 402.359375 L 291.65625 401.429688 L 290.539062 401.429688 L 290.101562 401.738281 L 289.484375 400.683594 L 287.007812 400.683594 L 286.316406 396.71875 L 285.945312 396.390625 L 285.578125 395.660156 L 285.515625 394.964844 L 285.378906 394.835938 L 285.453125 394.042969 L 285.632812 393.859375 L 286.4375 393.78125 L 286.4375 394.042969 L 286.0625 394.273438 L 286.308594 394.472656 L 286.253906 395.027344 L 287.117188 395.152344 L 287.246094 395.464844 L 287.417969 395.644531 L 287.671875 395.320312 L 287.546875 394.949219 L 287.355469 394.765625 L 287.300781 394.472656 L 287.417969 394.40625 L 287.609375 394.589844 L 287.855469 394.265625 L 287.910156 393.890625 L 288.164062 394.152344 L 288.230469 394.398438 L 289.03125 394.398438 L 289.222656 394.203125 L 289.347656 394.203125 L 289.523438 394.34375 L 289.222656 394.34375 L 288.96875 394.589844 L 289.285156 394.820312 L 289.410156 394.820312 L 289.59375 395.019531 L 289.964844 394.941406 L 290.09375 394.8125 L 290.277344 394.8125 L 291.023438 394.582031 L 291.078125 394.457031 L 290.710938 393.089844 L 288.046875 391.035156 L 286.554688 390.917969 L 286.246094 391.28125 L 286.417969 391.472656 L 286.738281 391.472656 L 286.292969 391.710938 L 287.902344 392.464844 L 288.039062 392.773438 L 288.347656 392.898438 L 288.902344 393.390625 L 288.53125 393.636719 L 288.039062 393.089844 L 287.664062 392.964844 L 287.664062 393.390625 L 287.410156 393.335938 L 287.410156 392.78125 L 287.171875 392.644531 L 287.109375 392.472656 L 286.671875 392.535156 L 286.417969 392.289062 L 286.179688 392.289062 L 285.691406 391.84375 L 285.808594 391.71875 L 285.371094 391.480469 L 285.207031 391.757812 L 284.714844 391.757812 L 284.332031 391.882812 L 283.839844 391.882812 L 284.332031 391.457031 L 284.714844 391.390625 L 284.832031 391.320312 L 284.96875 391.136719 L 284.832031 390.765625 L 284.832031 390.328125 L 284.59375 390.019531 L 284.277344 390.019531 L 284.277344 389.957031 L 284.65625 389.902344 L 284.894531 389.648438 L 284.46875 389.582031 L 285.386719 388.773438 L 286.015625 388.957031 L 286.570312 388.402344 L 286.753906 387.964844 L 286.871094 387.902344 L 286.753906 387.589844 L 286.753906 387.34375 L 286.371094 387.035156 L 286.007812 387.035156 L 285.816406 386.855469 L 286.132812 386.480469 L 286.007812 386.355469 L 285.699219 383.996094 L 286.007812 383.996094 L 286.253906 383.757812 L 286.253906 383.324219 L 285.9375 383.011719 L 285.808594 383.140625 L 284.578125 383.140625 L 284.578125 382.832031 L 285.132812 382.648438 L 285.132812 382.457031 L 285.445312 382.339844 L 286.125 382.648438 L 286.363281 382.394531 L 287.054688 383.148438 L 287.355469 383.210938 L 287.976562 383.894531 L 287.671875 383.894531 L 287.355469 383.648438 L 286.992188 383.585938 L 286.992188 383.710938 L 287.546875 384.203125 L 287.910156 384.203125 L 287.976562 384.265625 L 287.800781 384.449219 L 287.976562 384.503906 L 288.164062 384.695312 L 288.164062 384.878906 L 287.792969 385.125 L 288.347656 385.617188 L 288.957031 385.796875 L 288.957031 386.480469 L 289.148438 386.789062 L 289.085938 386.972656 L 289.269531 387.527344 L 289.203125 387.710938 L 289.507812 388.019531 L 290.132812 388.148438 L 290.132812 389.011719 L 290.316406 389.394531 L 290.316406 389.941406 L 290.625 389.882812 L 290.625 389.328125 L 290.441406 389.140625 L 290.261719 388.648438 L 290.441406 388.464844 L 290.816406 388.710938 L 291.1875 388.773438 L 291.5625 388.648438 L 291.6875 388.773438 L 291.6875 389.082031 L 292 389.402344 L 292.0625 389.949219 L 291.878906 390.128906 L 291.507812 390.195312 L 291.195312 390.449219 L 291.324219 390.503906 L 292.378906 390.628906 L 292.441406 390.882812 L 292.75 390.882812 L 292.6875 390.695312 L 292.75 390.394531 L 292.933594 390.203125 L 293.425781 390.636719 L 293.609375 390.703125 L 293.917969 390.703125 L 294.363281 391.074219 L 294.917969 391.074219 L 295.15625 391.265625 L 295.59375 391.265625 L 296.027344 391.449219 L 296.648438 391.449219 L 297.203125 390.957031 L 298.695312 390.890625 L 299.011719 390.457031 L 299.011719 390.074219 L 299.386719 389.082031 L 299.386719 386.972656 L 299.195312 386.480469 L 299.320312 386.355469 L 299.703125 386.355469 L 299.203125 384.988281 L 298.148438 383.816406 L 297.972656 383.132812 L 298.101562 382.941406 L 298.464844 382.886719 L 298.535156 382.703125 L 297.855469 382.085938 L 297.855469 381.59375 L 297.164062 380.417969 L 297.109375 380.539062 L 297.109375 381.027344 L 296.925781 381.15625 L 297.171875 381.332031 L 297.171875 381.957031 L 296.863281 381.886719 L 296.679688 382.078125 L 297.117188 382.441406 L 296.996094 382.578125 L 297.0625 382.886719 L 296.503906 382.941406 L 296.25 383.132812 L 295.996094 383.203125 L 295.808594 383.640625 L 295.371094 383.640625 L 295.0625 383.332031 L 295.0625 382.949219 L 295.554688 382.832031 L 295.863281 382.519531 L 295.679688 382.519531 L 295.742188 382.339844 L 295.679688 382.09375 L 296.171875 381.839844 L 295.800781 381.839844 L 295.488281 381.601562 L 295.179688 381.601562 L 294.996094 381.347656 L 294.886719 380.902344 L 294.632812 380.726562 L 294.195312 380.726562 L 293.515625 380.285156 L 293.449219 380.417969 L 293.449219 380.847656 L 293.203125 380.847656 L 293.203125 380.609375 L 292.839844 380.546875 L 289.484375 382.15625 L 289.355469 382.457031 L 288.609375 382.394531 L 288.238281 381.839844 L 288.054688 382.027344 L 287.363281 381.839844 L 287.425781 381.402344 L 287.617188 381.101562 L 288.476562 380.609375 L 288.476562 380.425781 L 288.355469 380.292969 L 287.800781 380.171875 L 287.054688 380.234375 L 286.808594 379.734375 L 285.808594 378.996094 L 285.207031 378.996094 L 285.078125 378.679688 L 286.0625 378.679688 L 287.984375 379.363281 L 290.03125 378.679688 L 289.976562 378.378906 L 290.53125 378.007812 L 290.585938 377.878906 L 290.15625 377.6875 L 290.464844 377.015625 L 290.464844 376.761719 L 290.402344 376.578125 L 289.53125 376.523438 L 288.976562 376.269531 L 288.671875 376.269531 L 288.671875 375.964844 L 290.222656 376.085938 L 290.347656 375.910156 L 289.730469 375.910156 L 289.664062 375.722656 L 289.910156 375.484375 L 291.148438 375.484375 L 291.457031 375.65625 L 291.523438 375.910156 L 291.703125 376.148438 L 292.132812 376.277344 L 292.132812 376.0625 L 292.324219 375.886719 L 291.949219 375.507812 L 292.570312 374.957031 L 292.824219 374.339844 L 292.824219 373.839844 L 292.632812 373.277344 L 292.878906 372.65625 L 292.878906 372.476562 L 292.386719 372.539062 L 292.941406 372.046875 L 292.386719 370.371094 L 292.632812 369.445312 L 293.5625 368.207031 L 293.808594 367.453125 L 294.179688 367.390625 L 294.988281 367.644531 L 294.988281 367.945312 L 294.679688 368.386719 L 294.742188 368.878906 L 294.378906 368.945312 L 294.308594 368.761719 L 293.816406 368.945312 L 293.75 369.625 L 294.125 370.117188 L 294.308594 370.117188 L 294.433594 369.871094 L 294.617188 369.691406 L 295.609375 369.753906 L 295.734375 369.625 L 295.925781 369.132812 L 296.226562 368.824219 L 297.042969 368.761719 L 297.21875 368.886719 L 297.042969 369.070312 L 297.042969 369.316406 L 296.855469 369.492188 L 297.410156 370.046875 L 297.71875 370.046875 L 297.855469 369.992188 L 297.980469 369.683594 L 297.910156 369.191406 L 298.042969 368.5 L 299.210938 366.652344 L 299.59375 366.398438 L 299.527344 365.230469 L 300.328125 364.292969 L 299.164062 363.429688 L 298.972656 363 L 298.609375 362.808594 L 298.417969 362.636719 L 296.441406 362.882812 L 296.125 363.183594 L 295.132812 363.246094 L 293.832031 362.636719 L 293.585938 362.636719 L 293.347656 362.191406 L 293.347656 361.859375 L 293.140625 361.738281 L 292.839844 362.054688 L 292.394531 362.230469 L 292.210938 362.414062 L 292.277344 362.605469 L 292.09375 363.46875 L 291.910156 362.90625 L 292.039062 362.160156 L 293.277344 360.859375 L 293.210938 360.492188 L 292.285156 359.804688 L 292.039062 359.875 L 291.664062 359.738281 L 292.59375 359.675781 L 292.777344 359.804688 L 293.140625 359.390625 L 293.015625 358.835938 L 292.640625 358.582031 L 292.515625 358.144531 L 292.269531 357.84375 L 292.515625 354.050781 L 293.007812 353.867188 L 294.242188 350.210938 L 294.988281 349.652344 L 294.808594 345.550781 L 295.054688 345.113281 L 293.6875 343.886719 L 293.5625 342.511719 L 293.808594 341.394531 L 294.488281 340.710938 L 294.871094 340.574219 L 295.609375 339.773438 L 295.480469 339.519531 L 294.308594 339.902344 L 292.386719 341.820312 L 291.703125 342.132812 L 291.457031 342.441406 L 288.546875 342.75 L 284.199219 349.820312 L 282.652344 350.949219 L 280.355469 351.566406 L 278.4375 351.128906 L 277.070312 351.621094 L 276.828125 351.996094 L 274.660156 352.242188 L 274.105469 352.058594 L 273.421875 352.613281 L 273.175781 352.980469 L 273.113281 353.296875 L 269.953125 358.074219 L 269.882812 359.382812 L 270.199219 359.746094 L 270.320312 359.746094 L 270.199219 358.574219 L 270.875 359.128906 L 270.875 360.058594 L 272.367188 361.046875 L 272.484375 361.292969 L 272.867188 361.605469 L 273.113281 362.222656 L 273.542969 362.097656 L 273.796875 361.921875 L 273.859375 361.359375 L 273.675781 361.175781 L 273.542969 360.804688 L 273.542969 360.4375 L 273.421875 360.4375 L 272.976562 360.675781 L 272.859375 360.613281 L 273.230469 360.238281 L 272.859375 359.9375 L 272.796875 359.066406 L 272.667969 358.828125 L 272.796875 358.636719 L 272.796875 358.199219 L 272.96875 358.019531 L 273.160156 357.953125 L 273.289062 357.644531 L 273.523438 357.398438 L 273.90625 357.214844 L 274.089844 356.96875 L 274.089844 356.796875 L 274.269531 356.414062 L 274.015625 356.230469 L 274.707031 355.304688 L 275.699219 355.242188 L 276.191406 354.550781 L 276.191406 354.25 L 276.5 354.496094 L 276.746094 354.25 L 276.746094 353.875 L 277.054688 354.058594 L 277.183594 354.304688 L 277.492188 354.304688 L 277.738281 354.058594 L 278.867188 353.988281 L 279.476562 353.496094 L 279.292969 353.191406 L 278.800781 352.757812 L 278.675781 352.136719 L 278.921875 352.574219 L 279.476562 352.9375 L 279.785156 353.382812 L 280.09375 353.503906 L 280.160156 353.820312 L 280.839844 354.3125 L 281.214844 354.4375 L 281.46875 353.996094 L 282.824219 353.445312 L 283.015625 353.445312 L 283.445312 353.199219 L 283.9375 353.136719 L 283.9375 353.445312 L 284.691406 353.199219 L 284.808594 353.011719 L 285.863281 353.011719 L 286.855469 352.582031 L 287.046875 352.398438 L 287.292969 352.398438 L 287.664062 352.527344 L 288.410156 353.082031 L 288.164062 353.082031 L 287.792969 353.210938 L 287.546875 353.390625 L 285.929688 353.390625 L 285.625 353.699219 L 285.5 354.257812 L 285.207031 354.359375 L 285.015625 354.535156 L 284.960938 354.789062 L 284.648438 355.027344 L 284.714844 355.40625 L 284.332031 355.035156 L 284.332031 354.859375 L 284.585938 354.613281 L 284.585938 354.304688 L 283.414062 354.058594 L 281.554688 354.367188 L 281.054688 355.042969 L 281 355.230469 L 280.445312 355.667969 L 280.253906 356.414062 L 280.808594 356.90625 L 280.808594 357.289062 L 280.507812 357.460938 L 280.507812 358.082031 L 280.628906 358.453125 L 280.753906 358.453125 L 281.128906 358.761719 L 281.191406 359.007812 L 281.128906 359.390625 L 280.515625 360.066406 L 280.382812 360.382812 L 280.382812 360.683594 L 280.691406 360.3125 L 281.128906 360.066406 L 281.746094 360.066406 L 281.871094 360.191406 L 281.9375 361.367188 L 281.628906 361.992188 L 281.628906 362.359375 L 282.070312 362.546875 L 282.625 362.546875 L 282.625 362.859375 L 282.308594 362.859375 L 281.871094 363.039062 L 281.691406 363.039062 L 281.515625 362.90625 L 281.382812 362.722656 L 281.382812 362.046875 L 281.570312 361.554688 L 281.316406 361.300781 L 281.191406 361.367188 L 280.953125 361.613281 L 280.136719 361.675781 L 279.578125 362.230469 L 279.492188 362.730469 L 279.183594 362.730469 L 279.183594 362.292969 L 278.882812 362.113281 L 279.246094 361.5625 L 279.183594 361.375 L 279.621094 361.007812 L 279.800781 360.628906 L 279.800781 360.191406 L 280.046875 359.953125 L 279.738281 358.769531 L 279.554688 358.589844 L 279.492188 358.351562 L 279.183594 358.035156 L 278.5625 358.214844 L 277.945312 358.035156 L 276.890625 359.269531 L 276.707031 359.707031 L 277.261719 359.835938 L 277.445312 360.015625 L 276.207031 360.398438 L 275.652344 361.453125 L 275.160156 361.628906 L 274.96875 361.628906 L 275.089844 362.4375 L 275.277344 362.746094 L 275.523438 362.929688 L 275.652344 363.929688 L 275.34375 364.160156 L 274.222656 363.914062 L 274.660156 364.097656 L 274.351562 364.097656 L 274.03125 363.839844 L 274.03125 363.40625 L 273.730469 363.105469 L 273.667969 362.914062 L 273.730469 362.613281 L 273.476562 362.613281 L 273.304688 362.859375 L 272.984375 362.859375 L 271.929688 362.414062 L 270.9375 362.414062 L 270.8125 362.660156 L 270.636719 362.660156 L 270.566406 362.222656 L 269.953125 361.730469 L 270.082031 361.605469 L 269.644531 361.484375 L 269.582031 361.167969 L 269.707031 361.039062 L 269.644531 360.175781 L 269.089844 361.039062 L 269.019531 361.851562 L 268.707031 362.40625 L 268.652344 365.699219 L 268.890625 365.816406 L 268.890625 365.382812 L 269.082031 365.144531 L 269.820312 365.699219 L 269.328125 365.761719 L 269.152344 365.945312 L 270.644531 367.246094 L 270.707031 367.363281 L 270.214844 367.863281 L 270.152344 367.683594 L 270.152344 367.363281 L 269.527344 367.429688 L 269.28125 367.191406 L 268.789062 366.9375 L 268.722656 373.339844 L 269.035156 373.578125 L 269.167969 373.394531 L 268.851562 371.410156 L 270.589844 372.402344 L 270.960938 372.894531 L 271.035156 373.707031 L 271.214844 374.078125 L 271.652344 374.449219 L 271.714844 374.894531 L 271.589844 375.261719 L 270.460938 376.441406 L 269.90625 376.746094 L 269.667969 376.746094 L 269.730469 376.1875 L 269.484375 376.015625 L 269.242188 374.148438 L 269.359375 379.425781 L 269.242188 379.855469 L 268.742188 380.417969 L 268.804688 381.535156 L 268.367188 381.972656 L 268.742188 382.28125 L 269.242188 382.28125 L 270.96875 383.773438 L 271.160156 383.527344 L 270.84375 382.910156 L 269.851562 382.101562 L 270.296875 381.609375 L 271.105469 381.546875 L 270.914062 381.726562 L 271.167969 382.035156 L 271.167969 382.464844 L 273.214844 383.902344 L 273.398438 383.902344 L 273.835938 384.273438 L 274.269531 384.273438 L 274.644531 384.957031 L 274.890625 387.933594 L 275.261719 388.796875 L 274.828125 392.589844 L 275.261719 392.964844 L 275.261719 395.804688 L 276.683594 397.121094 L 277.382812 398.613281 L 277.929688 399.167969 L 277.929688 400.535156 L 276.9375 401.589844 L 275.628906 401.589844 L 274.769531 403.445312 L 276.320312 403.445312 L 276.320312 405.558594 L 277.183594 406.238281 L 278.359375 406.238281 L 277.867188 407.785156 L 277.046875 407.785156 L 277.046875 408.597656 L 277.605469 409.523438 L 278.777344 410.390625 L 276.175781 410.390625 L 275.683594 409.953125 L 274.320312 409.769531 L 274.320312 410.390625 L 273.199219 411.199219 L 273.566406 416.96875 L 272.398438 414.738281 L 271.460938 413.871094 L 270.597656 413.871094 L 270.597656 416.246094 L 271.222656 416.847656 L 270.230469 416.976562 L 268.921875 415.800781 L 269.050781 414.253906 L 268.621094 412.824219 L 268.128906 412.390625 L 260.6875 413.007812 L 259.511719 414.0625 L 259.511719 415.054688 L 258.648438 415.863281 L 259.074219 417.410156 L 259.628906 417.96875 L 260.503906 417.96875 L 261.3125 418.714844 L 260.011719 419.269531 L 259.265625 418.714844 L 258.828125 418.777344 L 258.703125 418.59375 L 258.328125 418.53125 L 258.164062 418.117188 L 258.027344 417.992188 L 257.964844 417.824219 L 256.671875 417.371094 L 256.671875 417.308594 L 256.355469 417.125 L 256.355469 416.945312 L 256.050781 416.015625 L 256.234375 415.769531 L 255.742188 415.523438 L 255.679688 415.394531 L 255.296875 415.394531 L 254.996094 415.269531 L 254.070312 415.394531 L 253.632812 415.640625 L 251.464844 415.886719 L 250.773438 416.214844 L 250.648438 416.445312 L 250.339844 416.214844 L 250.210938 416.015625 L 249.59375 416.015625 L 249.59375 416.261719 L 249.65625 416.261719 L 249.59375 416.324219 L 249.464844 416.324219 L 249.410156 416.386719 L 249.339844 416.515625 L 249.464844 416.578125 L 249.710938 416.578125 L 249.839844 416.707031 L 249.65625 416.886719 L 249.71875 416.777344 L 249.71875 416.699219 L 249.285156 416.699219 L 249.21875 416.570312 L 249.21875 416.261719 L 249.410156 416.132812 L 247.480469 416.132812 L 243.695312 417.433594 L 241.648438 418.984375 L 241.332031 420.15625 L 241.085938 420.53125 L 241.222656 420.777344 L 241.222656 420.917969 L 241.039062 420.917969 L 241.039062 421.03125 L 241.222656 421.539062 L 241.339844 421.648438 L 241.285156 421.832031 L 241.402344 422.53125 L 241.230469 423.085938 L 241.347656 423.332031 L 240.976562 423.378906 L 240.675781 423.640625 L 241.230469 424.132812 L 241.601562 424.179688 L 241.730469 424.132812 L 241.902344 424.132812 L 242.460938 424.425781 L 242.902344 424.425781 L 243.023438 424.300781 L 243.648438 424.132812 L 243.777344 424.242188 L 243.777344 424.386719 L 244.148438 424.386719 L 244.332031 424.511719 L 244.015625 424.511719 L 243.777344 424.640625 L 243.148438 425.503906 L 243.015625 426.933594 L 243.085938 427.179688 L 243.578125 427.796875 L 245.253906 427.910156 L 246.246094 427.617188 L 246.492188 427.617188 L 246.734375 427.488281 L 246.863281 427.308594 L 247.234375 427.308594 L 247.363281 427.488281 L 245.507812 427.980469 L 245.378906 428.402344 L 245.554688 428.726562 L 245.617188 429.65625 L 245.0625 430.648438 L 244.449219 430.957031 L 244.140625 431.328125 L 243.832031 431.511719 L 243.277344 431.640625 L 242.523438 432.132812 L 242.460938 432.3125 L 242.460938 432.496094 L 242.03125 432.988281 L 241.722656 433.117188 L 241.402344 433.117188 L 241.039062 433.242188 L 240.792969 433.242188 L 240.738281 433.195312 L 240.554688 433.132812 L 240.300781 432.820312 L 240 432.820312 L 239.5 432.386719 L 238.507812 432.386719 L 237.824219 431.949219 L 237.332031 431.949219 L 237.332031 431.574219 L 236.714844 431.449219 L 236.40625 431.140625 L 237.269531 431.074219 L 237.953125 430.210938 L 237.585938 430.085938 L 237.523438 429.902344 L 237.523438 429.65625 L 237.585938 429.457031 L 237.761719 429.347656 L 237.761719 429.101562 L 237.585938 428.917969 L 237.585938 428.296875 L 237.269531 427.988281 L 237.207031 427.554688 L 237.390625 427.242188 L 238.699219 427.488281 L 239.070312 427.242188 L 239.308594 427.242188 L 239.492188 427.117188 L 239.492188 426.855469 L 239.683594 426.6875 L 239.921875 426.6875 L 240.175781 426.300781 L 240.175781 426.070312 L 239.617188 425.578125 L 238.800781 425.703125 L 238.492188 425.949219 L 238.363281 425.808594 L 238.238281 424.085938 L 237.800781 423.261719 L 237.929688 422.964844 L 237.246094 422.640625 L 236.382812 423.339844 L 236.382812 423.464844 L 236.515625 423.839844 L 236.070312 423.695312 L 235.761719 423.386719 L 235.578125 423.386719 L 235.207031 422.964844 L 235.523438 422.410156 L 234.898438 422.285156 L 234.46875 422.464844 L 232.722656 429.410156 L 233.40625 429.71875 L 232.785156 429.65625 L 232.539062 429.839844 L 230.554688 433.625 L 228.082031 436.097656 L 228.082031 436.34375 L 227.707031 436.65625 L 228.261719 437.335938 L 228.5 437.335938 L 229.253906 437.890625 L 228.566406 437.890625 L 228.136719 437.457031 L 227.835938 437.457031 L 227.214844 436.835938 L 226.84375 436.835938 L 226.660156 436.964844 L 226.722656 438.390625 L 227.027344 438.703125 L 227.214844 438.703125 L 227.953125 439.257812 L 228.207031 439.257812 L 229.066406 440.066406 L 229.507812 440.066406 L 229.820312 440.375 L 231.308594 440.996094 L 232.238281 440.996094 L 233.046875 440.3125 L 233.222656 440.496094 L 233.414062 440.496094 L 233.539062 440.558594 L 233.785156 440.558594 L 234.03125 440.375 L 234.09375 440.4375 L 234.339844 440.257812 L 234.652344 440.257812 L 234.652344 440.4375 L 235.023438 440.503906 L 235.023438 440.875 L 234.839844 441.003906 L 234.222656 441.003906 L 234.09375 440.875 L 233.722656 440.875 L 233.539062 441.058594 L 233.105469 441.058594 L 232.921875 440.996094 L 232.429688 441.058594 L 231.746094 441.496094 L 231.375 441.496094 L 230.9375 441.058594 L 229.199219 440.8125 L 228.335938 440.066406 L 228.335938 439.941406 L 228.152344 439.875 L 227.460938 439.257812 L 227.097656 439.257812 L 226.851562 438.949219 L 226.667969 438.949219 L 226.414062 438.703125 L 226.238281 438.828125 L 225.804688 438.828125 L 225.675781 438.957031 L 225.238281 438.957031 L 224.921875 439.203125 L 224.921875 439.636719 L 225.175781 439.636719 L 225.414062 439.390625 L 225.667969 439.457031 L 226.160156 439.390625 L 226.460938 439.765625 L 226.460938 440.136719 L 226.652344 440.320312 L 226.78125 440.566406 L 226.953125 440.75 L 227.507812 440.75 L 227.828125 441.058594 L 228 441.058594 L 228.558594 441.496094 L 229.621094 441.496094 L 229.992188 441.183594 L 230.113281 441.367188 L 229.820312 441.683594 L 229.382812 441.867188 L 229.253906 441.996094 L 227.945312 441.929688 L 227.769531 441.75 L 227.335938 441.75 L 227.335938 441.875 L 227.644531 442.183594 L 227.890625 442.183594 L 228.007812 442.3125 L 228.199219 442.3125 L 228.199219 442.683594 L 228.007812 442.558594 L 227.890625 442.375 L 227.335938 442.375 L 227.144531 442.191406 L 226.960938 442.191406 L 226.722656 442.320312 L 226.597656 442.445312 L 226.222656 442.382812 L 226.042969 442.566406 L 226.535156 443.058594 L 226.660156 443.367188 L 226.960938 443.613281 L 227.652344 443.613281 L 227.898438 443.859375 L 228.269531 443.859375 L 228.453125 443.921875 L 228.761719 443.921875 L 229.066406 444.167969 L 229.066406 444.605469 L 228.828125 444.789062 L 228.761719 444.914062 L 227.335938 444.851562 L 225.898438 443.488281 L 225.460938 443.488281 L 225.160156 443.175781 L 223.550781 443.175781 L 223.167969 443.421875 L 222.488281 442.804688 L 222.558594 442.558594 L 223.113281 443.113281 L 223.289062 443.113281 L 223.46875 442.988281 L 224.714844 443.050781 L 225.089844 442.742188 L 225.089844 442.558594 L 224.773438 442.25 L 222.914062 442.183594 L 222.667969 442.367188 L 222.234375 442.367188 L 222.058594 442.183594 L 221.675781 442.183594 L 221.558594 442.3125 L 221.175781 442.4375 L 220.742188 442.8125 L 220.4375 442.875 L 220.367188 443.121094 L 220.613281 443.367188 L 220.613281 443.550781 L 221.550781 444.542969 L 222.40625 444.605469 L 222.78125 444.296875 L 222.78125 444.605469 L 223.273438 445.175781 L 223.589844 445.175781 L 224.144531 445.40625 L 224.882812 445.28125 L 225.011719 445.167969 L 225.082031 444.78125 L 225.320312 444.535156 L 225.566406 444.597656 L 225.8125 444.535156 L 226.058594 444.714844 L 226.191406 444.898438 L 226.429688 444.898438 L 226.867188 445.273438 L 228.113281 445.335938 L 228.421875 445.660156 L 228.238281 445.773438 L 228.113281 446.082031 L 228.113281 445.835938 L 227.835938 445.835938 L 227.707031 445.960938 L 227.273438 445.960938 L 227.136719 446.089844 L 226.953125 445.90625 L 226.835938 445.84375 L 226.589844 445.84375 L 226.089844 445.289062 L 225.46875 445.351562 L 225.46875 445.84375 L 224.914062 445.96875 L 224.675781 446.152344 L 223.988281 446.152344 L 223.804688 445.96875 L 223.367188 445.96875 L 223.128906 446.152344 L 222.3125 445.46875 L 221.628906 445.46875 L 221.191406 445.035156 L 220.949219 445.035156 L 220.390625 445.28125 L 220.019531 445.214844 L 219.152344 445.707031 L 217.417969 445.707031 L 216.796875 446.265625 L 215.933594 446.265625 L 212.820312 448.269531 L 210.65625 448.4375 L 209.902344 449.246094 L 203.515625 449.882812 L 201.902344 450.730469 L 195.878906 451.039062 L 192.601562 453.769531 L 192.285156 457.863281 L 191.355469 458.871094 L 191.355469 461.476562 L 192.785156 462.902344 L 188.753906 466.933594 L 184.660156 466.933594 L 181.683594 468.609375 L 180.3125 468.609375 L 175.660156 471.894531 L 175.660156 473.257812 L 176.472656 474.070312 L 178.089844 474.070312 L 178.089844 475.433594 L 176.160156 475.433594 L 174.988281 476.679688 L 161.457031 476.789062 L 159.910156 475.296875 L 158.425781 471.886719 L 151.347656 471.886719 L 151.839844 475.417969 L 153.507812 477.089844 L 153.507812 480.949219 L 155.316406 482.671875 L 155.316406 485.273438 L 156.433594 486.464844 L 155.316406 487.636719 L 146.9375 487.765625 L 145.699219 486.527344 L 143.96875 487.207031 L 142.714844 488.445312 L 137.636719 483.921875 L 135.789062 483.921875 L 133.976562 485.726562 L 132.742188 484.488281 L 130.820312 486.40625 L 121.273438 486.71875 L 117.855469 489.566406 L 117.855469 491.613281 L 121.273438 491.613281 L 121.019531 496.015625 L 119.664062 496.015625 L 119.664062 497.382812 L 121.574219 497.382812 L 123.75 498.746094 L 123.75 500.421875 L 130.820312 500.421875 L 133.296875 502.839844 L 136.027344 502.839844 L 137.398438 505.316406 L 144.777344 505.316406 L 145.898438 508.355469 L 148.871094 508.046875 L 150.800781 508.601562 L 148.632812 510.847656 L 148.871094 513.578125 L 153.523438 520.148438 L 158.980469 521.757812 L 160.472656 523.304688 L 158.734375 526.464844 L 160.59375 532.480469 L 164.558594 536.445312 L 164.695312 540.414062 L 163.324219 539.050781 L 162.265625 536.011719 L 161.039062 534.773438 L 159.226562 534.773438 L 157.617188 555.800781 L 156.5 556.855469 L 156.808594 560.15625 L 152.09375 566.417969 L 143.90625 566.417969 L 142.605469 565.132812 L 140.675781 564.371094 L 139.253906 564.371094 L 137.398438 565.917969 L 133.859375 565.542969 L 132.183594 563.871094 L 90.003906 563.070312 L 85.480469 559.910156 L 79.902344 560.15625 L 77.851562 561.273438 L 77.851562 564.574219 L 76.609375 565.371094 L 67.988281 566.917969 L 64.886719 570.449219 L 64.886719 571.265625 L 66.5 573.167969 L 68.664062 574.421875 L 69.21875 575.542969 L 69.464844 588 L 68.65625 588.808594 L 69.09375 590.046875 L 69.09375 591.414062 L 70.03125 594.03125 L 70.03125 596.808594 L 70.765625 597.554688 L 71.386719 601.71875 L 70.386719 602.777344 L 70.457031 605.816406 L 69.648438 608.171875 L 69.648438 611.210938 L 67.664062 613.195312 L 67.417969 617.34375 L 65.878906 618.957031 L 65.386719 620.257812 L 63.714844 621.929688 L 63.777344 623.105469 L 62.96875 623.914062 L 62.285156 629.699219 L 62.96875 630.382812 L 62.96875 631.375 L 64.695312 631.621094 L 67.863281 628.445312 L 67.863281 629.582031 L 65.386719 632.867188 L 65.386719 634.539062 L 69.910156 634.785156 L 70.347656 634.347656 L 69.480469 635.199219 L 70.347656 636.023438 L 69.480469 637.945312 L 69.234375 646.433594 L 69.917969 648.355469 L 69.917969 649.847656 L 67.800781 651.957031 L 68.292969 654.25 L 68.792969 653.695312 L 73.996094 653.140625 L 77.289062 654.257812 L 81.628906 654.257812 L 82.1875 653.703125 L 85.097656 652.210938 L 85.472656 651.09375 L 92.175781 651.09375 L 95.460938 654.378906 L 97.9375 655.074219 L 98.746094 655.871094 L 98.746094 658.910156 L 99.300781 660.144531 L 100.113281 660.957031 L 101.167969 664.8125 L 104.214844 667.167969 L 105.578125 667.296875 L 106.386719 668.105469 L 107.878906 668.105469 L 109.554688 667.421875 L 111.472656 665.375 L 111.472656 663.867188 L 114.015625 662.320312 L 118.789062 662.195312 L 120.601562 659.71875 L 121.28125 659.71875 L 121.957031 659.035156 L 127.980469 659.035156 L 129.335938 658.464844 L 135.476562 658.105469 L 136.296875 658.902344 L 139.453125 658.902344 L 141.5 659.582031 L 143.546875 657.535156 L 144.359375 657.535156 L 147.585938 658.589844 L 150.808594 655.371094 L 151.738281 651.21875 L 156.824219 647.6875 L 161.046875 647.6875 L 162.59375 647.132812 L 162.59375 646.253906 L 164.703125 644.085938 L 166.3125 638.691406 L 170.902344 633.652344 L 171.957031 633.652344 L 175.242188 631.183594 L 170.71875 625.460938 L 170.34375 624.34375 L 171.144531 617.21875 L 180.152344 606.125 L 183.683594 604.125 L 182.875 603.394531 L 182.875 601.164062 L 184.484375 600.300781 L 185.605469 599.109375 L 191.246094 597.0625 L 192.855469 597.0625 L 193.539062 596.316406 L 194.902344 596.316406 L 197.761719 593.46875 L 199.371094 593.46875 L 201.046875 591.730469 L 201.480469 590.609375 L 201.546875 587.699219 L 202.539062 586.644531 L 202.539062 585.277344 L 203.21875 584.597656 L 203.21875 579.511719 L 202.71875 579.265625 L 202.792969 575.980469 L 202.546875 575.167969 L 203.355469 571.742188 L 205.773438 569.335938 L 207.265625 568.574219 L 209.3125 568.449219 L 215.636719 564.480469 L 217.074219 564.609375 L 217.074219 565.355469 L 217.390625 565.789062 L 217.449219 566.179688 L 219.921875 566.117188 L 220.359375 566.34375 L 221.789062 566.410156 L 222.28125 566.902344 L 223.027344 567.164062 L 223.890625 567.957031 L 224.519531 567.957031 L 224.882812 567.664062 L 228.042969 567.171875 L 228.421875 566.289062 L 228.730469 565.980469 L 229.097656 565.980469 L 230.46875 566.84375 L 230.46875 567.171875 L 230.058594 567.535156 L 228.453125 567.734375 L 228.453125 568.402344 L 232.046875 568.894531 L 232.292969 569.140625 L 232.292969 569.449219 L 232.667969 570.148438 L 232.539062 570.390625 L 233.214844 570.6875 L 233.53125 570.6875 L 235.523438 571.449219 L 236.382812 571.449219 L 236.570312 572.050781 L 238.792969 572.933594 L 239.230469 572.75 L 241.65625 572.996094 L 241.894531 573.160156 L 242.515625 572.679688 L 247.972656 571.8125 L 248.53125 569.941406 L 249.402344 568.886719 L 252.1875 567.226562 L 252.503906 566.671875 L 252.878906 566.34375 L 253.425781 566.28125 L 253.863281 565.84375 L 255.234375 565.226562 L 255.234375 564.855469 L 256.101562 564.058594 L 257.648438 563.980469 L 258.503906 563.117188 L 260.621094 563.242188 L 261.179688 562.6875 L 266.882812 560.832031 L 267.9375 558.472656 L 271.230469 556.054688 L 271.230469 554.441406 L 275.066406 550.601562 L 279.722656 550.601562 L 283.015625 553.023438 L 286.800781 553.023438 L 294.734375 557.171875 L 296.417969 564.566406 L 298.832031 567.589844 L 298.832031 570.644531 L 301.871094 573.605469 L 302.363281 574.988281 L 325.0625 593.894531 L 327.855469 593.832031 L 329.96875 595.945312 L 335.308594 595.945312 L 343.925781 604.449219 L 347.335938 604.449219 L 353.480469 612.566406 L 356.773438 614.242188 L 358.375 614.242188 L 360.058594 615.605469 L 360.058594 619.703125 L 363.589844 620.820312 L 363.589844 626.027344 L 365.5 627.945312 L 363.898438 629.574219 L 363.035156 631.738281 L 361.113281 631.738281 L 361.113281 634.53125 L 360.058594 636.953125 L 357.691406 639.308594 L 357.691406 641.109375 L 363.898438 642.164062 L 369.605469 635.09375 L 369.605469 631.746094 L 371.769531 629.582031 L 376.984375 627.660156 L 376.175781 622.191406 L 370.03125 615.996094 L 370.03125 613.148438 L 375 608.125 L 376.738281 608.125 L 378.65625 610.109375 L 383.808594 609.550781 L 386.09375 611.910156 L 386.09375 614.265625 L 390.933594 614.265625 L 391.742188 611.226562 L 391.433594 609.304688 L 373.015625 597.824219 L 372.570312 597.824219 L 361.660156 592.863281 L 363.023438 590.070312 L 365.074219 588.023438 L 363.335938 585.730469 L 349.621094 585.175781 L 347.203125 582.699219 L 341.433594 580.535156 L 338.578125 577.621094 L 337.648438 569.542969 L 331.316406 561.054688 L 328.101562 559.378906 L 326.667969 559.378906 L 319.597656 551.6875 L 319.597656 547.039062 L 321.515625 545.117188 L 321.515625 542.390625 L 320.023438 540.898438 L 319.042969 538.292969 L 317.421875 537.175781 L 320.023438 534.558594 L 321.835938 534.992188 L 323.136719 534.8125 L 325.121094 533.820312 L 325.984375 533.820312 L 325.492188 532.890625 L 326.109375 532.335938 L 329.40625 531.898438 L 330.394531 532.335938 L 331.140625 532.152344 L 331.515625 533.207031 L 332.007812 533.207031 L 332.753906 534.820312 L 334.363281 535.992188 L 334.054688 536.859375 L 334.117188 537.296875 L 334.925781 538.46875 L 334.863281 540.515625 L 339.140625 546.546875 L 340.316406 545.621094 L 340.496094 544.9375 L 340.472656 544.285156 L 340.964844 543.421875 L 341.332031 543.097656 L 342.695312 539.992188 L 342.695312 538.207031 L 343.75 537.769531 L 344.1875 537.769531 L 346.179688 538.761719 L 346.734375 539.628906 L 349.335938 541.597656 L 349.648438 542.476562 L 350.082031 542.96875 L 350.636719 547.863281 L 354.542969 552.953125 L 354.667969 554.933594 L 357.207031 557.164062 L 357.644531 558.03125 L 363.851562 561.75 L 363.96875 563.550781 L 364.53125 564.234375 L 365.960938 564.980469 L 366.398438 564.363281 L 367.890625 563.679688 L 376.378906 565.355469 L 394.1875 577.207031 L 394.679688 578.574219 L 404.414062 588.675781 L 404.414062 591.898438 L 403.796875 593.753906 L 403.796875 598.402344 L 402.621094 601.5625 L 402.621094 607.65625 L 410.566406 614.664062 L 411.054688 616.210938 L 411.921875 617.074219 L 412.851562 620.050781 L 416.453125 623.152344 L 417.945312 622.96875 L 421.285156 623.976562 L 421.839844 624.828125 L 421.539062 625.753906 L 416.890625 624.328125 L 417.945312 626.867188 L 419.238281 628.121094 L 420.421875 631.015625 L 420.484375 631.945312 L 420.976562 632.769531 L 421.832031 633.453125 L 422.523438 633.621094 L 423.332031 633.199219 L 423.460938 632.761719 L 424.632812 634.253906 L 426 634.5 L 426.925781 633.945312 L 428.601562 634.253906 L 429.464844 633.816406 L 430.210938 633.816406 L 430.457031 633.621094 L 432.511719 633.199219 L 440.203125 635.308594 L 445.597656 638.96875 L 445.472656 639.523438 L 444.167969 639.894531 L 442.933594 639.523438 L 442.195312 639.960938 L 442.3125 640.515625 L 442.066406 641.070312 L 441.574219 641.316406 L 437.734375 638.894531 L 437.425781 638.402344 L 433.386719 636.976562 L 432.332031 635.921875 L 430.101562 634.929688 L 428.117188 635.546875 L 427.988281 636.152344 L 427.179688 636.347656 L 426.746094 636.660156 L 425.070312 636.53125 L 424.015625 635.914062 L 423.332031 637.339844 L 422.777344 637.648438 L 422.714844 638.578125 L 422.15625 639.261719 L 420.484375 639.632812 L 420.175781 640.691406 L 422.714844 642.800781 L 422.839844 643.546875 L 424.515625 644.785156 L 426.5625 648.257812 L 426.125 649.75 L 424.886719 650.871094 L 424.640625 651.796875 L 424.703125 652.664062 L 425.261719 653.65625 L 425.878906 654.210938 L 425.941406 654.828125 L 425.695312 655.640625 L 425.941406 656.257812 L 425.761719 657.140625 L 428.734375 657.433594 L 429.109375 656.75 L 428.863281 655.386719 L 428.988281 654.574219 L 429.546875 654.085938 L 430.417969 653.710938 L 431.226562 653.972656 L 431.59375 654.394531 L 431.59375 655.203125 L 434.394531 659.496094 L 433.703125 661.464844 L 434.257812 662.40625 L 435.25 662.898438 L 435.566406 661.597656 L 435.503906 660.851562 L 437.117188 658.058594 L 437.550781 657.796875 L 439.535156 658.1875 L 439.597656 659.613281 L 440.34375 660.589844 L 440.835938 660.671875 L 441.328125 661.398438 L 441.457031 662.019531 L 442.320312 662.511719 L 442.875 663.457031 L 443.320312 663.703125 L 443.933594 663.144531 L 442.441406 659.84375 L 443.1875 657.859375 L 439.34375 647.632812 L 439.71875 646.457031 L 440.527344 646.703125 L 441.957031 647.761719 L 443.128906 648.070312 L 444.121094 649.1875 L 443.820312 650.179688 L 444.121094 650.863281 L 445.667969 650.179688 L 446.160156 649.742188 L 446.535156 649.617188 L 448.144531 649.742188 L 448.636719 649.496094 L 448.882812 648.816406 L 447.582031 647.515625 L 447.40625 646.894531 L 446.851562 647.203125 L 445.726562 647.023438 L 445.234375 646.53125 L 444.058594 643.246094 L 443.066406 642.625 L 443.195312 642.1875 L 447.035156 641.070312 L 450.574219 641.691406 L 452.246094 643.609375 L 452.804688 643.855469 L 454.542969 646.148438 L 455.160156 646.394531 L 455.90625 645.585938 L 456.03125 644.964844 L 455.105469 639.945312 L 455.667969 639.261719 L 455.722656 638.707031 L 455.167969 637.714844 L 453.351562 637.445312 L 447.773438 633.167969 L 447.527344 632.367188 L 447.027344 631.683594 L 445.914062 631.375 L 445.597656 631.539062 L 444.542969 631.246094 L 443.988281 630.320312 L 439.210938 628.382812 L 438.773438 627.761719 L 439.019531 627.269531 L 443.113281 628.152344 L 443.859375 627.953125 L 444.359375 626.667969 L 443.605469 625.414062 L 443.421875 624.421875 L 442.058594 622.929688 L 442.25 622.183594 L 443.480469 621.4375 L 443.660156 621.128906 L 444.40625 621.3125 L 446.082031 622.742188 L 446.335938 623.230469 L 446.953125 623.851562 L 448.257812 624.097656 L 448.066406 623.289062 L 439.320312 610.082031 L 440.867188 608.535156 L 441.050781 606.554688 L 441.734375 605.808594 L 442.414062 605.808594 L 444.027344 604.617188 L 445.835938 608.726562 L 446.953125 609.847656 L 448.011719 609.847656 L 449.003906 611.335938 L 449.003906 612.148438 L 450.984375 614.566406 L 451.605469 613.886719 L 451.605469 612.335938 L 450.921875 611.589844 L 450.921875 610.78125 L 451.476562 610.289062 L 454.828125 613.703125 L 456.191406 613.703125 L 456.9375 612.894531 L 454.644531 610.601562 L 454.152344 609.171875 L 455.082031 608.242188 L 458.183594 611.402344 L 459.355469 610.65625 L 459.355469 609.417969 L 454.769531 604.832031 L 454.945312 602.410156 L 461.40625 602.71875 L 463.453125 600.671875 L 468.101562 600.671875 L 468.546875 600.238281 L 470.957031 600.238281 L 471.394531 599.800781 L 473.871094 601.65625 L 475.609375 601.085938 L 478.773438 601.085938 L 479.949219 602.015625 L 482.296875 602.015625 L 482.296875 603.070312 L 484.351562 600.792969 L 485.472656 596.140625 L 487.21875 595.261719 L 488.328125 593.523438 L 485.851562 588.253906 L 487.398438 586.707031 L 494.214844 584.351562 L 495.589844 584.351562 L 496.453125 585.214844 L 503.222656 585.960938 L 504.078125 585.097656 L 502.84375 582.558594 L 500.730469 580.445312 L 500.046875 578.589844 L 507.246094 564.871094 L 509.476562 565.363281 L 510.53125 564.742188 L 512.515625 550.730469 L 514.808594 548.355469 L 515.117188 547.007812 L 514.808594 545.644531 L 515.925781 544.523438 L 515.925781 542.652344 L 517.292969 542.792969 L 516.988281 544.285156 L 522.632812 543.851562 L 524.125 542.097656 L 523.6875 539.753906 L 524.933594 538.5 L 525.171875 537.707031 L 524.25 534.960938 L 524.25 532.050781 L 525.171875 532.050781 L 528.648438 529.882812 L 530.449219 529.511719 L 533.804688 525.234375 L 534.796875 525.234375 L 537.144531 520.648438 L 538.890625 518.894531 L 545.398438 517.789062 L 547.207031 518.472656 L 549 518.472656 L 550.746094 514.816406 L 551.046875 512.210938 L 548.761719 509.65625 L 549.253906 507.800781 L 549.253906 509.164062 L 552.09375 511.523438 L 552.414062 517.117188 L 553.085938 518.234375 L 556.199219 518.109375 L 557.5625 517.425781 L 559.109375 517.425781 L 557.0625 520.027344 L 551.96875 520.027344 L 551.292969 520.710938 L 551.101562 522.386719 L 550.046875 523.441406 L 571.386719 526.597656 L 572.132812 528.144531 L 571.257812 529.074219 L 569.464844 529.074219 L 559.101562 535.890625 L 560.59375 535.890625 L 569.210938 540.167969 L 570.132812 541.359375 L 569.640625 546.382812 L 568.09375 547.992188 L 570.394531 548.921875 L 571.386719 550.285156 L 575.480469 550.285156 L 581.496094 545.945312 L 582.550781 544.128906 L 587.515625 543.691406 L 591.484375 541.351562 L 591.859375 540.40625 L 594.714844 540.859375 L 596.632812 541.785156 L 600.230469 541.785156 L 603.078125 540.160156 L 604.878906 540.160156 L 606.371094 537.804688 L 606.371094 536.191406 L 602.269531 534.765625 L 600.355469 535.644531 L 595.390625 535.757812 L 593.230469 536.699219 L 591.175781 536.191406 L 585.535156 527.390625 L 585.535156 525.535156 L 587.644531 524.480469 L 589.628906 522.003906 L 593.785156 521.257812 L 597.132812 517.726562 L 604.324219 516.78125 L 605.253906 515.792969 L 609.164062 516.242188 L 625.851562 509.964844 L 626.226562 505.253906 L 627.773438 503.332031 L 630.375 502.214844 L 633.285156 499.484375 L 643.960938 499.113281 L 644.269531 497.375 L 645.445312 496.007812 L 644.570312 489.621094 L 643.460938 488.691406 L 643.394531 487.265625 L 644.945312 484.105469 L 644.070312 481.75 L 646.125 480.320312 L 646.992188 478.320312 L 647.054688 475.902344 Z M 646.179688 473.695312 " fill-opacity="1" fill-rule="evenodd"/><path fill="#7cc133" d="M 237.191406 274.339844 L 240.238281 276.015625 L 241.601562 276.015625 L 239.683594 276.644531 L 236.578125 276.644531 L 234.714844 279.308594 L 258.28125 278.683594 L 261.074219 279.617188 L 262.375 280.921875 L 260.765625 282.59375 L 258.71875 282.59375 L 257.351562 283.707031 L 255.796875 282.15625 L 240.675781 281.539062 L 235.769531 286.308594 L 236.761719 287.308594 L 238.5625 287.308594 L 238.5625 288.179688 L 240.792969 289.109375 L 239.421875 290.402344 L 240.238281 291.21875 L 241.46875 291.839844 L 239.683594 293.703125 L 238 293.703125 L 234.832031 294.757812 L 234.832031 296.488281 L 236.261719 297.917969 L 237.191406 297.042969 L 240.410156 297.042969 L 242.285156 298.972656 L 244.761719 298.226562 L 248.671875 294.132812 L 250.527344 294.132812 L 252.585938 295.371094 L 251.703125 296.179688 L 250.710938 296.179688 L 249.980469 295.433594 L 248.046875 297.425781 L 248.046875 299.027344 L 244.949219 299.910156 L 241.785156 303.066406 L 243.148438 304.359375 L 244.570312 304.988281 L 247.171875 304.988281 L 246.007812 306.167969 L 244.640625 306.167969 L 241.09375 309.765625 L 239.421875 309.765625 L 235.960938 311.375 L 236.578125 311.992188 L 236.578125 313.421875 L 240.046875 313.421875 L 242.722656 312.429688 L 242.285156 310.765625 L 247 310.566406 L 248.855469 308.707031 L 249.601562 309.453125 L 247.617188 311.375 L 247 313.296875 L 248.046875 314.351562 L 246.6875 314.351562 L 245.5625 315.523438 L 244.949219 318.191406 L 247 318.507812 L 247.871094 317.636719 L 249.164062 317.636719 L 246.433594 320.429688 L 243.960938 320.429688 L 241.902344 318.390625 L 241.164062 320.546875 L 239.855469 321.855469 L 239.855469 323.722656 L 243.339844 327.253906 L 244.570312 329.671875 L 247.871094 329.671875 L 247.871094 331.15625 L 250.972656 332.648438 L 252.140625 331.472656 L 254.195312 331.472656 L 254.625 332.148438 L 252.324219 334.640625 L 256.855469 334.640625 L 257.851562 335.6875 L 265.851562 335.6875 L 266.898438 334.640625 L 268.765625 334.257812 L 269.574219 333.449219 L 272.304688 333.449219 L 274.660156 331.09375 L 275.652344 331.09375 L 277.945312 328.738281 L 279.492188 328.738281 L 280.855469 327.433594 L 282.476562 323.777344 L 284.714844 321.546875 L 286.199219 321.546875 L 287.679688 320.0625 L 287.679688 318.253906 L 288.738281 317.261719 L 290.03125 318.570312 L 291.085938 318.570312 L 292.523438 317.144531 L 293.757812 317.144531 L 294.386719 315.523438 L 297.417969 312.429688 L 295.808594 310.765625 L 295.808594 309.144531 L 297.550781 308.273438 L 297.550781 304.914062 L 299.21875 303.1875 L 300.21875 304.1875 L 300.21875 306.40625 L 299.164062 307.460938 L 299.164062 309.636719 L 300.519531 311 L 300.519531 314.914062 L 305.605469 315.898438 L 305.535156 319.867188 L 305.796875 320.0625 L 307.652344 328.871094 L 308.152344 329.671875 L 309.957031 331.15625 L 310.257812 331.839844 L 312.921875 334.140625 L 312.804688 339.289062 L 314.542969 342.449219 L 314.542969 343.566406 L 317.515625 347.480469 L 318.199219 350.703125 L 318.945312 351.867188 L 319.128906 352.921875 L 322.914062 357.582031 L 324.214844 358.144531 L 325.515625 359.390625 L 326.015625 361.675781 L 324.585938 362.914062 L 323.039062 365.890625 L 323.851562 372.65625 L 325.898438 373.648438 L 327.125 375.386719 L 328.5 379.847656 L 330.609375 381.027344 L 333.769531 380.902344 L 334.632812 380.101562 L 342.257812 379.609375 L 342.632812 376.679688 L 343.132812 376.1875 L 343.132812 375.261719 L 341.765625 373.902344 L 342.257812 372.902344 L 343.6875 371.847656 L 343.6875 371.101562 L 344.742188 369.992188 L 347.226562 369.683594 L 349.15625 367.4375 L 350.265625 367.4375 L 351.449219 367.015625 L 358.265625 367.015625 L 358.582031 368.253906 L 360.3125 369.992188 L 361.804688 367.070312 L 362.796875 366.078125 L 363.785156 364.039062 L 364.039062 362.113281 L 366.144531 360.128906 L 366.144531 359.074219 L 368.324219 356.214844 L 368.5 354.296875 L 369.054688 353.742188 L 369.246094 347.480469 L 369.738281 347.480469 L 370.484375 345.859375 L 370.175781 339.78125 L 369.375 338.234375 L 370.792969 338.109375 L 370.792969 333.085938 L 371.785156 331.039062 L 371.101562 329.171875 L 370.792969 328.871094 L 371.785156 327.933594 L 372.09375 327.007812 L 370.863281 325.707031 L 373.894531 325.332031 L 375.878906 323.347656 L 377.5625 323.660156 L 380.285156 322.914062 L 382.332031 320.546875 L 382.148438 319.308594 L 382.457031 319 L 383.269531 319.375 L 384.070312 320.429688 L 384.070312 321.484375 L 390.519531 315.34375 L 388.71875 313.367188 L 388.28125 311.929688 L 389.527344 311.929688 L 389.527344 313.667969 L 391.265625 314.785156 L 393.132812 314.476562 L 392.378906 312.804688 L 390.894531 311.820312 L 390.894531 311.121094 L 393.3125 308.398438 L 395.296875 308.019531 L 398.210938 303.496094 L 395.796875 300.394531 L 394.058594 299.589844 L 390.765625 296.179688 L 390.894531 295.125 L 387.855469 293.757812 L 386.371094 292.210938 L 384.886719 292.210938 L 380.71875 289.226562 L 377.0625 288.671875 L 377.0625 279.4375 L 376.625 278.199219 L 376.691406 271.621094 L 379.109375 268.574219 L 378.671875 267.089844 L 379.664062 266.152344 L 379.664062 264.859375 L 380.847656 263.675781 L 380.847656 261.628906 L 381.71875 260.210938 L 379.917969 259.027344 L 380.53125 255.671875 L 384.195312 255.359375 L 385.308594 254.742188 L 386.054688 249.355469 L 385.441406 247.734375 L 387.488281 249.972656 L 390.328125 249.035156 L 392.074219 246.6875 L 393.75 245.996094 L 394.242188 244.570312 L 395.980469 242.769531 L 399.765625 242.09375 L 406.828125 236.632812 L 407.882812 236.632812 L 409.691406 235.078125 L 411.359375 234.648438 L 413.59375 232.730469 L 417.007812 231.355469 L 418.808594 231.355469 L 418.992188 230.308594 L 420.664062 228.636719 L 420.664062 227.761719 L 428.171875 219.328125 L 428.234375 218.519531 L 427.917969 217.40625 L 425.007812 214.621094 L 424.261719 212.695312 L 424.886719 212.695312 L 425.625 210.957031 L 428.171875 208.78125 L 428.800781 205.617188 L 429.65625 204.75 L 429.902344 203.078125 L 429.53125 202.339844 L 430.410156 201.464844 L 432.265625 201.464844 L 433.625 200.039062 L 433.625 198.855469 L 434.625 197.863281 L 436.171875 197.863281 L 437.597656 197.246094 L 437.597656 196.1875 L 438.402344 194.023438 L 441.703125 194.332031 L 441.703125 193.648438 L 442.804688 192.910156 L 443.613281 192.910156 L 444.542969 193.832031 L 446.152344 194.585938 L 462.96875 193.769531 L 464.699219 195.515625 L 466.199219 195.515625 L 467.125 196.441406 L 468.238281 196.316406 L 470.285156 198.554688 L 472.394531 199.171875 L 472.710938 202.457031 L 472.085938 204.941406 L 472.515625 206.988281 L 473.941406 208.535156 L 473.941406 209.34375 L 473.140625 210.582031 L 472.949219 211.636719 L 467.300781 211.636719 L 466.507812 212.375 L 465.453125 212.875 L 452.613281 226.835938 L 451 227.390625 L 450.3125 228.015625 L 450.191406 229.136719 L 449.257812 230.054688 L 447.960938 229.929688 L 446.152344 230.746094 L 444.367188 234.160156 L 441.441406 234.960938 L 440.574219 234.339844 L 438.402344 236.945312 L 438.402344 240.855469 L 437.726562 241.539062 L 436.171875 242.277344 L 429.292969 242.15625 L 428.300781 243.886719 L 427.742188 247.734375 L 426.125 248.363281 L 424.570312 250.847656 L 424.570312 258.21875 L 425.878906 258.964844 L 425.878906 259.890625 L 426.195312 260.882812 L 426.195312 266.960938 L 427.917969 268.199219 L 429.292969 273.105469 L 428.539062 273.90625 L 428.972656 276.824219 L 428.234375 277.636719 L 428.355469 280.238281 L 427.425781 281.164062 L 426.5 287.007812 L 427.054688 288.980469 L 427.917969 289.910156 L 430.710938 291.21875 L 432.078125 292.640625 L 435.125 292.640625 L 435.734375 293.265625 L 439.949219 294.496094 L 440.574219 295.1875 L 439.828125 297.296875 L 444.542969 296.980469 L 444.542969 297.425781 L 445.097656 297.972656 L 445.167969 298.65625 L 447.828125 301.320312 L 464.207031 300.464844 L 464.207031 299.648438 L 467.0625 297.726562 L 470.664062 297.917969 L 477.664062 294.941406 L 478.535156 295.433594 L 481.511719 295.058594 L 481.8125 294.757812 L 482.941406 294.757812 L 487.160156 292.640625 L 488.828125 293.203125 L 503.03125 292.457031 L 543.597656 254.441406 L 545.953125 248.789062 L 545.953125 247.117188 L 528.15625 233.03125 L 532.128906 230.367188 L 534.480469 226.214844 L 534.605469 224.777344 L 528.335938 219.273438 L 528.335938 216.660156 L 529.082031 215.667969 L 529.082031 214.304688 L 524.742188 211.449219 L 523.441406 208.972656 L 525.371094 206.796875 L 525.371094 205.679688 L 524.742188 204.996094 L 526.109375 196.1875 L 529.703125 195.886719 L 529.703125 192.222656 L 517.425781 172.496094 L 517.480469 171.320312 L 527.097656 158.789062 L 527.71875 157.054688 L 527.664062 156.1875 L 518.417969 147.445312 L 515.753906 146.753906 L 511.847656 142.730469 L 510.722656 140.191406 L 510.722656 138.382812 L 512.960938 136.277344 L 512.648438 131.992188 L 511.902344 131.183594 L 512.777344 129.765625 L 514.261719 129.765625 L 515.253906 127.84375 L 517.980469 127.84375 L 520.78125 125.050781 L 522.011719 122.203125 L 523.625 122.203125 L 524.25 121.574219 L 527.097656 121.574219 L 530.820312 117.050781 L 532.433594 115.996094 L 535.105469 118.042969 L 538.074219 118.164062 L 538.828125 117.417969 L 538.390625 114.757812 L 539.820312 113.332031 L 538.207031 111.65625 L 536.972656 112.894531 L 534.480469 113.511719 L 532.6875 111.464844 L 531.195312 112.894531 L 525.617188 112.894531 L 525.617188 111.339844 L 523.011719 108.800781 L 521.578125 108.800781 L 519.726562 107.125 L 518.109375 106.933594 L 515.007812 105.515625 L 517.679688 104.703125 L 520.347656 105.949219 L 531.011719 105.949219 L 535.105469 102.222656 L 537.144531 102.222656 L 539.621094 101.292969 L 540.738281 101.292969 L 539.191406 99.746094 L 539.191406 97.261719 L 533.1875 96.144531 L 529.386719 93.175781 L 521.148438 93.175781 L 521.402344 91.492188 L 519.964844 90.074219 L 514.195312 89.875 L 511.164062 92.546875 L 511.164062 93.96875 L 508.5 99.746094 L 508.5 98.316406 L 506.753906 97.507812 L 506.753906 95.523438 L 506.007812 94.839844 L 507.253906 93.605469 L 506.625 92.976562 L 504.277344 92.976562 L 504.277344 91.621094 L 507.253906 89.445312 L 510.722656 88.644531 L 509.921875 87.835938 L 509.921875 86.597656 L 508.054688 86.597656 L 508.054688 84.722656 L 505.570312 84.722656 L 504.085938 85.476562 L 500.054688 85.542969 L 498.628906 86.160156 L 497.820312 87.027344 L 497.636719 88.644531 L 498.320312 91.183594 L 495.597656 93.351562 L 494.414062 95.960938 L 494.414062 97.136719 L 493.304688 97.070312 L 492.742188 97.570312 L 491.875 97.070312 L 489.019531 99.117188 L 487.773438 99.117188 L 487.898438 93.914062 L 488.828125 92.976562 L 489.019531 87.398438 L 488.21875 88.515625 L 486.84375 88.515625 L 485.113281 90.320312 L 483.804688 90.191406 L 475.0625 98.753906 L 474.132812 103.53125 L 473.269531 104.460938 L 470.664062 104.585938 L 469.976562 103.832031 L 469.730469 102.15625 L 470.664062 101.164062 L 470.664062 98.617188 L 471.585938 97.699219 L 470.785156 96.644531 L 472.710938 96.144531 L 477.109375 91.492188 L 478.15625 91.492188 L 479.59375 87.835938 L 483.621094 87.898438 L 479.773438 84.050781 L 476.671875 84.050781 L 475.617188 86.097656 L 476.925781 87.398438 L 474.5625 88.144531 L 473.632812 89.082031 L 472.210938 89.082031 L 470.347656 88.027344 L 470.347656 87.027344 L 468.554688 87.027344 L 464.832031 88.644531 L 464.832031 89.875 L 463.585938 91.746094 L 464.832031 91.746094 L 464.832031 93.96875 L 460.546875 93.96875 L 460.929688 97.507812 L 454.960938 97.890625 L 453.976562 98.9375 L 453.167969 101.417969 L 448.757812 103.832031 L 448.757812 105.203125 L 450.066406 106.5625 L 447.335938 107.433594 L 444.667969 105.324219 L 444.667969 103.339844 L 443.742188 102.410156 L 443.742188 100.175781 L 440.882812 101.601562 L 439.828125 102.65625 L 437.789062 103.648438 L 434.679688 102.347656 L 433.078125 103.039062 L 430.410156 102.039062 L 426.5 102.039062 L 426.5 103.214844 L 429.164062 104.269531 L 431.464844 106.5625 L 433.503906 106.753906 L 433.503906 108.179688 L 432.019531 110.226562 L 432.019531 109.234375 L 429.164062 109.417969 L 427.363281 107.554688 L 425.070312 108.363281 L 424.695312 111.464844 L 422.585938 111.464844 L 421.277344 110.164062 L 417.683594 114.570312 L 418.9375 116.734375 L 417.625 116.734375 L 409.992188 121.636719 L 412.167969 119.464844 L 412.167969 118.480469 L 414.023438 116.796875 L 414.023438 115.378906 L 415.015625 114.386719 L 415.015625 109.855469 L 408.882812 113.332031 L 407.953125 114.878906 L 408.882812 115.804688 L 406.652344 118.84375 L 404.78125 119.464844 L 405.40625 118.84375 L 406.460938 113.457031 L 400.566406 113.457031 L 399.449219 114.570312 L 398.644531 116.796875 L 398.644531 118.664062 L 401.3125 121.457031 L 399.390625 121.457031 L 397.035156 119.097656 L 395.980469 117.050781 L 395.980469 113.203125 L 392.820312 113.203125 L 391.082031 114.941406 L 391.082031 116.796875 L 393.3125 118.664062 L 393.132812 119.902344 L 395.359375 122.203125 L 393.132812 122.203125 L 392.378906 123.3125 L 387.796875 118.664062 L 385.554688 118.664062 L 385.554688 117.417969 L 386.734375 115.558594 L 382.148438 117.363281 L 380.59375 118.84375 L 378.800781 118.84375 L 376.753906 120.957031 L 373.96875 122.074219 L 376.308594 124.421875 L 374.894531 125.859375 L 376.132812 127.527344 L 379.292969 127.40625 L 381.402344 125.242188 L 383.832031 126.351562 L 381.648438 128.519531 L 381.402344 131.003906 L 382.457031 132.058594 L 382.949219 133.613281 L 381.402344 135.105469 L 377.617188 133.359375 L 375.878906 135.105469 L 372.714844 136.652344 L 371.421875 138.015625 L 372.222656 139.628906 L 377.308594 140.621094 L 378.179688 139.753906 L 381.957031 139.753906 L 379.601562 142.101562 L 378.800781 142.101562 L 377.925781 142.914062 L 377.925781 143.777344 L 376.132812 142.292969 L 373.46875 142.292969 L 369.246094 140.867188 L 369.246094 143.039062 L 370.546875 144.40625 L 367.324219 148.5 L 367.507812 150.730469 L 365.515625 151.039062 L 364.40625 149.917969 L 364.40625 146.015625 L 361.992188 146.015625 L 359.320312 148.679688 L 361.558594 151.164062 L 359.945312 151.972656 L 357.460938 151.972656 L 354.796875 150.730469 L 352.933594 151.347656 L 352.3125 151.972656 L 351.503906 153.648438 L 349.335938 155.695312 L 353.179688 155.878906 L 354.605469 154.449219 L 358.265625 155.070312 L 359.511719 156.316406 L 358.699219 157.117188 L 355.84375 157.117188 L 354.980469 157.980469 L 357.035156 160.027344 L 358.820312 160.027344 L 359.511719 161.640625 L 354.605469 161.273438 L 351.628906 159.910156 L 350.710938 160.839844 L 345.363281 162.695312 L 348.65625 164.558594 L 360.753906 164.933594 L 355.421875 167.226562 L 354.167969 167.226562 L 351.765625 165.796875 L 346.910156 166.113281 L 343.933594 169.089844 L 340.773438 169.582031 L 335.816406 173.675781 L 336.433594 174.304688 L 332.894531 177.527344 L 333.703125 179.320312 L 331.839844 181.183594 L 329.792969 181.183594 L 329.484375 182.546875 L 331.230469 184.285156 L 338.546875 183.730469 L 335.5625 186.332031 L 328.371094 186.953125 L 329.429688 192.222656 L 328.800781 191.601562 L 326.453125 191.601562 L 324.347656 192.53125 L 324.347656 193.648438 L 323.039062 194.949219 L 321.738281 195.261719 L 320.800781 196.1875 L 321.421875 198.242188 L 322.851562 198.242188 L 323.46875 200.726562 L 322.414062 200.726562 L 320.546875 200.039062 L 319.691406 200.039062 L 317.515625 202.148438 L 318.945312 203.640625 L 321.175781 203.640625 L 321.175781 205.058594 L 322.605469 205.058594 L 325.578125 204.125 L 321.984375 208.164062 L 312.804688 208.535156 L 312.804688 211.203125 L 313.796875 212.257812 L 311.445312 212.941406 L 310.136719 214.304688 L 310.136719 215.542969 L 312.175781 217.40625 L 310.566406 219.019531 L 310.136719 220.691406 L 307.898438 220.691406 L 306.226562 219.019531 L 302.140625 219.019531 L 301.519531 220.691406 L 299.65625 220.882812 L 298.964844 222.613281 L 297.417969 224.167969 L 295.808594 224.167969 L 294.132812 225.835938 L 294.75 227.453125 L 294.75 229.007812 L 293.203125 229.007812 L 290.230469 231.984375 L 291.402344 233.160156 L 290.472656 234.023438 L 291.464844 236.507812 L 292.894531 236.761719 L 293.757812 235.886719 L 295.5625 235.886719 L 296.988281 234.460938 L 298.042969 234.460938 L 300.265625 233.714844 L 301.386719 233.714844 L 303.066406 232.101562 L 300.894531 229.929688 L 303.378906 229.929688 L 307.035156 227.082031 L 309.511719 227.082031 L 309.203125 228.636719 L 306.851562 229.316406 L 305.425781 231.183594 L 306.851562 232.601562 L 306.851562 233.53125 L 303.6875 233.53125 L 301.703125 235.515625 L 302.011719 236.632812 L 302.933594 237.5625 L 302.320312 238.800781 L 294.386719 238.371094 L 294.070312 239.917969 L 293.140625 240.855469 L 290.664062 241.21875 L 290.664062 238.554688 L 288.617188 236.507812 L 287.0625 235.832031 L 281.414062 241.464844 L 281.414062 238.800781 L 280.855469 239.425781 L 277.570312 239.425781 L 275.898438 242.09375 L 275.898438 244.140625 L 274.46875 244.140625 L 273.667969 245.5625 L 277.335938 249.289062 L 274.03125 248.171875 L 272.304688 248.171875 L 271 246.808594 L 269.574219 246.808594 L 273.46875 250.710938 L 273.46875 252.574219 L 270.558594 249.664062 L 268.765625 249.664062 L 267.097656 248.042969 L 267.097656 246.371094 L 265.488281 246.371094 L 264.234375 247.425781 L 257.472656 247.425781 L 257.171875 248.972656 L 258.910156 250.710938 L 261.382812 250.710938 L 264.667969 252.140625 L 262.375 254.441406 L 258.71875 254.441406 L 255.796875 253.386719 L 250.710938 254.1875 L 253.578125 256.171875 L 255.550781 256.171875 L 259.648438 260.882812 L 258.464844 261.996094 L 258.464844 260.210938 L 250.65625 256.542969 L 251.703125 257.726562 L 250.09375 257.726562 L 250.09375 260.820312 L 249.039062 259.773438 L 246.316406 259.457031 L 244.949219 260.820312 L 247.617188 263.488281 L 240.675781 263.25 L 238.492188 265.414062 L 242.902344 267.582031 L 243.960938 268.574219 L 234.214844 269.628906 L 234.214844 271.367188 Z M 237.191406 274.339844 " fill-opacity="1" fill-rule="nonzero"/><path fill="#7cc133" d="M 570.972656 190 L 570.972656 175.730469 L 570.78125 175.921875 Z M 570.972656 190 " fill-opacity="1" fill-rule="nonzero"/><path fill="#7cc133" d="M 570.972656 175.730469 L 571.773438 174.921875 Z M 570.972656 175.730469 " fill-opacity="1" fill-rule="nonzero"/><path fill="#7cc133" d="M 701.964844 426.003906 L 703.019531 425.011719 L 701.535156 426.003906 Z M 701.964844 426.003906 " fill-opacity="1" fill-rule="nonzero"/><g clip-path="url(#021bd2b8d1)"><path fill="#7cc133" d="M 683.675781 164.878906 L 683.054688 165.558594 L 683.238281 167.242188 L 684.847656 169.21875 L 685.101562 170.144531 L 684.539062 171.511719 L 682.683594 172.136719 L 672.199219 170.644531 L 671.765625 171.511719 L 671.765625 172.445312 L 672.757812 172.691406 L 675.121094 174.742188 L 676.90625 173.320312 L 677.789062 173.183594 L 679.269531 173.867188 L 685.414062 173.867188 L 686.585938 173.375 L 687.640625 173.375 L 688.515625 174.304688 L 689.125 174.304688 L 691.984375 176.96875 L 692.484375 177.105469 L 694.09375 174.804688 L 694.347656 173.75 L 695.515625 172.511719 L 699.054688 173.867188 L 699.925781 173.867188 L 702.339844 172.382812 L 707.613281 172.511719 L 708.972656 173.003906 L 710.71875 173.003906 L 712.828125 171.328125 L 712.828125 170.898438 L 712.390625 169.78125 L 709.664062 167.597656 L 708.550781 167.597656 L 705.8125 166.613281 L 705.8125 166.050781 L 703.585938 165.621094 L 702.527344 164.566406 L 702.527344 163.757812 L 702.027344 163.265625 L 692.609375 161.15625 L 690.992188 161.527344 L 689.808594 162.648438 L 686.414062 162.648438 L 684.421875 160.910156 L 682.128906 160.347656 L 681.316406 161.15625 L 679.890625 161.527344 L 679.390625 162.089844 L 679.390625 163.511719 L 681.253906 163.511719 Z M 683.675781 164.878906 " fill-opacity="1" fill-rule="nonzero"/></g><path fill="#7cc133" d="M 603.902344 146.707031 L 603.96875 147.761719 L 607.195312 145.648438 L 612.347656 144.285156 L 616.3125 141.554688 L 622.703125 142.363281 L 622.390625 143.484375 L 620.71875 144.660156 L 625.675781 145.339844 L 626.242188 145.886719 L 627.488281 146.386719 L 630.019531 145.832031 L 631.382812 146.332031 L 634.976562 149.246094 L 640.191406 150.363281 L 642.238281 149.992188 L 643.109375 150.855469 L 643.484375 151.972656 L 643.484375 153.839844 L 646.148438 156.257812 L 650.738281 156.1875 L 653.03125 156.996094 L 653.902344 157.871094 L 653.03125 159.109375 L 651.171875 159.789062 L 649.6875 161.339844 L 650.617188 162.273438 L 653.648438 161.835938 L 654.894531 161.09375 L 665.988281 162.089844 L 666.988281 161.773438 L 668.589844 160.101562 L 672.382812 160.101562 L 673.3125 159.171875 L 672.382812 158.234375 L 670.953125 157.871094 L 669.898438 156.625 L 666.1875 155.394531 L 663.640625 155.394531 L 662.457031 154.210938 L 662.457031 153.285156 L 658.304688 152.410156 L 656.6875 150.671875 L 654.394531 149.925781 L 652.472656 148.433594 L 651.980469 148.253906 L 651.671875 148.007812 L 646.714844 146.707031 L 645.832031 145.886719 L 639.570312 143.730469 L 637.960938 143.730469 L 634.800781 140.253906 L 631.144531 139.691406 L 629.535156 138.707031 L 625.121094 138.136719 L 623.320312 138.707031 L 619.726562 138.082031 L 605.203125 142.609375 L 603.410156 144.90625 L 604.347656 145.832031 Z M 603.902344 146.707031 " fill-opacity="1" fill-rule="nonzero"/></svg>