<svg xmlns="http://www.w3.org/2000/svg" xmlns:xlink="http://www.w3.org/1999/xlink" width="1024" zoomAndPan="magnify" viewBox="0 0 768 767.999994" height="1024" preserveAspectRatio="xMidYMid meet" version="1.0"><defs><clipPath id="00bbc5c711"><path d="M 71 119.109375 L 697 119.109375 L 697 641 L 71 641 Z M 71 119.109375 " clip-rule="nonzero"/></clipPath></defs><g clip-path="url(#00bbc5c711)"><path fill="#7cc133" d="M 406.730469 627.855469 C 401.648438 622.546875 404.375 620.996094 408.277344 617.476562 C 406.769531 615.882812 405.875 612.160156 405.808594 610.039062 C 408.007812 606.480469 407.058594 594.140625 413.464844 599.378906 C 415.910156 588.113281 425.046875 592.652344 418.238281 582.679688 C 427.414062 575.730469 422.777344 584.910156 427.777344 578.613281 C 427.914062 578.191406 427.777344 570.195312 427.777344 570.195312 C 423.5625 570.765625 422.6875 562.449219 422.867188 559.390625 C 422.503906 553.050781 415.691406 545.773438 410.796875 542.414062 C 410.351562 533.664062 398.167969 548.433594 395.085938 550.410156 C 389.425781 551.742188 378.828125 545.5625 374.253906 542.835938 C 364.71875 544.582031 346.246094 534.058594 336.71875 535.398438 C 332.402344 532.816406 325.613281 527.925781 323.394531 534.839844 C 323.394531 534.839844 313.289062 535.117188 313.289062 535.117188 C 309.910156 532.238281 308.855469 532.980469 306.976562 536.523438 C 306.632812 536.554688 305.210938 544.800781 303.328125 543.113281 C 297.398438 533.257812 298.972656 546.753906 293.507812 538.90625 C 295.699219 533.09375 293.839844 532.714844 289.4375 531.753906 C 287.359375 523.980469 287.144531 522.882812 279.617188 525.582031 C 275.371094 531.183594 277.453125 519.746094 270.496094 528.386719 C 270.089844 536.824219 282.8125 535.03125 278.777344 541.992188 C 271.195312 545.503906 270.234375 530.453125 266.148438 533.574219 C 267.117188 534.800781 267.6875 539.0625 266.148438 540.167969 C 264.386719 540.066406 261.628906 538.449219 260.398438 537.222656 C 260.394531 537.222656 253.101562 537.082031 253.101562 537.082031 C 251.167969 534.546875 245.371094 529.738281 243.5625 534.695312 C 234.808594 534.246094 240.097656 529.488281 227.003906 531.472656 C 226.578125 528.21875 222.359375 526.851562 219.851562 527.402344 C 195.550781 505.945312 197.050781 526.453125 190.523438 517.019531 C 189.878906 515.117188 190.011719 513.691406 191.507812 512.25 C 192.625 507.554688 190.660156 500.675781 184.773438 502.429688 C 186.335938 499.359375 183.550781 496.304688 182.25 493.871094 C 182.25 493.167969 182.25 483.769531 182.25 483.769531 C 178.804688 481.296875 178.625 475.90625 176.007812 473.351562 C 174.9375 470.085938 176.257812 466.019531 175.359375 462.828125 C 171.597656 461.078125 174.480469 456.125 177.058594 454.410156 C 179.464844 454.207031 183.683594 454.609375 186 455.039062 C 187.148438 453.417969 185.421875 451.046875 184.421875 450.097656 C 184.421875 450.097656 183.894531 442.835938 183.894531 442.835938 C 177.183594 438.949219 178.355469 429.890625 172.535156 427.785156 C 169.898438 428.300781 165.148438 426.527344 163.691406 428.945312 C 165.015625 434.628906 158.484375 436.726562 157.90625 430.207031 C 147.585938 427.328125 163.28125 442.570312 143.066406 438.941406 C 141.910156 434.515625 135.707031 438.496094 134.441406 433.996094 C 134.519531 428.148438 133.480469 419.148438 132.230469 413.6875 C 142.832031 409 137.644531 388.171875 138.652344 378.960938 C 143.867188 373.570312 148.515625 365.734375 151.804688 359.179688 C 158.304688 356.890625 158.65625 352.734375 151.277344 353.8125 C 147.964844 349.902344 149.78125 342.503906 143.175781 342.976562 C 136.667969 336.601562 149.515625 326.570312 154.46875 323.121094 C 155.703125 319.023438 150.742188 319.046875 147.804688 318.351562 C 146.621094 317.390625 146.238281 316.753906 144.929688 317.019531 C 141.84375 317.128906 142.980469 322.03125 142.121094 324.105469 C 138.492188 329.605469 127.574219 329.226562 129.425781 321.160156 C 130.230469 314.234375 126.03125 323.617188 123.25 322.140625 C 123.21875 321.449219 120.136719 320.027344 121.078125 319.054688 C 124.222656 317.777344 116.683594 305.289062 116.726562 304.113281 C 116.726562 304.113281 108.589844 304.113281 108.589844 304.113281 L 104.871094 300.042969 C 103.199219 285.832031 116.941406 293.363281 125.390625 292.519531 C 127.121094 286.746094 113.449219 292.347656 115.976562 285.574219 C 121.824219 283.613281 115.839844 273.1875 113.027344 279.050781 C 113.027344 279.050781 98.980469 270.296875 98.980469 270.296875 C 95.902344 277.492188 89.648438 270.933594 91.753906 265.316406 C 89.5 266.292969 88.839844 263.722656 88.667969 261.738281 C 88.457031 261.527344 82.914062 255.078125 82.914062 255.078125 C 81.53125 253.640625 83.550781 249.222656 82.632812 247.777344 C 74.636719 245.285156 74.933594 233.613281 74.671875 227.015625 C 74.230469 225.9375 73.585938 221.320312 71.199219 222.492188 C 70.496094 218.511719 74.449219 213.464844 72.984375 209.335938 C 73.742188 203.097656 68.902344 194.351562 80.390625 195.871094 C 81.957031 198.964844 79.398438 199.582031 77.441406 200.5 C 77.226562 205.261719 77.628906 210.183594 82.355469 212.5625 C 83.351562 214.152344 81.28125 216.3125 80.527344 217.476562 C 79.503906 220.851562 82.519531 230.347656 82.984375 233.75 C 85.941406 233.03125 93.8125 235.289062 94.765625 231.011719 C 94.769531 231.015625 97.820312 235.644531 97.820312 235.644531 C 100.109375 235.472656 102.277344 235.917969 103.960938 237.398438 C 107.585938 239.6875 113.480469 248.398438 117.359375 242.800781 C 120.386719 244.929688 126.324219 246.628906 124.933594 251.289062 C 129.753906 256.433594 136.757812 261.621094 144.15625 260.476562 C 149.667969 261.722656 159.609375 265.175781 164.570312 267.773438 C 167.566406 269.726562 172.253906 272.636719 175.726562 272.824219 C 177.777344 274.183594 177.914062 276.144531 177.621094 278.226562 C 177.621094 278.226562 185.792969 284.679688 185.792969 284.679688 C 192.757812 287.824219 185.875 295.042969 198.523438 292.046875 C 208.589844 281.546875 226.109375 287.953125 237.667969 278.363281 C 243.066406 276.527344 250.96875 278.140625 255.0625 273.03125 C 259.28125 273.371094 260.953125 272.628906 261.449219 268.402344 C 264.285156 269.195312 261.59375 263.191406 262.011719 262.019531 C 263.144531 259.050781 266.78125 262.867188 269.515625 261.601562 C 276.640625 255.003906 275.960938 260.449219 275.019531 248.796875 C 276.433594 236.65625 286.300781 226.03125 286.808594 213.757812 C 290.019531 211.769531 295.734375 207.484375 287.964844 208.074219 C 284.53125 202.421875 280.914062 201.449219 286.492188 194.816406 C 289.835938 193.046875 297.765625 201.734375 297.59375 194.816406 C 292.984375 193.144531 294.0625 182.671875 293.910156 179.292969 C 293.910156 179.292969 296.699219 178.136719 296.753906 177.824219 C 297.300781 175.203125 294.664062 173.746094 295.015625 171.140625 C 295.917969 169.421875 299.9375 169.929688 301.433594 169.878906 C 301.433594 169.878906 308.640625 160.039062 308.640625 160.039062 C 310.007812 154.824219 310.664062 156.875 315.328125 155.148438 C 317.671875 149.472656 312.867188 149.9375 314.375 144.308594 C 316.886719 144.5 318.570312 141.40625 319.320312 139.539062 C 322.726562 138.972656 325.875 137.113281 325.425781 133.296875 C 328.980469 134.019531 335.246094 132.671875 336.71875 129.15625 C 342.441406 129.789062 349.667969 126.472656 355.519531 127.402344 C 355.519531 127.402344 365.902344 119.125 365.902344 119.125 C 370.570312 126.285156 381.644531 120.398438 387.089844 126.136719 C 389.238281 126.097656 393.765625 126.867188 393.964844 123.753906 C 395.964844 124.785156 401.386719 122.375 402.136719 125.894531 C 402.136719 125.894531 405.609375 125.683594 405.609375 125.683594 C 408.574219 125.6875 415.804688 126.765625 418.867188 126.417969 C 420.609375 128.964844 424.601562 129.433594 427.285156 129.152344 C 429.683594 127.371094 435.085938 122.210938 438.859375 123.894531 C 440.558594 130.335938 443.664062 130.414062 449.382812 131.191406 C 450.707031 136.355469 456.960938 135.835938 460.328125 138.484375 C 464.269531 143.976562 467.128906 144.671875 472.253906 147.324219 C 472.484375 151.269531 477.269531 150.503906 479.828125 150.832031 C 483.6875 153.195312 492.09375 154.917969 496.523438 154.757812 C 497.683594 153.269531 501.511719 148.9375 504.03125 149.292969 C 507.648438 147.636719 513.910156 154.8125 516.304688 156.511719 C 517.589844 156.308594 524.476562 149.65625 526.546875 151.886719 C 531.085938 161.371094 525.203125 164.480469 525.777344 172.015625 C 538.402344 169.8125 526.957031 177.777344 537 181.207031 C 543.574219 174.871094 544.03125 173.125 554.820312 173.421875 C 555.78125 176.445312 561.554688 175.261719 563.519531 175.105469 C 567.789062 176.914062 573.367188 183.582031 578.109375 182.402344 C 578.851562 181.492188 581.6875 180.265625 583.019531 181.136719 C 585.609375 202.609375 594.515625 175.214844 597.046875 192.640625 C 597.511719 198.039062 602.917969 192.121094 603.996094 190.257812 C 607.78125 189.851562 611.90625 192.59375 615.78125 191.515625 C 617.941406 194.804688 627.136719 200.332031 626.582031 205.269531 C 628.757812 227.394531 616.359375 210.46875 623.496094 227.578125 C 622.984375 231.566406 622.429688 235.636719 626.585938 237.539062 C 623.8125 241.375 630.019531 250.046875 631.777344 253.253906 C 631.058594 257.140625 633.640625 265.324219 635.425781 268.824219 C 634.882812 272.28125 637.089844 279.015625 638.929688 281.59375 C 640.925781 286.878906 631.09375 289.523438 631.53125 294.152344 C 631.53125 294.152344 633.425781 295.308594 633.425781 295.308594 L 633.425781 297.621094 C 631.570312 300.039062 630.277344 304.726562 629.84375 307.511719 C 618.648438 313.683594 626.902344 322.078125 633.320312 327.613281 C 656.058594 325.292969 647.8125 344.03125 666.253906 345.816406 C 666.253906 345.816406 668.464844 340.449219 668.464844 340.449219 C 670.835938 340.28125 679.425781 339.976562 677.410156 344.449219 C 671.460938 349.015625 671.320312 349.292969 676.460938 354.128906 C 674.519531 355.121094 674.78125 356.933594 674.777344 358.546875 C 675.453125 359.363281 677.460938 362.441406 678.988281 361.8125 C 678.988281 361.8125 678.777344 364.230469 678.988281 364.652344 C 682.105469 367.914062 684.171875 375.273438 680.25 378.21875 C 676.980469 378.167969 674.601562 377.503906 673.726562 381.277344 C 673.472656 384.925781 673.996094 393.621094 675.09375 397.273438 C 673.609375 400.617188 673.035156 408.726562 673.515625 412.425781 C 681.550781 410.605469 675.179688 418.054688 683.828125 416.320312 C 684.195312 416.265625 688.816406 414.375 688.351562 416.527344 C 688.351562 416.527344 693.71875 420.105469 693.71875 420.105469 C 692.828125 421.726562 695.75 427.46875 695.925781 428.839844 C 699.136719 443.378906 680.066406 430.226562 681.933594 443.152344 C 685.585938 445.558594 683.71875 450.226562 679.933594 451.675781 C 679.679688 453.339844 681.164062 456.007812 682.144531 457.25 C 682.40625 461.304688 677.867188 465.515625 673.722656 464.300781 C 670.78125 459.242188 667.386719 469.914062 665.515625 470.929688 C 663.800781 475.734375 661.640625 481.585938 655.625 482.292969 C 650.4375 496.261719 662.121094 486.074219 658.886719 511.023438 C 650.917969 514.8125 645.128906 509.929688 647.105469 521.964844 C 645.023438 523.84375 640.171875 524.53125 637.421875 524.488281 C 633.476562 528.820312 629.460938 541.152344 628.96875 546.484375 C 625.261719 548.972656 625.171875 554.933594 624.058594 558.550781 C 627.980469 557.976562 630.515625 561.992188 630.019531 565.703125 C 614.570312 574.492188 621.894531 587.039062 610.589844 585.347656 C 605.90625 584.257812 604.539062 582.75 605.121094 588.15625 C 598.84375 596.574219 591.261719 608.097656 580.808594 611.828125 C 573.992188 615.335938 560.554688 624.15625 553.242188 626.347656 C 551.699219 628.265625 549.011719 631.4375 545.769531 630.242188 C 542.332031 625.835938 542.773438 632.261719 541.140625 633.714844 C 534.703125 634.597656 539.378906 626.199219 525.777344 629.296875 C 519.90625 638.617188 517.359375 622.628906 512.464844 632.820312 C 504.738281 629.058594 508.984375 638.5625 502.488281 628.910156 C 498.4375 632.769531 497.894531 632.230469 492.734375 632.769531 C 489.878906 634.140625 493.242188 636.320312 493.929688 637.816406 C 489.507812 648.878906 486.585938 625.769531 475.128906 639.226562 C 472.902344 637.71875 464.050781 637.054688 460.957031 636.625 C 458.09375 633.90625 452.371094 629.660156 449.347656 633.152344 C 443.027344 634.132812 444.953125 631.21875 440.578125 630.3125 C 439.375 634.582031 429.945312 632.859375 426.933594 633.046875 C 422.695312 636.207031 418.46875 631.234375 415.921875 627.714844 C 411.765625 625.757812 409.382812 623.285156 406.730469 627.855469 " fill-opacity="1" fill-rule="nonzero"/></g></svg>