<svg xmlns="http://www.w3.org/2000/svg" xmlns:xlink="http://www.w3.org/1999/xlink" width="1024" zoomAndPan="magnify" viewBox="0 0 768 767.999994" height="1024" preserveAspectRatio="xMidYMid meet" version="1.0"><path fill="#7cc133" d="M 447.003906 181.070312 C 445.179688 183.355469 449.164062 184.1875 450.164062 182.898438 C 452.03125 180.53125 447.585938 180.324219 447.003906 181.070312 Z M 442.894531 186.554688 C 443.265625 188.671875 442.726562 190.707031 442.769531 192.867188 C 440.691406 203.542969 457.347656 201.421875 458.800781 192.824219 C 465.488281 180.820312 451.78125 188.546875 446.671875 185.015625 C 446.671875 185.097656 443.183594 186.011719 442.894531 186.554688 Z M 384.699219 581.6875 C 386.859375 583.101562 384.285156 583.019531 384.824219 584.472656 C 385.699219 584.804688 386.15625 585.011719 386.15625 586.132812 C 394.046875 593.320312 390.722656 575.292969 384.699219 581.6875 Z M 383.121094 687.566406 C 383.164062 685.945312 378.925781 684.117188 380.132812 687.773438 C 380.589844 690.058594 383.953125 691.097656 383.121094 687.566406 Z M 379.175781 693.378906 C 375.976562 691.636719 374.273438 697.367188 379.800781 694.917969 C 380.546875 694.167969 379.175781 693.257812 378.71875 692.839844 C 378.84375 693.007812 379.011719 693.214844 379.175781 693.378906 Z M 381.835938 693.214844 C 382.292969 693.628906 382.957031 691.511719 381.753906 691.761719 C 380.132812 692.050781 381.585938 692.921875 381.835938 693.214844 Z M 372.15625 690.597656 C 370.328125 691.96875 378.761719 692.550781 377.597656 690.847656 C 377.183594 690.222656 372.613281 690.265625 372.15625 690.597656 Z M 381.917969 698.199219 C 383.082031 698.40625 392.011719 701.648438 387.609375 698.40625 C 386.445312 696.453125 378.429688 696.039062 381.917969 698.199219 Z M 410.992188 703.515625 C 410.953125 705.550781 413.195312 705.382812 415.023438 705.59375 C 413.070312 705.300781 413.113281 703.640625 410.992188 703.515625 Z M 346.777344 671.90625 C 346.863281 673.402344 348.648438 676.433594 350.640625 675.519531 C 353.300781 674.316406 347.816406 672.03125 346.777344 671.90625 Z M 343.207031 669.457031 C 339.675781 664.636719 339.507812 671.699219 343.496094 673.234375 C 343.914062 671.949219 343 670.742188 343.207031 669.457031 Z M 317.828125 612.011719 C 316.746094 612.550781 320.152344 614.585938 320.984375 613.753906 C 323.433594 612.550781 318.90625 611.929688 317.828125 612.011719 Z M 322.394531 607.773438 C 321.730469 606.902344 320.609375 605.03125 319.15625 606.277344 C 317.453125 609.1875 327.007812 613.339844 322.394531 607.773438 Z M 322.644531 604.992188 C 321.648438 601.460938 316.707031 604.742188 313.921875 603.910156 C 316.539062 606.03125 319.988281 605.03125 322.644531 604.992188 Z M 326.632812 605.242188 C 328.253906 605.03125 327.421875 602.996094 326.050781 603.039062 C 323.933594 603.039062 324.679688 605.488281 326.632812 605.242188 Z M 316.207031 587.378906 C 311.265625 583.558594 316.664062 581.980469 311.347656 578.824219 C 306.113281 581.273438 318.035156 601.585938 316.207031 587.378906 Z M 212.285156 101.613281 C 216.851562 105.183594 213.53125 104.894531 214.152344 110.125 C 217.144531 114.488281 218.804688 118.722656 222.085938 122.378906 C 219.21875 136.542969 226.738281 154.902344 209.417969 162.460938 C 211.160156 168.109375 208.378906 165.203125 206.09375 167.695312 C 211.949219 173.261719 200.902344 172.304688 198.285156 175.171875 C 197.453125 186.679688 183.457031 200.925781 196.375 209.773438 C 195.75 213.800781 198.910156 210.769531 198.242188 208.652344 C 194.382812 207.820312 199.90625 206.40625 200.613281 208.402344 C 191.558594 221.777344 185.328125 222.855469 191.265625 238.722656 C 205.429688 255.917969 228.191406 292.679688 237.246094 319.46875 C 251.453125 336.832031 276.457031 340.570312 289.167969 358.640625 C 300.007812 405.574219 290.578125 452.636719 302.375 498.078125 C 305.742188 516.1875 293.070312 535.5 305.242188 551.824219 C 309.769531 560.546875 302.832031 573.382812 314.007812 579.488281 C 311.058594 575.417969 315.957031 578.53125 315.917969 576.289062 C 313.132812 572.09375 317.578125 574.835938 318.867188 576.082031 C 322.8125 572.386719 320.195312 575.875 319.945312 578.449219 C 323.640625 580.277344 319.902344 582.023438 321.691406 583.933594 C 320.902344 587.214844 324.308594 589.125 322.0625 591.90625 C 324.265625 595.3125 326.21875 595.1875 324.847656 599.46875 C 333.402344 603.371094 326.011719 605.613281 326.589844 611.136719 C 320.027344 610.847656 325.554688 613.257812 327.214844 615.832031 C 327.132812 615.664062 328.128906 618.78125 328.210938 618.324219 C 327.589844 621.023438 323.308594 615.707031 323.1875 615.582031 C 321.566406 613.921875 314.046875 614.875 317.621094 617.617188 C 310.476562 622.476562 320.695312 629.664062 316.332031 622.394531 C 337.433594 626.757812 322.8125 624.347656 327.753906 632.988281 C 327.921875 636.394531 331.574219 636.558594 333.277344 639.921875 C 331.574219 645.65625 328.960938 635.0625 325.679688 635.976562 C 326.757812 630.121094 324.265625 636.394531 322.355469 634.605469 C 319.238281 643.535156 329.292969 639.21875 328.875 642.871094 C 328.210938 645.488281 323.519531 639.425781 324.265625 643.453125 C 326.300781 644.742188 324.804688 647.027344 328.585938 648.230469 C 330.414062 650.515625 327.835938 648.6875 327.503906 649.976562 C 328.046875 651.429688 329.832031 651.347656 330.703125 652.011719 C 331.785156 655 330.828125 659.945312 334.691406 660.359375 C 335.648438 656.414062 333.445312 654.417969 332.117188 652.507812 C 334.898438 651.179688 338.179688 654.875 339.261719 657.285156 C 335.230469 663.101562 340.464844 660.359375 339.261719 664.929688 C 335.230469 665.925781 338.386719 670.039062 340.753906 666.546875 C 343.539062 650.433594 351.722656 683.246094 357.828125 668.542969 C 362.894531 671.324219 352.800781 673.941406 355.417969 677.304688 C 363.972656 674.648438 381.085938 676.226562 358.117188 679.464844 C 365.429688 684.90625 351.679688 678.96875 348.730469 678.761719 C 355.085938 689.269531 382 671.78125 369.996094 684.117188 C 361.855469 681.460938 361.730469 688.730469 368.003906 690.597656 C 370.660156 690.183594 370.828125 688.519531 368.792969 686.902344 C 364.429688 682.125 374.523438 688.5625 375.894531 688.894531 C 384.203125 687.730469 368.253906 676.601562 380.214844 676.101562 C 388.523438 673.984375 376.976562 681.335938 381.085938 683.410156 C 397.160156 682.789062 375.4375 688.4375 394.546875 693.132812 C 383.871094 688.9375 381.960938 700.066406 392.46875 695.832031 C 393.339844 697.160156 391.347656 698.945312 393.300781 700.277344 C 401.441406 705.925781 396.289062 697.785156 400.777344 700.441406 C 400.320312 703.390625 401.855469 703.515625 404.222656 702.394531 C 405.46875 703.640625 406.796875 706.214844 409.082031 705.136719 C 399.738281 695 405.21875 701.769531 414.316406 701.105469 C 407.960938 695.457031 421.460938 703.804688 417.058594 698.363281 C 419.34375 698.15625 422.042969 697.867188 424.328125 697.617188 C 411.285156 691.675781 390.847656 682.25 384.121094 673.234375 C 401.355469 678.675781 374.316406 664.929688 379.46875 656.828125 C 385.324219 654.046875 386.15625 650.722656 383.621094 644.824219 C 406.464844 623.933594 375.398438 630.703125 373.152344 615.292969 C 371.660156 611.59375 377.972656 606.527344 381.046875 607.609375 C 386.859375 608.8125 380.714844 604.285156 383.953125 601.792969 C 380.171875 595.519531 383.664062 592.113281 385.449219 588.335938 C 382.789062 586.382812 378.554688 586.921875 383.207031 583.890625 C 379.632812 579.902344 376.226562 575.375 374.191406 569.144531 C 384.367188 567.734375 398.824219 580.195312 393.546875 558.71875 C 385.863281 543.226562 399.695312 555.6875 410.785156 549.582031 C 421.542969 550.746094 436.371094 529.644531 423.785156 525.449219 C 420.257812 510.996094 415.976562 516.269531 408.917969 506.714844 C 444.886719 519.757812 450.246094 509.789062 455.480469 479.175781 C 466.609375 461.484375 462.746094 473.527344 459.175781 482.667969 C 471.554688 464.929688 480.441406 444.039062 473.296875 423.476562 C 475.207031 424.058594 474.75 423.0625 474.296875 421.941406 C 476.828125 423.019531 479.859375 421.898438 477.949219 418.992188 C 483.722656 416 488.5 411.265625 493.527344 407.734375 C 496.601562 408.148438 501.335938 411.515625 497.722656 405.949219 C 501.128906 407.402344 500.464844 401.878906 504.410156 403.832031 C 501.167969 397.058594 508.148438 403.207031 508.230469 399.261719 C 511.96875 399.636719 513.835938 403.164062 515.539062 397.808594 C 516.414062 401.128906 526.964844 402.460938 525.34375 395.648438 C 535.269531 390.371094 532.445312 376.75 540.585938 368.359375 C 543.285156 349.210938 544.988281 327.695312 543.328125 309.460938 C 544.988281 306.96875 543.621094 298.121094 547.480469 305.222656 C 552.007812 303.1875 557.285156 290.726562 557.035156 284.746094 C 574.9375 282.335938 584.53125 233.242188 563.058594 232.117188 C 546.734375 228.796875 538.425781 205.203125 518.78125 211.515625 C 514.75 211.265625 506.320312 205.160156 503.328125 207.570312 C 498.675781 204 490.078125 220.738281 493.277344 207.863281 C 489.125 205.121094 497.554688 201.632812 491.617188 200.675781 C 485.136719 197.476562 474.085938 189.210938 463.953125 190.664062 C 461.542969 197.851562 455.644531 199.761719 452.820312 207.195312 C 450.910156 205.410156 454.898438 198.640625 450.660156 203.417969 C 449.082031 199.886719 444.722656 203.5 442.5625 200.261719 C 440.234375 187.882812 435.125 200.386719 429.1875 198.640625 C 426.070312 195.859375 447.378906 192.160156 435.957031 189.171875 C 439.03125 183.644531 444.511719 178.121094 449 173.054688 C 447.753906 171.308594 451.492188 167.65625 447.089844 166.53125 C 444.761719 165.992188 445.757812 159.179688 443.722656 164.496094 C 439.363281 158.765625 442.519531 145.972656 435.914062 143.3125 C 434.917969 142.234375 434.792969 140.449219 433.296875 139.824219 C 422.457031 126.949219 406.507812 127.03125 392.011719 126.78125 C 389.226562 129.730469 383.246094 114.28125 380.050781 119.847656 C 378.386719 102.441406 365.136719 104.1875 354.171875 102.109375 C 367.296875 100.40625 354.128906 85.578125 348.730469 91.519531 C 347.316406 86.492188 341.296875 84.207031 348.480469 83.667969 C 347.359375 80.59375 334.277344 84.125 330.953125 86.617188 C 322.394531 92.265625 315.5 79.722656 305.988281 84.167969 C 301.378906 86.285156 298.84375 83.417969 299.21875 78.890625 C 292.488281 69.378906 265.410156 78.144531 275.625 90.894531 C 277.203125 102.691406 264.164062 96.003906 268.691406 88.359375 C 273.507812 84.707031 272.261719 80.511719 269.105469 76.523438 C 285.679688 67.425781 271.847656 61.777344 262.625 74.03125 C 256.519531 77.6875 250.621094 74.53125 248.542969 81.675781 C 247.421875 80.71875 245.679688 77.3125 244.265625 79.972656 C 234.546875 86.492188 240.277344 95.546875 227.359375 102.191406 C 227.570312 112.203125 223.125 99.785156 218.390625 96.917969 " fill-opacity="1" fill-rule="nonzero"/></svg>