<svg xmlns="http://www.w3.org/2000/svg" xmlns:xlink="http://www.w3.org/1999/xlink" width="1024" zoomAndPan="magnify" viewBox="0 0 768 767.999994" height="1024" preserveAspectRatio="xMidYMid meet" version="1.0"><defs><clipPath id="d8c9fd3044"><path d="M 23 86 L 748.894531 86 L 748.894531 683 L 23 683 Z M 23 86 " clip-rule="nonzero"/></clipPath></defs><g clip-path="url(#d8c9fd3044)"><path fill="#7cc133" d="M 625.871094 86.171875 C 625.910156 86.171875 625.910156 86.171875 625.871094 86.171875 Z M 458.324219 667.882812 C 456.441406 668.160156 455.8125 664.113281 454.320312 666.039062 C 450 660.109375 441.714844 655.042969 440.890625 647.664062 C 440.144531 646.640625 440.144531 648.25 440.066406 645.972656 C 441.914062 633.371094 449.765625 617.976562 447.132812 606.828125 C 447.839844 607.375 444.503906 606.277344 444.816406 606.394531 C 439.988281 595.636719 395.304688 609.535156 407.242188 598.148438 C 414.976562 583.03125 416.429688 565.992188 428.367188 553.898438 C 419.019531 541.960938 394.675781 552.128906 393.105469 567.875 C 387.804688 579.378906 378.890625 577.0625 367.820312 578.988281 C 350.425781 586.09375 342.964844 559.707031 339.863281 545.417969 C 340.765625 531.4375 343.789062 517.734375 351.25 509.644531 C 351.09375 504.855469 349.050781 494.097656 352.898438 495.3125 C 356.039062 494.527344 352.386719 490.523438 355.058594 490.523438 C 355.214844 486.832031 360.75 489.070312 361.222656 484.59375 C 364.480469 480.078125 372.414062 484.476562 375.945312 478.078125 C 376.496094 469.046875 386.667969 480.234375 387.058594 470.695312 C 389.570312 474.503906 389.335938 472.148438 392.046875 471.324219 C 394.519531 477.527344 399.230469 474.1875 402.804688 473.640625 C 415.054688 485.339844 406.847656 473.441406 415.566406 479.648438 C 416.78125 469.164062 418.902344 483.886719 422.828125 480 C 425.773438 475.761719 413.679688 476.503906 421.691406 473.363281 C 422.003906 469.792969 414.742188 472.695312 415.40625 469.085938 C 416.898438 466.414062 418.15625 468.101562 419.882812 469.59375 C 424.675781 468.574219 427.894531 465.902344 432.800781 468.574219 C 437.238281 457.539062 433.746094 470.890625 439.792969 467.394531 C 444.738281 464.804688 453.300781 467.238281 454.75 473.953125 C 460.132812 473.953125 465.824219 465.824219 468.925781 475.171875 C 474.621094 480.355469 472.617188 485.339844 468.964844 490.523438 C 468.964844 495.902344 474.1875 487.34375 471.441406 493.195312 C 473.363281 501.675781 479.921875 527.785156 486.792969 508.859375 C 486.792969 508.859375 487.261719 506.660156 487.222656 506.777344 C 486.988281 438.457031 480.273438 466.808594 528.84375 426.875 C 533.714844 430.171875 538.269531 423.105469 534.066406 420.710938 C 534.304688 417.410156 536.699219 423.695312 537.40625 419.609375 C 538.859375 419.179688 537.796875 422.242188 540.230469 421.457031 C 549.851562 414.425781 538.582031 418.316406 537.796875 413.171875 C 540.191406 412.699219 543.53125 415.449219 544.984375 410.265625 C 545.847656 406.535156 540.351562 408.222656 539.878906 405.160156 C 546.316406 408.890625 541.449219 403.707031 542.273438 401.390625 C 548.046875 405.710938 540.035156 394.246094 540.230469 392.320312 C 542.117188 387.257812 546.90625 393.144531 547.613281 388.789062 C 546.59375 385.175781 551.699219 382.664062 554.367188 383.878906 C 552.402344 386.589844 549.539062 389.769531 549.027344 393.105469 C 553.582031 394.597656 547.339844 400.566406 546.316406 403.667969 C 548.59375 405.199219 557.625 394.441406 558.253906 389.886719 C 554.761719 378.265625 560.847656 395.777344 570.664062 377.441406 C 570.585938 377.558594 571.800781 375.476562 571.761719 375.75 C 568.226562 370.332031 585.113281 372.609375 589.273438 369.3125 C 564.339844 367.191406 600.191406 366.679688 607.21875 361.734375 C 605.609375 354.628906 606.238281 363.695312 603.449219 361.890625 C 599.285156 353.882812 607.21875 349.796875 611.8125 343.515625 C 611.734375 343.554688 613.1875 343.828125 613.1875 343.828125 C 617.9375 343.554688 620.488281 341.589844 623.355469 338.175781 C 629.246094 339.667969 632.269531 335.9375 636.902344 335.582031 C 637.84375 334.011719 642.476562 336.445312 639.691406 332.402344 C 639.730469 330.675781 647.582031 330.480469 648.210938 331.421875 C 650.097656 329.734375 660.5 324.746094 655.710938 328.988281 C 655.355469 330.832031 657.949219 328.828125 658.539062 329.222656 C 653.945312 331.144531 636.117188 340.257812 642.832031 343.632812 C 643.851562 349.71875 656.183594 341.238281 657.792969 336.878906 C 662.816406 337.273438 670.515625 335.152344 675.65625 332.679688 C 678.40625 331.460938 681.664062 330.753906 684.453125 330.164062 C 687.515625 328.003906 679.625 330.28125 683.351562 328.042969 C 686.496094 326.632812 690.851562 327.964844 693.367188 324.785156 C 697.136719 323.882812 695.289062 321.25 692.542969 320.625 C 691.480469 318.621094 696.585938 315.125 693.167969 313.632812 C 681.941406 322.507812 680.878906 329.378906 665.761719 323.804688 C 666.351562 320.503906 659.363281 321.171875 661.640625 315.046875 C 662.933594 312.925781 660.1875 313.554688 659.597656 312.730469 C 661.875 311.316406 666.824219 307.585938 667.648438 305.546875 C 665.253906 307.941406 654.730469 307.902344 657.007812 303.976562 C 699.6875 296.554688 650.332031 283.714844 618.566406 314.183594 C 639.0625 296.90625 664.386719 277.863281 694.035156 285.636719 C 705.027344 286.972656 714.453125 282.027344 722.539062 275.46875 C 729.648438 274.132812 747.003906 273.464844 745.785156 263.019531 C 745.941406 261.804688 744.84375 262.433594 746.609375 262.039062 C 748.375 259.132812 747.984375 257.171875 748.496094 255.835938 C 748.847656 254.1875 745.667969 255.050781 745.429688 254.421875 C 746.21875 253.675781 744.726562 251.632812 744.726562 253.636719 C 743.585938 252.105469 739.265625 257.132812 738.679688 254.816406 C 744.804688 251.910156 739.738281 249.238281 735.890625 249.238281 C 734.4375 247.078125 743.742188 248.769531 742.722656 246.019531 C 740.289062 244.410156 738.992188 242.445312 735.734375 243.9375 C 732.394531 242.289062 731.847656 238.519531 727.09375 239.421875 C 727.171875 239.460938 726.230469 237.34375 726.191406 237.460938 C 729.410156 235.417969 724.660156 234.75 722.933594 234.632812 C 714.765625 224.777344 728.078125 233.0625 723.796875 219.988281 C 717.082031 196.191406 726.191406 185.238281 700.984375 210.011719 C 698.390625 207.265625 694.660156 214.566406 689.910156 213.390625 C 688.144531 216.019531 690.027344 209.816406 687.359375 211.542969 C 686.691406 207.03125 674.636719 209.738281 683.195312 205.457031 C 683.589844 203.496094 679.113281 205.066406 681.820312 203.21875 C 684.6875 200.078125 684.296875 194.03125 690.183594 192.777344 C 689.988281 192.226562 689.910156 187.632812 689.125 190.65625 C 677.109375 195.289062 678.050781 178.679688 668.785156 178.445312 C 660.539062 184.921875 637.570312 168.824219 639.0625 186.179688 C 637.804688 190.183594 632.152344 191.792969 628.695312 193.050781 C 642.558594 191.207031 626.105469 207.265625 619.351562 207.777344 C 618.683594 218.769531 633.40625 219.949219 612.871094 235.890625 C 606.238281 242.289062 590.253906 240.5625 588.566406 248.769531 C 589.429688 255.875 586.445312 266.632812 580.164062 270.558594 C 578.710938 276.726562 579.496094 272.25 575.097656 272.796875 C 572.902344 273.621094 572.390625 278.019531 569.835938 275.546875 C 551.226562 254.109375 588.253906 241.113281 564.851562 239.738281 C 550.953125 242.367188 543.882812 227.957031 532.300781 224.582031 C 529.082031 219.671875 510.824219 229.253906 518.046875 221.949219 C 528.097656 203.417969 506.347656 214.566406 516.082031 203.140625 C 525.234375 190.695312 543.53125 181.703125 554.015625 176.914062 C 549.8125 172.59375 568.265625 178.875 566.8125 170.433594 C 551.5 165.132812 574.902344 172.828125 576.75 164.542969 C 582.363281 169.609375 601.683594 159.753906 600.269531 155.082031 C 602.976562 152.960938 620.019531 150.054688 612.125 146.089844 C 614.519531 143.339844 620.097656 145.460938 621.511719 147.660156 C 625.554688 148.761719 622.53125 154.21875 628.382812 152.84375 C 629.011719 151.234375 625.710938 149.546875 624.769531 147.738281 C 623.394531 144.324219 631.757812 152.371094 628.421875 144.871094 C 627.910156 143.5 628.539062 144.085938 627.558594 143.378906 C 620.960938 142.675781 629.128906 139.21875 629.953125 143.222656 C 632.386719 150.722656 647.03125 141.691406 651.546875 138.316406 C 652.6875 135.136719 647.898438 134.820312 651.46875 131.523438 C 649.546875 126.929688 661.601562 133.445312 659.046875 125.121094 C 666.039062 123.867188 651.507812 123.042969 658.65625 120.332031 C 653.472656 120.019531 637.257812 114.953125 638.945312 124.414062 C 640.515625 126.691406 633.566406 126.535156 632.230469 127.949219 C 628.65625 132.464844 626.96875 133.957031 622.726562 131.328125 C 618.332031 133.523438 622.765625 138.90625 615.699219 138.746094 C 612.988281 140.789062 610.085938 134.035156 613.109375 132.738281 C 614.5625 130.421875 620.527344 132.503906 619.195312 126.730469 C 616.210938 116.328125 602.386719 135.644531 603.175781 128.65625 C 608.671875 126.652344 600.152344 122.296875 606.117188 123.121094 C 614.757812 122.726562 605.648438 120.019531 603.214844 121.3125 C 595.832031 120.804688 600.777344 118.488281 603.878906 117.742188 C 600.660156 115.304688 604.902344 116.25 606.550781 116.679688 C 610.910156 114.597656 602.191406 111.066406 608.003906 108.121094 C 604.824219 100.660156 601.328125 104.820312 611.222656 100.347656 C 617.625 94.574219 634.273438 95.910156 642.4375 88.015625 C 635.84375 88.132812 617.742188 82.636719 616.839844 89.941406 C 611.105469 87.625 610.046875 90.6875 606.746094 94.378906 C 605.53125 93.984375 604.429688 95.4375 603.371094 96.066406 C 606.550781 100.109375 598.621094 101.957031 598.578125 104.703125 C 595.597656 105.527344 580.007812 108.828125 586.132812 113.578125 C 577.179688 112.320312 577.257812 122.097656 586.289062 120.84375 C 592.21875 121.429688 590.648438 126.730469 586.878906 122.335938 C 585.9375 122.414062 585.742188 123.90625 585.820312 124.613281 C 578.320312 125.28125 581.578125 128.734375 586.445312 125.359375 C 585.464844 131.992188 571.449219 131.71875 566.226562 135.175781 C 567.875 136.980469 562.652344 144.480469 561.75 140.75 C 558.570312 141.886719 557.507812 148.210938 557.3125 140.789062 C 560.21875 138.160156 564.8125 135.761719 566.382812 131.445312 C 564.8125 131.523438 564.578125 132.269531 563.085938 132.230469 C 561.042969 125.671875 550.675781 131.640625 548.085938 135.175781 C 535.992188 136.390625 525.46875 134.625 516.003906 132.777344 C 513.101562 118.289062 484.671875 133.800781 497.117188 131.796875 C 496.882812 131.246094 496.765625 130.699219 496.726562 130.148438 C 501.4375 132.347656 505.953125 128.222656 510.78125 128.734375 C 506.738281 135.253906 492.761719 130.109375 489.5 138.746094 C 491.425781 141.496094 489.660156 143.695312 486.242188 143.222656 C 486.597656 125.90625 463.941406 140.632812 450.238281 134.898438 C 469.042969 126.96875 462.449219 126.339844 444.191406 125.945312 C 431.859375 120.410156 421.296875 116.957031 408.890625 122.921875 C 407.398438 121.039062 413.210938 121.667969 411.597656 119.035156 C 419.726562 112.320312 405.59375 118.761719 403.316406 121 C 392.28125 127.046875 404.296875 112.519531 397.109375 112.441406 C 393.96875 121.273438 381.011719 117.464844 373.394531 121.824219 C 371.117188 121.273438 368.996094 117.542969 366.523438 120.644531 C 367.898438 122.097656 371.550781 123.867188 366.5625 123.789062 C 362.753906 123.394531 366.328125 120.644531 362.519531 120.726562 C 357.882812 127.203125 361.222656 121.746094 356.234375 121.941406 C 357.257812 125.945312 349.519531 129.089844 347.164062 127.125 C 359.457031 121.863281 350.226562 122.648438 343.554688 125.90625 C 341.195312 130.777344 340.332031 123.789062 347.007812 123.160156 C 354.074219 120.683594 344.300781 120.683594 342.53125 122.414062 C 342.925781 122.921875 331.617188 125.082031 336.25 127.675781 C 309.902344 116.796875 281.082031 116.367188 254.1875 112.988281 C 259.40625 109.378906 238.792969 110.476562 238.203125 111.339844 C 240.601562 104.15625 233.570312 109.101562 228.507812 110.203125 C 224.109375 113.34375 211.582031 108.121094 211.582031 114.402344 C 192.972656 112.792969 177.34375 123.628906 159.515625 126.613281 C 153.429688 124.964844 149.542969 128.382812 144.832031 130.265625 C 144.125 133.761719 153.15625 133.878906 149.699219 138.039062 C 150.445312 137.019531 147.738281 140.554688 147.972656 139.414062 C 148.011719 144.085938 156.730469 137.097656 149.191406 143.027344 C 153.039062 145.03125 154.84375 137.097656 158.535156 141.574219 C 153.273438 142.398438 152.332031 146.835938 158.652344 143.339844 C 163.953125 144.558594 158.574219 146.757812 156.375 145.5 C 150.289062 148.210938 143.695312 149.9375 135.917969 148.40625 C 134.269531 146.441406 143.378906 143.578125 134.074219 144.363281 C 125.199219 147.464844 112.675781 149.820312 102.660156 151.585938 C 101.875 154.019531 111.023438 154.375 106.863281 155.984375 C 93.472656 162.855469 117.582031 162.582031 121.746094 160.734375 C 119.976562 165.449219 134.347656 157.042969 137.882812 158.300781 C 130.65625 162.699219 125.554688 172.359375 114.085938 169.609375 C 108.707031 171.535156 103.015625 177.34375 99.914062 171.691406 C 89.46875 175.773438 82.910156 179.660156 72.425781 183.863281 C 67.949219 184.804688 66.417969 189.242188 71.917969 188.691406 C 70.425781 191.007812 71.40625 192.894531 74.703125 192.460938 C 81.574219 188.929688 72.820312 196.976562 67.910156 191.832031 C 59.195312 195.367188 64.96875 205.105469 72.546875 199.453125 C 74.625 200.550781 77.6875 194.621094 80.554688 195.5625 C 75.921875 201.925781 55.03125 217.90625 75.960938 208.246094 C 79.730469 205.578125 78.316406 213.195312 82.441406 208.363281 C 84.089844 207.777344 81.417969 210.523438 81.339844 211.113281 C 83.027344 217.082031 87.742188 206.007812 91.511719 206.871094 C 99.207031 209.148438 84.519531 208.167969 89.941406 210.796875 C 90.84375 211.230469 94.769531 210.796875 94.730469 209.621094 C 97.476562 210.878906 100.855469 207.148438 102.859375 206.085938 C 88.488281 218.140625 68.148438 225.25 49.496094 232.003906 C 50.046875 231.609375 48.238281 232.277344 48.320312 232.238281 C 48.4375 233.335938 47.0625 233.613281 46.199219 233.535156 C 46.316406 234.867188 46.867188 235.96875 47.964844 236.4375 C 47.375 236.164062 49.8125 235.96875 49.300781 236.203125 C 49.417969 236.164062 50.558594 235.261719 50.320312 235.261719 C 53.5 234.789062 57.820312 235.222656 60.492188 233.0625 C 78.238281 225.757812 100.460938 218.140625 121.195312 210.523438 C 126.964844 206.164062 115.109375 205.890625 130.421875 202.476562 C 142.003906 200.472656 159.832031 182.761719 171.886719 191.675781 C 163.011719 187.867188 145.890625 197.175781 144.125 201.570312 C 143.339844 201.964844 144.164062 202.554688 144.359375 202.828125 C 133.839844 204.753906 141.257812 207.421875 147.421875 204.007812 C 154.453125 199.6875 157.867188 198.351562 165.761719 198.824219 C 169.019531 196.46875 174.714844 197.878906 170.824219 194.03125 C 173.140625 195.289062 174.59375 196.230469 172.042969 193.246094 C 175.261719 193.835938 176.949219 190.144531 180.601562 190.382812 C 182.996094 188.652344 183.902344 187.238281 185.039062 190.734375 C 186.765625 190.96875 193.835938 186.769531 190.617188 190.851562 C 190.734375 203.140625 193.953125 189.753906 200.746094 193.207031 C 181.585938 201.375 212.484375 196.898438 216.84375 198.46875 C 208.246094 199.371094 219.789062 204.203125 222.539062 199.765625 C 222.5 199.765625 224.109375 199.058594 224.03125 199.136719 C 223.636719 195.761719 233.847656 197.917969 229.171875 200.667969 C 226.542969 200 222.578125 202.355469 221.398438 204.242188 C 224.738281 206.988281 226.660156 209.699219 228.585938 213.546875 C 234.828125 214.019531 234.59375 211.269531 230.664062 207.34375 C 230.039062 204.632812 233.21875 206.636719 233.925781 207.933594 C 235.023438 207.734375 236.632812 206.558594 236.4375 208.246094 C 241.070312 206.714844 237.457031 209.425781 236.632812 211.464844 C 238.675781 219.671875 249.121094 197.960938 246.253906 207.382812 C 241.148438 215.394531 244.957031 212.289062 250.375 211.308594 C 251.988281 212.566406 248.335938 212.996094 247.511719 213.3125 C 243.230469 214.921875 248.964844 215.785156 248.179688 217.082031 C 242.917969 215.472656 248.84375 220.773438 243.859375 221.402344 C 243.9375 221.359375 242.957031 222.105469 242.996094 222.066406 C 239.855469 224.660156 245.941406 224.1875 242.09375 227.800781 C 245.546875 228.859375 241.855469 232.628906 246.566406 233.257812 C 242.957031 235.378906 237.378906 241.191406 245.46875 236.871094 C 234.789062 251.164062 253.085938 231.570312 252.496094 238.441406 C 248.925781 242.054688 239.460938 244.292969 241.1875 249.394531 C 236.871094 247.984375 238.480469 253.007812 237.496094 254.777344 C 237.734375 259.171875 243.585938 249.789062 245.625 251.832031 C 243.035156 256.621094 236.4375 254.617188 246.726562 257.25 C 242.09375 256.109375 236.632812 257.839844 236.832031 262.980469 C 247.667969 253.164062 235.140625 270.875 248.609375 262.628906 C 249.789062 269.539062 234.160156 267.027344 235.339844 272.957031 C 240.441406 269.933594 226.070312 281.710938 242.132812 277.589844 C 241.503906 284.539062 244.488281 278.882812 247.039062 278.21875 C 243.542969 282.734375 245.941406 282.496094 249.511719 280.375 C 242.523438 287.71875 254.851562 279.316406 248.019531 284.773438 C 240.207031 292.941406 255.050781 284.421875 249.355469 289.839844 C 248.058594 295.964844 254.226562 287.40625 253.519531 291.097656 C 250.808594 295.53125 254.066406 300.992188 250.101562 306.214844 C 246.527344 306.644531 245.820312 307.351562 246.214844 310.101562 C 246.332031 309.707031 244.722656 311.75 245.074219 311.515625 C 234.789062 316.148438 243.78125 307.625 247.273438 305.191406 C 247.863281 302.167969 242.328125 303.9375 241.109375 303.777344 C 236.832031 301.460938 235.496094 298.949219 233.257812 304.601562 C 230.585938 328.75 203.925781 345.675781 194.1875 370.804688 C 190.851562 378.265625 187.511719 390.121094 192.695312 398.328125 C 194.304688 396.128906 197.644531 392.597656 200.824219 395.421875 C 200.078125 398.566406 192.539062 394.441406 194.386719 400.921875 C 190.261719 400.175781 189.828125 405.316406 193.597656 407.007812 C 186.6875 412.699219 198.113281 421.300781 192.972656 427.1875 C 206.4375 432.175781 216.375 439.714844 212.605469 456.285156 C 213.152344 479.570312 227.722656 480.550781 220.929688 489.34375 C 228.191406 499.554688 208.992188 483.574219 216.335938 494.6875 C 215.824219 497.316406 221.046875 498.652344 223.007812 501.085938 C 225.089844 500.96875 227.328125 497.472656 226.503906 501.832031 C 238.164062 509.097656 224.972656 517.222656 229.839844 521.464844 C 233.726562 514.789062 245.78125 548.675781 248.6875 531.59375 C 246.410156 528.492188 246.609375 521.660156 241.304688 524.132812 C 244.722656 506.230469 224.738281 483.140625 225.679688 462.566406 C 225.640625 456.402344 228.546875 452.945312 233.335938 457.5 C 235.613281 454.476562 235.417969 457.621094 236.632812 458.953125 C 240.71875 461.113281 237.617188 471.992188 239.5 477.957031 C 232.511719 484.125 241.816406 478.703125 241.1875 483.21875 C 243.742188 490.40625 250.023438 488.519531 248.886719 495.433594 C 251.164062 501.398438 260.546875 502.539062 253.519531 509.136719 C 261.804688 518.363281 270.324219 528.375 276.527344 540.625 C 282.261719 564.34375 262.195312 558.414062 287.402344 577.847656 C 310.019531 590.492188 333.460938 608.75 360.359375 600.035156 C 373.945312 613.542969 386.824219 626.105469 406.925781 626.96875 C 409.242188 627.007812 412.894531 625.007812 412.1875 629.050781 C 405.945312 627.363281 419.882812 641.261719 422.515625 644.835938 C 421.769531 648.722656 425.105469 649.78125 422.828125 653.511719 C 422.554688 657.046875 428.40625 663.328125 430.015625 658.695312 C 426.207031 649.3125 432.488281 662.699219 437.003906 663.09375 C 440.695312 663.644531 440.421875 678.132812 442.578125 669.652344 C 448.351562 685.355469 441.636719 661.835938 461.347656 679.703125 C 462.09375 684.453125 467.042969 681.46875 468.808594 679.390625 C 464.882812 674.167969 464.765625 673.460938 470.929688 670.632812 Z M 516.949219 128.421875 C 514.671875 128.382812 516.125 130.660156 517.617188 130.855469 C 520.011719 131.167969 518.636719 128.460938 516.949219 128.421875 Z M 38.148438 239.5 C 34.535156 244.449219 44.117188 236.359375 46.042969 236.398438 C 44.511719 234.121094 39.523438 232.90625 34.652344 236.046875 C 31.082031 235.222656 19.144531 244.253906 25.503906 243.074219 C 32.847656 239.109375 34.261719 238.519531 39.167969 238.285156 C 39.210938 238.207031 37.796875 239.816406 38.148438 239.5 Z M 38.148438 239.5 " fill-opacity="1" fill-rule="nonzero"/></g></svg>